<svg width="200" height="54" viewBox="0 0 200 54" fill="none" xmlns="http://www.w3.org/2000/svg">
<path fill-rule="evenodd" clip-rule="evenodd" d="M26.2746 19.3469C26.1748 18.917 26.0989 18.4871 26.3273 18.0915C29.6842 19.4329 31.758 21.789 32.5665 25.3661C34.904 22.752 36.3451 19.8285 37.136 16.5954C37.9269 13.3794 37.9269 10.1291 37.1887 6.87879C37.0193 6.25711 36.8563 5.76029 36.7342 5.38833L36.7341 5.38815C36.6831 5.23268 36.6393 5.09902 36.6051 4.98718H32.2987L32.2845 5.04735C32.2817 5.05982 32.279 5.07233 32.2677 5.12469C31.6877 7.82469 30.7035 10.2495 29.28 12.5196C27.3819 15.5463 24.9213 18.0572 21.8457 19.9317C21.1251 20.3788 20.9845 20.8088 21.3009 21.5139C21.552 22.0709 21.789 22.6349 22.0259 23.1986L22.0259 23.1987L22.0259 23.1988L22.026 23.1989L22.026 23.199L22.026 23.199L22.0261 23.1991L22.0261 23.1992L22.0261 23.1993L22.0262 23.1994L22.0262 23.1994L22.0262 23.1995L22.0263 23.1996L22.0263 23.1997L22.0263 23.1998L22.0264 23.1999L22.0264 23.1999L22.0264 23.2L22.0265 23.2001C22.5353 24.4111 23.0437 25.6211 23.6911 26.7591C27.6455 33.7069 28.0849 40.8266 24.9916 48.1527C24.8803 48.4156 24.7247 48.7802 24.6099 49.0127H30.7368C30.6344 48.7993 30.5154 48.4969 30.397 48.1961C30.3402 48.0518 30.2836 47.9079 30.229 47.7743C27.8212 41.9616 27.7334 36.1316 29.983 30.2501C31.6702 25.882 29.6139 21.6686 27.1534 20.3788C26.9776 20.3444 26.3273 19.6049 26.2746 19.3469ZM39.5614 9.14886C39.4971 8.50432 38.911 5.76201 38.5162 4.98718H50.2632V15.616C49.3528 15.624 48.4057 15.6873 47.6283 15.7869C47.5404 14.5317 47.8041 12.21 48.5071 10.6623C48.5009 10.6639 48.4931 10.6659 48.4837 10.6681L48.4606 10.6737L48.4604 10.6737L48.4604 10.6737C48.1532 10.747 46.806 11.0682 46.1344 12.382C45.5934 13.4403 45.5787 15.5852 45.5787 16.2514C43.2941 16.9369 41.1257 17.8679 39.122 19.175C38.9963 19.257 38.8581 19.3329 38.7112 19.4135C38.6116 19.4683 38.5079 19.5252 38.4014 19.5877C38.396 19.5346 38.3906 19.493 38.3862 19.4593C38.3763 19.3839 38.3717 19.3482 38.3838 19.3126C38.419 19.2008 38.4541 19.0933 38.4893 18.9858C38.5244 18.8783 38.5596 18.7708 38.5947 18.659C39.6141 15.5635 39.8777 12.382 39.5614 9.14886ZM48.4016 17.5412C48.9068 17.4588 49.5258 17.4261 50.2632 17.4214V26.5984C45.7603 25.8579 39.481 27.6936 35.8178 33.0534C32.0392 38.6082 33.0937 45.1088 35.2027 48.2387L35.2463 48.3121C35.395 48.563 35.4928 48.7281 35.7153 49.0127H32.9477C29.8143 42.6272 29.3874 35.7817 32.5665 29.3731C35.7827 22.9068 41.1958 19.0718 48.4016 17.5412ZM37.9289 49.0127H50.2632V28.4264C44.2446 27.9863 39.735 30.2826 36.8021 35.547C36.9426 35.4868 37.0788 35.4309 37.2151 35.3751C37.3513 35.3192 37.4875 35.2633 37.6281 35.2031C41.0201 33.7929 44.8514 35.375 46.1696 38.7114C46.4508 39.4336 46.5211 40.07 45.8884 40.6547C45.5962 40.9281 45.3407 41.2555 45.0888 41.5784L45.0885 41.5788C44.992 41.7024 44.896 41.8254 44.7987 41.9445C44.7636 41.9273 44.7284 41.9144 44.6933 41.9015C44.6581 41.8886 44.623 41.8757 44.5878 41.8585V41.0502C44.5878 38.9177 43.1994 37.1292 41.1958 36.6993C39.0341 36.2349 37.013 37.2496 36.0815 39.2617C34.9039 41.8241 35.3785 44.3005 36.5209 46.7254C36.5551 46.7972 36.5876 46.8685 36.6206 46.9409L36.6206 46.941L36.6207 46.9411C36.7062 47.1287 36.7949 47.3233 36.9251 47.5508C37.1024 47.8608 37.5172 48.4388 37.8008 48.8339C37.8476 48.8992 37.8909 48.9594 37.9289 49.0127ZM9.57833 16.1655C7.78568 15.6839 6.67845 16.2515 5.97545 16.7674C7.6311 17.5774 9.56836 18.2603 11.192 18.8326C11.6366 18.9893 12.0577 19.1377 12.4431 19.2782C12.8121 19.4158 13.1636 19.7597 13.3745 20.1037C15.5187 23.4744 18.3307 26.1572 21.8281 28.1865C22.1972 28.41 22.5663 28.7712 22.7596 29.1495C24.9389 33.5177 25.6595 38.0922 24.605 42.8559C24.2966 44.237 23.7801 45.712 23.277 47.1489L23.277 47.149L23.277 47.149L23.277 47.1491L23.277 47.1491L23.277 47.1491L23.277 47.1492L23.2769 47.1492L23.2769 47.1492L23.2769 47.1493L23.2769 47.1493L23.2769 47.1493L23.2769 47.1494L23.2769 47.1494L23.2769 47.1494L23.2768 47.1495L23.2768 47.1495L23.2768 47.1495L23.2768 47.1496L23.2768 47.1496C23.0555 47.7818 22.8367 48.4065 22.6394 49.0127H19.7716C19.9197 48.7216 20.0677 48.432 20.1761 48.2559C22.8123 43.9737 22.9002 37.1292 18.7701 32.0043C15.0683 27.4342 8.79572 25.7629 5.09668 26.6623V4.98718H9.65578L9.64021 5.24021C9.56262 6.49778 9.49918 7.52594 9.57833 9.02854C9.68085 10.9747 10.0177 12.812 10.5801 14.2737C10.7024 14.6755 10.8768 15.073 11.0559 15.4811L11.0559 15.4811C11.237 15.8939 11.4229 16.3176 11.5643 16.7674C11.2351 16.67 10.9326 16.5758 10.6451 16.4864C10.2727 16.3705 9.9255 16.2625 9.57833 16.1655ZM18.4121 47.7623C18.26 48.0789 18.034 48.5492 17.8268 49.0127H5.09668V28.4425C11.7529 28.3938 17.4617 31.3875 18.5767 35.5642C18.2955 35.4438 18.0671 35.3406 17.8386 35.2374C14.6399 33.8444 10.9492 35.1515 9.42013 38.2298C8.68198 39.7088 9.15651 41.0502 10.7734 41.8756V41.1878C10.7558 38.9177 12.1443 37.1292 14.306 36.6992C16.4502 36.2865 18.4889 37.3871 19.3676 39.4852C20.1233 41.2393 20.1761 43.0451 19.5609 44.8508C19.3658 45.4129 19.144 45.962 18.916 46.5262L18.916 46.5263C18.7743 46.8769 18.6303 47.2333 18.4889 47.6024L18.4121 47.7623ZM12.0191 4.98718C11.8253 6.73281 11.9088 7.69458 12.0595 9.429V9.429C12.0913 9.79506 12.1261 10.1955 12.1619 10.6451C13.1109 16.3202 15.5714 21.1527 20.2288 24.7814C20.0852 24.2609 19.9367 23.7546 19.7908 23.2567L19.7908 23.2566C19.4544 22.1096 19.1313 21.0074 18.9107 19.8801C18.0847 15.6323 18.5065 11.4705 19.9476 7.36036C20.1887 6.66025 20.6274 5.5301 20.8448 4.98718H12.0191ZM22.9668 4.98718C22.7763 5.56433 22.5676 6.16939 22.3543 6.78813L22.3542 6.7882L22.3542 6.78823C21.8055 8.37947 21.2256 10.0611 20.8439 11.5909C20.2991 13.7578 20.2991 16.0107 20.6506 18.4011C25.7313 15.1151 28.8655 10.6661 30.3089 4.98718H22.9668ZM36.0464 27.361C35.8355 28.3757 36.0639 28.6509 37.1184 28.668C38.8584 28.6852 40.3523 27.3438 40.4929 25.6929C40.528 25.0738 40.3874 24.747 39.6668 24.6782C37.962 24.5063 36.3803 25.6413 36.0464 27.361ZM35.9409 10.6967C35.9233 11.8145 34.9743 13.3795 34.3064 13.4311C33.621 13.4827 32.6368 11.8145 32.6543 10.6451C32.6719 9.49286 33.7264 7.85911 34.3943 7.9279C35.0797 7.97949 35.9585 9.54446 35.9409 10.6967ZM16.9071 28.3928C17.4168 28.3068 17.7332 28.1348 17.6277 27.6361C17.6101 25.6928 15.7823 24.145 13.9194 24.4202C13.4976 24.489 13.1461 24.575 13.1285 25.1425C13.0582 27.0342 14.9914 28.7023 16.9071 28.3928ZM40.282 14.5145C40.3699 13.1043 41.2486 11.9349 42.5316 11.4533C43.0061 11.2814 43.2346 11.4189 43.4455 11.7973C44.3594 13.3622 43.6915 15.4431 42.0395 16.2858C41.354 16.647 40.8795 16.5782 40.6335 15.8043C40.5479 15.5531 40.4819 15.2892 40.4156 15.0242L40.4155 15.0241L40.4155 15.0241L40.4155 15.024L40.4155 15.024L40.4155 15.0239L40.4155 15.0239L40.4155 15.0238L40.4155 15.0238L40.4155 15.0237L40.4154 15.0237L40.4154 15.0236C40.3728 14.8533 40.3301 14.6826 40.282 14.5145ZM46.1625 6.72281C45.0669 5.91127 43.5879 5.79898 42.3179 6.47096C42.1973 6.59989 42.0716 6.72573 41.9462 6.85123C41.7512 7.04633 41.5571 7.24061 41.3844 7.44439C40.8429 8.05765 41.0339 8.48824 41.7094 8.86692C43.3133 9.7943 45.4717 9.24986 46.3469 7.66381C46.5637 7.28872 46.5624 7.02621 46.1625 6.72281ZM17.575 15.5635C17.3981 15.872 17.2953 16.1212 17.1973 16.3587C17.0713 16.664 16.9533 16.95 16.6962 17.3176C16.2744 17.9368 15.7823 17.8336 15.2902 17.2833C14.0424 15.9419 14.1478 13.7234 15.5363 12.5883C15.9581 12.2444 16.2744 12.2444 16.6611 12.6227C17.3465 13.3106 17.7331 14.1189 17.698 15.082C17.7241 15.1161 17.6768 15.2263 17.631 15.3329C17.5845 15.4414 17.5395 15.5462 17.575 15.5635ZM16.9376 7.58222C16.8235 7.35173 16.7038 7.10984 16.5888 6.77453C16.5519 6.78859 16.5027 6.68564 16.4518 6.57907C16.4018 6.47428 16.3501 6.366 16.3067 6.36206C15.6008 5.69009 14.729 5.42794 13.7478 5.4633C13.2016 5.48975 12.9893 5.7192 12.9667 6.25601C12.8944 8.02493 14.5041 9.59062 16.3578 9.58605C17.105 9.59855 17.5135 9.3109 17.3277 8.58938C17.2218 8.15618 17.0844 7.87861 16.9376 7.58222ZM9.48178 12.0124L9.48179 12.0124C9.62851 12.3088 9.76592 12.5864 9.87183 13.0196C10.0577 13.7411 9.64916 14.0287 8.90196 14.0162C7.04824 14.0208 5.43857 12.4551 5.51083 10.6862C5.53344 10.1494 5.7458 9.91995 6.29194 9.89349C7.27312 9.85813 8.14493 10.1203 8.85083 10.7923C8.89421 10.7962 8.94593 10.9045 8.99598 11.0093C9.04688 11.1158 9.09606 11.2188 9.13299 11.2047C9.24793 11.54 9.36768 11.7819 9.48178 12.0124ZM49.6495 21.8406C49.544 21.3591 48.2786 20.7572 46.9429 20.74C45.9938 20.7572 45.0096 21.2903 44.3418 22.3909C44.0957 22.7865 44.1485 23.0788 44.5351 23.3368C45.5896 24.0763 46.7144 24.2482 47.9271 23.7495C48.8234 23.3884 49.7549 22.3221 49.6495 21.8406ZM29.3327 27.189C29.2375 27.3753 29.155 27.5882 29.0728 27.8003C28.8819 28.2929 28.6925 28.7817 28.3485 28.9259C27.9443 29.0979 27.0655 28.5476 26.5734 28.1348C25.5013 27.2234 25.3256 25.6928 25.9407 24.4202C26.1516 23.9731 26.3977 23.8527 26.8898 24.0246C28.2255 24.489 29.1394 25.71 29.3327 27.189ZM25.3607 6.31134C24.148 6.93045 23.4978 7.8935 23.4275 9.56165C23.469 9.6661 23.5185 9.80187 23.5753 9.95774C23.687 10.2638 23.8268 10.6474 23.9899 11.0234C24.148 11.419 24.4468 11.5222 24.9038 11.333C26.7316 10.5763 27.4522 8.13427 26.3098 6.5521C26.0462 6.19096 25.7825 6.08777 25.3607 6.31134ZM7.94386 34.8935C7.60993 34.7215 7.27161 34.5495 6.93329 34.3776L6.93326 34.3776C6.59495 34.2056 6.25664 34.0336 5.92273 33.8616C6.0554 33.6528 6.17482 33.4291 6.29404 33.2058C6.53805 32.7488 6.78121 32.2934 7.13541 31.9699C8.13718 31.0757 9.82439 31.0756 10.8965 31.8323C11.0722 31.9699 11.2128 32.3655 11.1425 32.5718C10.7559 33.8444 9.47289 34.6871 7.94386 34.8935ZM44.2539 32.7782C44.869 33.9993 45.8532 34.6184 47.5228 34.7044C47.804 34.6356 48.3313 34.498 48.841 34.326C49.5088 34.0853 49.5264 33.6725 49.2276 33.105C48.3489 31.454 46.2926 30.8349 44.6405 31.6948C44.1309 31.97 43.9903 32.2451 44.2539 32.7782ZM9.12139 24.059C7.45176 23.9731 6.46755 23.4571 5.88758 22.3393C5.78213 22.1329 5.87 21.6514 6.04575 21.4966C7.50448 20.1724 10.2462 20.7227 11.0371 22.4941C11.1249 22.7005 11.0019 23.1992 10.8086 23.3024C10.3453 23.5668 9.84424 23.7667 9.47115 23.9156L9.4711 23.9156C9.33474 23.97 9.21547 24.0176 9.12139 24.059ZM33.3047 21.1183C33.7968 21.0323 34.4119 19.7769 34.4295 18.831C34.4119 17.5928 33.8846 16.6298 32.8126 15.9763C32.3556 15.7011 32.0217 15.7183 31.7053 16.1826C31.0023 17.2145 30.8442 18.2807 31.3538 19.433C31.7405 20.2756 32.795 21.2043 33.3047 21.1183Z" fill="#E3B23C"/>
<rect x="1.44753" y="1.44753" width="52.2906" height="51.1049" stroke="#E3B23C" stroke-width="2.89507"/>
<path d="M72.0105 29.286L74.0992 24.4887H85.0357L87.1244 29.286H89.7353L80.9164 9.41565H78.2185L69.3706 29.286H72.0105ZM79.2338 12.6233C79.3499 12.3678 79.4369 12.1407 79.5529 11.8569C79.669 12.1407 79.756 12.3678 79.8721 12.6233L84.0784 22.2746H75.0565L79.2338 12.6233Z" fill="#333333"/>
<path d="M94.3709 9.41565V29.286H102.929C105.888 29.286 110.413 28.3493 110.413 23.8359C110.413 20.5998 108.034 19.2941 106.352 18.8399C107.947 18.3857 109.601 16.9664 109.601 14.44C109.601 11.0904 106.845 9.41565 102.697 9.41565H94.3709ZM107.947 23.5804C107.947 26.8448 104.988 27.0151 102.436 27.0151H96.8077V20.1457H103.103C105.046 20.1457 107.947 20.4863 107.947 23.5804ZM107.135 14.7806C107.135 17.0515 105.278 17.8748 103.161 17.8748H96.8077V11.6865H102.494C105.366 11.6865 107.135 12.4246 107.135 14.7806Z" fill="#333333"/>
<path d="M116.197 9.41565V29.286H118.634V22.2462H123.13C127.83 22.2462 131.746 20.7985 131.746 15.8309C131.746 10.8633 127.83 9.41565 123.13 9.41565H116.197ZM129.28 15.8309C129.28 19.1805 126.554 19.9753 123.246 19.9753H118.634V11.6865H123.246C126.583 11.6865 129.28 12.453 129.28 15.8309Z" fill="#333333"/>
<path d="M135.753 19.3508C135.753 24.4887 139.264 29.6267 146.371 29.6267C153.478 29.6267 156.988 24.4887 156.988 19.3508C156.988 14.2129 153.478 9.07501 146.371 9.07501C139.264 9.07501 135.753 14.2129 135.753 19.3508ZM154.523 19.3508C154.523 23.4385 151.883 27.3558 146.371 27.3558C140.859 27.3558 138.219 23.4385 138.219 19.3508C138.219 15.2632 140.859 11.3459 146.371 11.3459C151.883 11.3459 154.523 15.2632 154.523 19.3508Z" fill="#333333"/>
<path d="M162.711 9.41565V29.286H165.148V22.2462H169.644C174.344 22.2462 178.26 20.7985 178.26 15.8309C178.26 10.8633 174.344 9.41565 169.644 9.41565H162.711ZM175.794 15.8309C175.794 19.1805 173.067 19.9753 169.76 19.9753H165.148V11.6865H169.76C173.096 11.6865 175.794 12.453 175.794 15.8309Z" fill="#333333"/>
<path d="M182.275 29.286L184.364 24.4887H195.3L197.389 29.286H200L191.181 9.41565H188.483L179.635 29.286H182.275ZM189.498 12.6233C189.614 12.3678 189.701 12.1407 189.817 11.8569C189.933 12.1407 190.021 12.3678 190.137 12.6233L194.343 22.2746H185.321L189.498 12.6233Z" fill="#333333"/>
<path d="M76.5911 35.7289V41.69H75.9732V36.9211L73.5799 40.9321H73.2753L70.8821 36.9467V41.69H70.2642V35.7289H70.795L73.4407 40.1486L76.0603 35.7289H76.5911Z" fill="#707070"/>
<path d="M83.6482 41.145V41.69H79.3403V35.7289H83.5177V36.2739H79.9843V38.3944H83.1347V38.9309H79.9843V41.145H83.6482Z" fill="#707070"/>
<path d="M85.7733 35.7289H90.2291V36.2654H86.4086V38.2155H88.4015C89.121 38.2155 89.6663 38.3603 90.0377 38.6498C90.4148 38.9394 90.6033 39.3595 90.6033 39.9102C90.6033 40.4836 90.4003 40.9236 89.9941 41.2302C89.5938 41.5367 89.0165 41.69 88.2623 41.69H85.7733V35.7289ZM88.2536 41.1876C88.8164 41.1876 89.2399 41.0826 89.5242 40.8725C89.8143 40.6624 89.9593 40.3502 89.9593 39.9357C89.9593 39.527 89.8172 39.2233 89.5329 39.0245C89.2544 38.8202 88.828 38.718 88.2536 38.718H86.4086V41.1876H88.2536Z" fill="#707070"/>
<path d="M97.1006 41.145V41.69H92.7927V35.7289H96.97V36.2739H93.4367V38.3944H96.5871V38.9309H93.4367V41.145H97.1006Z" fill="#707070"/>
<path d="M104.003 35.7289V41.69H103.368V36.2739H100.427L100.357 38.2666C100.328 39.0898 100.258 39.7541 100.148 40.2594C100.044 40.7589 99.8812 41.1336 99.6608 41.3834C99.4403 41.6276 99.1473 41.7496 98.7818 41.7496C98.6251 41.7496 98.4627 41.7298 98.2944 41.69L98.3466 41.128C98.4453 41.1507 98.541 41.162 98.6338 41.162C98.8891 41.162 99.0951 41.0627 99.2517 40.864C99.4142 40.6653 99.536 40.3587 99.6173 39.9443C99.6985 39.5241 99.7536 38.9706 99.7826 38.2837L99.8696 35.7289H104.003Z" fill="#707070"/>
<path d="M109.305 37.8579C110.024 37.8579 110.573 38.0168 110.95 38.3348C111.333 38.6527 111.524 39.1182 111.524 39.7314C111.524 40.3729 111.321 40.8611 110.915 41.1961C110.515 41.5254 109.934 41.69 109.174 41.69H106.755V35.7289H107.39V37.8579H109.305ZM109.157 41.1876C109.72 41.1876 110.146 41.0655 110.436 40.8214C110.732 40.5773 110.88 40.2168 110.88 39.7399C110.88 38.8258 110.306 38.3688 109.157 38.3688H107.39V41.1876H109.157Z" fill="#707070"/>
<path d="M118.721 35.7289V41.69H118.086V38.9394H114.274V41.69H113.63V35.7289H114.274V38.3859H118.086V35.7289H118.721Z" fill="#707070"/>
<path d="M124.024 37.8579C124.743 37.8579 125.291 38.0168 125.668 38.3348C126.051 38.6527 126.243 39.1182 126.243 39.7314C126.243 40.3729 126.04 40.8611 125.634 41.1961C125.233 41.5254 124.653 41.69 123.893 41.69H121.474V35.7289H122.109V37.8579H124.024ZM123.876 41.1876C124.438 41.1876 124.865 41.0655 125.155 40.8214C125.451 40.5773 125.599 40.2168 125.599 39.7399C125.599 38.8258 125.024 38.3688 123.876 38.3688H122.109V41.1876H123.876ZM127.296 35.7289H127.931V41.69H127.296V35.7289Z" fill="#707070"/>
<path d="M130.677 35.7289H131.313V40.6681L135.211 35.7289H135.795V41.69H135.159V36.7593L131.26 41.69H130.677V35.7289ZM133.218 35.2946C132.783 35.2946 132.438 35.1981 132.183 35.0051C131.933 34.812 131.806 34.5424 131.8 34.196H132.279C132.284 34.4231 132.371 34.602 132.54 34.7325C132.708 34.8631 132.934 34.9284 133.218 34.9284C133.497 34.9284 133.72 34.8631 133.889 34.7325C134.063 34.602 134.153 34.4231 134.158 34.196H134.637C134.631 34.5424 134.501 34.812 134.245 35.0051C133.99 35.1981 133.648 35.2946 133.218 35.2946Z" fill="#707070"/>
<path d="M144.166 38.5732C144.566 38.6697 144.88 38.8457 145.106 39.1012C145.338 39.3567 145.454 39.6632 145.454 40.0209C145.454 40.3672 145.344 40.671 145.123 40.9321C144.903 41.1933 144.61 41.3948 144.244 41.5367C143.879 41.673 143.482 41.7411 143.052 41.7411C142.646 41.7411 142.246 41.6787 141.851 41.5538C141.462 41.4232 141.111 41.2302 140.798 40.9747L141.033 40.5233C141.3 40.7448 141.605 40.9151 141.947 41.0343C142.289 41.1478 142.634 41.2046 142.983 41.2046C143.313 41.2046 143.618 41.1535 143.896 41.0513C144.175 40.9491 144.395 40.8044 144.558 40.617C144.726 40.424 144.81 40.1969 144.81 39.9357C144.81 39.5894 144.671 39.3226 144.392 39.1353C144.114 38.9479 143.722 38.8542 143.218 38.8542H141.912V38.3433H143.183C143.612 38.3433 143.946 38.2553 144.184 38.0793C144.427 37.8976 144.549 37.6478 144.549 37.3299C144.549 36.9779 144.395 36.7026 144.088 36.5038C143.78 36.2995 143.394 36.1973 142.93 36.1973C142.64 36.1973 142.347 36.2399 142.051 36.325C141.755 36.4045 141.474 36.5266 141.207 36.6912L140.99 36.1717C141.593 35.8197 142.246 35.6437 142.948 35.6437C143.36 35.6437 143.737 35.709 144.079 35.8396C144.421 35.9702 144.691 36.1575 144.888 36.4017C145.092 36.6458 145.193 36.9325 145.193 37.2618C145.193 37.5797 145.103 37.855 144.923 38.0878C144.743 38.3149 144.491 38.4767 144.166 38.5732Z" fill="#707070"/>
<path d="M151.648 40.0975H148.254L147.523 41.69H146.853L149.638 35.7289H150.273L153.058 41.69H152.379L151.648 40.0975ZM151.413 39.5866L149.951 36.3846L148.489 39.5866H151.413Z" fill="#707070"/>
<path d="M158.534 38.6158C158.957 38.7009 159.279 38.8684 159.5 39.1182C159.72 39.3623 159.83 39.6831 159.83 40.0805C159.83 40.5971 159.642 40.9946 159.265 41.2727C158.893 41.5509 158.345 41.69 157.62 41.69H154.922V35.7289H157.454C158.104 35.7289 158.612 35.8595 158.977 36.1206C159.343 36.3818 159.526 36.7593 159.526 37.2532C159.526 37.5882 159.439 37.8721 159.265 38.1048C159.091 38.3319 158.847 38.5022 158.534 38.6158ZM155.557 38.4284H157.42C157.89 38.4284 158.249 38.3348 158.499 38.1474C158.754 37.9601 158.882 37.6876 158.882 37.3299C158.882 36.9722 158.754 36.6997 158.499 36.5124C158.249 36.325 157.89 36.2313 157.42 36.2313H155.557V38.4284ZM157.62 41.1876C158.67 41.1876 159.195 40.8044 159.195 40.0379C159.195 39.2885 158.67 38.9138 157.62 38.9138H155.557V41.1876H157.62Z" fill="#707070"/>
<path d="M164.808 41.7411C164.205 41.7411 163.657 41.6105 163.164 41.3494C162.676 41.0826 162.293 40.7192 162.015 40.2594C161.742 39.7995 161.606 39.2829 161.606 38.7095C161.606 38.1361 161.742 37.6194 162.015 37.1596C162.293 36.6997 162.676 36.3392 163.164 36.0781C163.657 35.8112 164.205 35.6778 164.808 35.6778C165.412 35.6778 165.954 35.8084 166.436 36.0695C166.923 36.3307 167.306 36.694 167.585 37.1596C167.863 37.6194 168.002 38.1361 168.002 38.7095C168.002 39.2829 167.863 39.8023 167.585 40.2679C167.306 40.7277 166.923 41.0882 166.436 41.3494C165.954 41.6105 165.412 41.7411 164.808 41.7411ZM164.808 41.1791C165.29 41.1791 165.725 41.074 166.114 40.864C166.503 40.6482 166.807 40.353 167.028 39.9783C167.248 39.598 167.358 39.175 167.358 38.7095C167.358 38.2439 167.248 37.8238 167.028 37.4491C166.807 37.0687 166.503 36.7735 166.114 36.5635C165.725 36.3477 165.29 36.2399 164.808 36.2399C164.327 36.2399 163.889 36.3477 163.494 36.5635C163.106 36.7735 162.798 37.0687 162.572 37.4491C162.351 37.8238 162.241 38.2439 162.241 38.7095C162.241 39.175 162.351 39.598 162.572 39.9783C162.798 40.353 163.106 40.6482 163.494 40.864C163.889 41.074 164.327 41.1791 164.808 41.1791Z" fill="#707070"/>
<path d="M175.661 41.145V43.027H175.061V41.69H169.743L169.735 43.027H169.134L169.143 41.145H169.448C169.848 41.1223 170.126 40.8129 170.283 40.2168C170.44 39.615 170.535 38.7634 170.57 37.662L170.64 35.7289H174.748V41.145H175.661ZM171.145 37.7216C171.116 38.63 171.043 39.3794 170.927 39.9698C170.817 40.5546 170.628 40.9463 170.361 41.145H174.112V36.2739H171.197L171.145 37.7216Z" fill="#707070"/>
</svg>
