<svg width="12" height="8" viewBox="0 0 12 8" fill="none" xmlns="http://www.w3.org/2000/svg">
<path d="M6.00024 7.12099C5.86891 7.12113 5.73884 7.09531 5.61751 7.04503C5.49618 6.99475 5.38598 6.92099 5.29324 6.82799L1.05024 2.58599C0.868085 2.39739 0.767291 2.14479 0.769569 1.88259C0.771847 1.6204 0.877017 1.36958 1.06242 1.18417C1.24783 0.998766 1.49865 0.893597 1.76084 0.891319C2.02304 0.889041 2.27564 0.989835 2.46424 1.17199L6.00024 4.70699L9.53624 1.17199C9.72485 0.989835 9.97745 0.889041 10.2396 0.891319C10.5018 0.893597 10.7527 0.998766 10.9381 1.18417C11.1235 1.36958 11.2286 1.6204 11.2309 1.88259C11.2332 2.14479 11.1324 2.39739 10.9502 2.58599L6.70724 6.82799C6.6145 6.92099 6.50431 6.99475 6.38298 7.04503C6.26165 7.09531 6.13158 7.12113 6.00024 7.12099Z" fill="#2C2D2E"/>
</svg>
