<svg width="18" height="11" viewBox="0 0 18 11" xmlns="http://www.w3.org/2000/svg">
<path fill-rule="evenodd" clip-rule="evenodd" d="M0.868313 4.9603C0.774545 5.05407 0.721867 5.18124 0.721866 5.31385C0.721866 5.44646 0.774545 5.57364 0.868313 5.66741L5.11095 9.91005C5.20472 10.0038 5.3319 10.0565 5.46451 10.0565C5.59712 10.0565 5.72429 10.0038 5.81806 9.91005C5.91183 9.81628 5.96451 9.6891 5.96451 9.55649C5.96451 9.42388 5.91183 9.29671 5.81806 9.20294L2.4289 5.81378L16.7782 5.81449C16.911 5.81449 17.0383 5.76174 17.1322 5.66785C17.2261 5.57397 17.2788 5.44663 17.2788 5.31385C17.2788 5.18108 17.2261 5.05374 17.1322 4.95985C17.0383 4.86597 16.911 4.81322 16.7782 4.81322L2.4289 4.81393L5.81806 1.42477C5.91183 1.331 5.96451 1.20382 5.96451 1.07121C5.96451 0.938604 5.91183 0.811427 5.81806 0.717658C5.72429 0.62389 5.59712 0.571212 5.46451 0.571212C5.3319 0.571212 5.20472 0.62389 5.11095 0.717658L0.868313 4.9603Z"/>
</svg>
