<svg width="24" height="24" viewBox="0 0 24 24" xmlns="http://www.w3.org/2000/svg">
<path d="M14.1207 17.243C13.9894 17.2431 13.8593 17.2173 13.738 17.167C13.6166 17.1168 13.5064 17.043 13.4137 16.95L9.17169 12.707C8.98422 12.5195 8.87891 12.2652 8.87891 12C8.87891 11.7348 8.98422 11.4805 9.17169 11.293L13.4137 7.05C13.6023 6.86784 13.8549 6.76705 14.1171 6.76932C14.3793 6.7716 14.6301 6.87677 14.8155 7.06218C15.0009 7.24759 15.1061 7.4984 15.1084 7.7606C15.1106 8.02279 15.0099 8.2754 14.8277 8.464L11.2927 12L14.8277 15.536C14.9675 15.6759 15.0627 15.854 15.1013 16.048C15.1398 16.2419 15.12 16.443 15.0444 16.6257C14.9687 16.8084 14.8406 16.9645 14.6762 17.0744C14.5117 17.1843 14.3184 17.243 14.1207 17.243Z"/>
</svg>
