<?xml version="1.0" encoding="utf-8"?>
<!-- Generator: Adobe Illustrator 19.0.1, SVG Export Plug-In . SVG Version: 6.00 Build 0)  -->
<svg version="1.1" id="Слой_1" xmlns="http://www.w3.org/2000/svg" xmlns:xlink="http://www.w3.org/1999/xlink" x="0px" y="0px"
	 viewBox="-478.3 197.6 500 500" style="enable-background:new -478.3 197.6 500 500;" xml:space="preserve">
<style type="text/css">
	.st0{fill:none;stroke:#000103;stroke-width:0.2835;stroke-miterlimit:10;}
</style>
<path class="st0" d="M2.3,527.1c-0.1-13.4-7.5-26.2-20.3-32.7c-12.8-6.5-27.6-5-38.6,2.7c0.1,13.4,7.5,26.2,20.3,32.7
	C-23.5,536.3-8.7,534.8,2.3,527.1z"/>
<path class="st0" d="M13.9,387.2C5.4,376.8-8.4,371.3-22.4,374c-14.1,2.8-24.7,13.1-28.6,25.9c8.4,10.4,22.2,15.9,36.3,13.2
	C-0.6,410.3,10,400,13.9,387.2z"/>
<path class="st0" d="M-181,318.3c-9.8,9.2-14.2,23.3-10.3,37c3.9,13.8,15.1,23.5,28.2,26.3c9.8-9.2,14.2-23.3,10.4-37
	C-156.7,330.8-167.8,321.1-181,318.3z"/>
<path class="st0" d="M-244.5,407.7c-9,9.9-12.3,24.3-7.4,37.7c5,13.4,16.9,22.2,30.2,24c9-9.9,12.3-24.3,7.4-37.7
	C-219.3,418.3-231.2,409.5-244.5,407.7z"/>
<path class="st0" d="M-393.2,504.5c-10-9-24.4-12.3-37.9-7.4c-13.5,4.9-22.4,16.8-24.2,30c10,9,24.4,12.3,37.9,7.4
	C-403.8,529.6-394.9,517.7-393.2,504.5z"/>
<path class="st0" d="M-407.1,390.7c-4.2-12.7-15.2-22.6-29.4-25c-14.2-2.3-27.8,3.7-35.9,14.3c4.2,12.7,15.2,22.7,29.4,25
	C-428.8,407.3-415.2,401.4-407.1,390.7z"/>
<path class="st0" d="M-466.8,252.9c-6.3,9.9-7.1,22.8-0.9,33.7c6.2,10.9,17.8,16.8,29.6,16.4c6.3-9.9,7.1-22.8,0.9-33.7
	C-443.5,258.5-455.1,252.5-466.8,252.9z"/>
<path class="st0" d="M-403.8,409.4c-1.3,11.6,3.8,23.6,14.2,30.6c10.4,7,23.5,7.2,33.8,1.6c1.3-11.6-3.8-23.6-14.2-30.6
	C-380.4,404-393.5,403.8-403.8,409.4z"/>
<path class="st0" d="M-73.7,270.2c-10.1,6-16.6,17.3-15.9,29.8c0.7,12.5,8.4,22.9,19.2,27.8c10.1-6,16.6-17.3,15.9-29.8
	C-55.3,285.5-63,275-73.7,270.2z"/>
<path class="st0" d="M-22.6,234.6c-8.1-8.5-20.6-12.3-32.7-8.8c-12.1,3.5-20.6,13.3-23,24.7c8.1,8.5,20.6,12.3,32.7,8.8
	C-33.5,255.9-24.9,246.1-22.6,234.6z"/>
<path class="st0" d="M-91.7,420.2c-11.2-3.6-24-1.1-33,7.6c-9,8.7-11.9,21.4-8.5,32.6c11.2,3.6,24,1.1,33-7.6
	C-91.2,444-88.4,431.4-91.7,420.2z"/>
<path class="st0" d="M-374.9,205.8c-8.2,8.4-11.7,20.9-7.8,32.8c3.9,11.9,14,20.1,25.6,22.1c8.2-8.4,11.7-20.9,7.8-32.8
	C-353.2,216-363.3,207.8-374.9,205.8z"/>
<path class="st0" d="M-354.2,275.2c-11,4.3-19.2,14.3-20.6,26.8c-1.4,12.5,4.5,24,14.3,30.5c11-4.3,19.2-14.3,20.6-26.8
	C-338.5,293.3-344.4,281.7-354.2,275.2z"/>
<path class="st0" d="M-250.5,215c-13.1,2.8-24.3,12.5-28.2,26.3c-3.9,13.8,0.6,27.9,10.4,37c13.1-2.8,24.3-12.5,28.2-26.3
	C-236.3,238.3-240.8,224.2-250.5,215z"/>
<path class="st0" d="M-155.1,233.3c-12.2,5.5-21,17.5-21.8,31.7c-0.8,14.3,6.6,27.1,18.1,34c12.2-5.5,21-17.5,21.8-31.7
	C-136.2,253-143.6,240.2-155.1,233.3z"/>
<path class="st0" d="M-315.8,697.6c30.8-60.1,30-114.9,1-179.7c-13.4-29.9-48.2-58.4-80.8-65.1c-23.8-4.9-81.2-3.8-82.6,20.4
	c62.6-14.6,117,10.7,132,34.9c11.4,18.3,14.2,25,15.3,32.6c-43.4-19.2-75.6-2.7-92.3,18.6s-11,42,9.1,56.5
	c-2.4-50.6,35.3-68.4,64.9-56.8s42.8,55.3,30.1,88c-12.7,32.6-21,50.6-21,50.6H-315.8z"/>
<path class="st0" d="M-261.9,697.6c0,0,33-63.8,27-135.9S-276,430.5-288.7,406c-12.6-24.5-11.7-33.8,7.6-45.3
	c19.3-11.5,83.9-64,103.9-156.5c-39.4,4.2-29.8,47.4-69,89.7s-50.8,48.9-59.1,53.9c-4.8-31.3,0.1-69.9,7.5-92.8
	c7.3-22.9,11.8-50.8-6.3-57.3c-14.5,38.3-35.4,94.6-25.4,150.6c10,56.1,17.9,70.9,17.9,70.9s-29.3-25.8-52.7-59.6
	c-17.5-25.3-29.8-56-36.8-87.3c-5.6-25.1-9.2-39-28.4-42.5c2.8,40.2,4.5,48.6,9.4,68c4.8,19,16.9,39.4,15.2,35.5
	c0,0-47.3-27.2-64.4-2.9c64.1,27.5,71.9,26.3,85.6,45.3c13.7,18.9,28.2,39.4,57.2,62.7c29.1,23.3,36,13.1,47,42.3
	c11,29.2,30.9,84.4,15.2,147.4s-19.8,69.6-19.8,69.6H-261.9z"/>
<path class="st0" d="M-167.2,697.6c-22.8-53.1-35.5-103.3-27.4-155.5c8.1-52.2,47-126.2,92.1-155.3c45.1-29.1,91.9-46.8,124.2-46.9
	c-7.1-20.2-38.1-18.4-38.1-18.4s-3.6-20.7,3.7-37.9c7.3-17.2,11-21,11-21c-31.4,5.2-35.5,27.1-38,39.7c-2.5,12.6-1.6,25.7-1.6,25.7
	s-14,2.9-31,12.2s-37.4,23-37.4,23s19.4-56,15.1-102.1s-17.4-59.7-36.1-61.9c19.4,51.4,15.9,109.6,3,145.2s-31.5,66.5-46,81.2
	c-7.9-38.6-26.4-51.7-37-61.7s-35.5-19.6-35.5-19.6s-7.1,19.4,24.8,40.4c31.9,21,28.5,64,21.1,86.2c-7.4,22.2-27.5,77.6-20.3,135
	s26.4,91.7,26.4,91.7H-167.2z"/>
<path class="st0" d="M-109.9,697.6c0,0-30.7-32.4-31.6-73.5c-0.9-41.1,29.6-76,63.8-66.3c34.2,9.7,40.4,34,36.2,60.5
	c44.9-23.4,1.9-69.3-9.5-76.1c-21.1-12.7-59.5-11.2-75.8,0c16.4-44.3,48-62.4,72.3-69.5c33.5-9.8,68.4-5.4,68.4-5.4
	c-3.5-17.2-31.7-24-64.9-18.8c-49.9,7.8-87.2,42.2-106,106.8c-18.8,64.6,4.2,121,17.2,142.4C-123.7,697.6-109.9,697.6-109.9,697.6z"
	/>
</svg>
