<svg width="238" height="238" viewBox="0 0 238 238" fill="none" xmlns="http://www.w3.org/2000/svg">
<path d="M152.068 183.802L152.666 184.976C153.806 184.45 154.834 184.301 155.751 184.527C156.668 184.754 157.384 185.375 157.901 186.39C158.413 187.396 158.487 188.328 158.121 189.185C157.756 190.043 157.026 190.777 155.929 191.389L156.52 192.551L155.23 193.207L154.639 192.046C153.499 192.572 152.475 192.73 151.567 192.521C150.659 192.311 149.949 191.704 149.437 190.697C148.92 189.682 148.84 188.737 149.196 187.863C149.553 186.988 150.279 186.245 151.376 185.633L150.778 184.459L152.068 183.802ZM156.495 187.105C156.157 186.443 155.708 186.028 155.145 185.859C154.579 185.703 153.941 185.779 153.231 186.086L155.364 190.28C156.035 189.895 156.476 189.432 156.688 188.891C156.896 188.363 156.832 187.768 156.495 187.105ZM150.843 189.981C151.18 190.644 151.627 191.044 152.185 191.183C152.739 191.334 153.369 191.252 154.074 190.936L151.94 186.743C151.274 187.136 150.841 187.605 150.642 188.15C150.439 188.709 150.506 189.319 150.843 189.981Z" fill="#E3B23C"/>
<path d="M145.839 186.926L148.93 195.875L147.356 196.419L146.014 192.533C145.841 192.031 145.684 191.503 145.544 190.949C145.403 190.395 145.277 189.882 145.165 189.41L145.111 189.429L144.837 191.653L143.771 197.657L142.088 198.239L138.997 189.289L140.57 188.746L141.922 192.659C142.095 193.161 142.249 193.68 142.383 194.216C142.508 194.754 142.634 195.267 142.761 195.754L142.816 195.736L143.081 193.53L144.156 187.507L145.839 186.926Z" fill="#E3B23C"/>
<path d="M136.578 189.905L138.527 199.17L136.884 199.516L136.091 195.748L134.788 196.022L133.998 198.526C133.846 199.021 133.682 199.416 133.507 199.709C133.332 200.002 133.132 200.222 132.906 200.368C132.682 200.524 132.41 200.635 132.089 200.703C131.985 200.725 131.874 200.738 131.757 200.743C131.632 200.76 131.522 200.753 131.427 200.724L131.384 199.18C131.463 199.183 131.536 199.177 131.602 199.163C131.661 199.161 131.714 199.155 131.761 199.145C131.969 199.101 132.135 199.002 132.26 198.847C132.386 198.693 132.527 198.382 132.686 197.914L133.376 195.713L129.239 191.449L130.982 191.083L134.507 194.69L135.811 194.416L134.934 190.251L136.578 189.905Z" fill="#E3B23C"/>
<path d="M124.459 191.672C125.247 191.6 125.981 191.721 126.659 192.037C127.337 192.353 127.902 192.854 128.352 193.539C128.794 194.235 129.063 195.102 129.158 196.14C129.252 197.169 129.141 198.066 128.823 198.832C128.497 199.608 128.025 200.218 127.407 200.663C126.789 201.117 126.086 201.38 125.298 201.452C124.702 201.507 124.163 201.435 123.679 201.237C123.196 201.039 122.791 200.795 122.464 200.505L123.258 199.342C123.521 199.57 123.809 199.742 124.12 199.859C124.422 199.986 124.756 200.033 125.121 200C125.631 199.953 126.075 199.772 126.453 199.456C126.822 199.151 127.099 198.733 127.283 198.202C127.457 197.673 127.512 197.052 127.446 196.341C127.348 195.265 127.035 194.44 126.507 193.868C125.981 193.306 125.323 193.061 124.535 193.133C124.112 193.172 123.745 193.293 123.434 193.496C123.124 193.709 122.848 193.971 122.605 194.284L121.615 193.314C121.959 192.837 122.37 192.455 122.847 192.169C123.316 191.893 123.854 191.727 124.459 191.672Z" fill="#E3B23C"/>
<path d="M119.684 192.145L119.362 201.608L117.698 201.552L117.837 197.442C117.855 196.912 117.898 196.363 117.966 195.795C118.034 195.228 118.1 194.704 118.164 194.223L118.106 194.221L117.054 196.199L113.907 201.423L112.127 201.362L112.449 191.899L114.113 191.956L113.972 196.094C113.954 196.625 113.912 197.164 113.845 197.712C113.768 198.26 113.702 198.784 113.646 199.284L113.704 199.286L114.741 197.323L117.904 192.085L119.684 192.145Z" fill="#E3B23C"/>
<path d="M109.979 191.611L108.487 200.961L105.542 200.491C104.846 200.38 104.241 200.191 103.727 199.923C103.212 199.655 102.831 199.287 102.583 198.817C102.336 198.348 102.27 197.751 102.385 197.026C102.495 196.34 102.743 195.798 103.129 195.4C103.515 195.002 103.992 194.736 104.561 194.602C105.129 194.468 105.752 194.455 106.429 194.563L107.773 194.778L108.32 191.346L109.979 191.611ZM107.561 196.107L106.345 195.913C104.973 195.694 104.196 196.152 104.015 197.286C103.921 197.877 104.037 198.311 104.365 198.588C104.681 198.873 105.187 199.071 105.883 199.182L107.041 199.367L107.561 196.107Z" fill="#E3B23C"/>
<path d="M98.1709 188.976C98.9598 189.201 99.6015 189.59 100.096 190.143C100.588 190.705 100.905 191.388 101.047 192.191C101.177 193.001 101.102 193.898 100.821 194.882C100.54 195.866 100.133 196.658 99.6 197.259C99.0578 197.857 98.4321 198.255 97.7229 198.454C97.0136 198.653 96.2645 198.64 95.4757 198.415C94.6775 198.187 94.0298 197.801 93.5326 197.258C93.0353 196.714 92.7191 196.047 92.5837 195.255C92.4391 194.461 92.5072 193.572 92.7882 192.588C93.0691 191.605 93.4833 190.804 94.0307 190.188C94.5662 189.578 95.1913 189.164 95.9058 188.947C96.6178 188.738 97.3728 188.748 98.1709 188.976ZM97.7694 190.382C97.0548 190.178 96.3979 190.317 95.7987 190.798C95.1969 191.289 94.7502 192.044 94.4587 193.065C94.1672 194.086 94.1527 194.945 94.4153 195.643C94.6753 196.349 95.1626 196.805 95.8772 197.009C96.5918 197.213 97.2461 197.083 97.8399 196.621C98.4312 196.167 98.8725 195.43 99.1641 194.409C99.4556 193.388 99.4753 192.51 99.2233 191.776C98.9687 191.051 98.484 190.586 97.7694 190.382Z" fill="#E3B23C"/>
<path d="M92.3743 187.27L88.6702 195.984L85.8855 194.8C85.2815 194.543 84.7769 194.25 84.3716 193.921C83.9575 193.587 83.6852 193.204 83.5546 192.771C83.4114 192.343 83.4531 191.863 83.6796 191.33C83.8533 190.921 84.1242 190.58 84.4921 190.306C84.8564 190.042 85.2578 189.924 85.6963 189.953L85.719 189.9C85.2847 189.589 84.9857 189.195 84.822 188.716C84.6457 188.243 84.6822 187.713 84.9314 187.127C85.1768 186.549 85.5273 186.132 85.9828 185.875C86.4294 185.613 86.9455 185.497 87.5311 185.526C88.1129 185.563 88.7236 185.718 89.3631 185.99L92.3743 187.27ZM88.6539 191.729L87.548 191.259C86.944 191.003 86.4571 190.927 86.0873 191.032C85.7176 191.137 85.4534 191.376 85.2948 191.749C85.1136 192.175 85.1273 192.538 85.3361 192.836C85.5448 193.135 85.9334 193.405 86.5019 193.646L87.6344 194.128L88.6539 191.729ZM90.319 187.812L89.0133 187.257C88.3737 186.985 87.8317 186.891 87.3871 186.975C86.9387 187.067 86.6107 187.358 86.403 187.847C86.2067 188.308 86.2338 188.713 86.4845 189.061C86.7315 189.418 87.1836 189.736 87.8409 190.015L89.1466 190.57L90.319 187.812Z" fill="#E3B23C"/>
<path d="M80.4241 187.196L81.2849 186.353L79.1815 185.161L78.9001 186.332C78.787 186.845 78.6625 187.368 78.5267 187.901C78.3825 188.43 78.2407 188.954 78.1012 189.474L78.1516 189.503C78.5225 189.103 78.9018 188.708 79.2895 188.317C79.6641 187.93 80.0423 187.557 80.4241 187.196ZM85.6668 184.376L78.3152 191.093L76.6023 190.122L78.5882 180.364L80.1248 181.235L79.5036 183.829L82.2746 185.399L84.1805 183.534L85.6668 184.376Z" fill="#E3B23C"/>
<path d="M77.7836 179.764L72.2007 187.411L70.8443 186.421L73.0894 183.346L69.9907 181.084L67.7456 184.159L66.3892 183.169L71.9721 175.521L73.3285 176.512L70.8529 179.903L73.9516 182.165L76.4272 178.774L77.7836 179.764Z" fill="#E3B23C"/>
<path d="M70.5343 174.246L64.0479 181.143L62.8245 179.993L65.4329 177.219L62.638 174.591L60.0296 177.365L58.8061 176.214L65.2926 169.316L66.516 170.467L63.6397 173.526L66.4346 176.154L69.3109 173.095L70.5343 174.246Z" fill="#E3B23C"/>
<path d="M58.941 169.615L60.0424 169.126L58.4885 167.273L57.8152 168.273C57.5299 168.714 57.2304 169.16 56.9168 169.612C56.5969 170.057 56.2808 170.498 55.9683 170.937L56.0055 170.981C56.4929 170.736 56.9864 170.499 57.4862 170.268C57.9723 170.037 58.4573 169.819 58.941 169.615ZM64.8387 168.806L55.6028 172.529L54.3373 171.02L59.6095 162.572L60.7447 163.926L59.2559 166.138L61.3029 168.578L63.7407 167.497L64.8387 168.806Z" fill="#E3B23C"/>
<path d="M56.5348 157.901L53.4479 159.952L54.2251 161.122L58.5379 160.915L59.6035 162.519L54.9336 162.58C55.1067 163.172 55.1098 163.744 54.943 164.295C54.7681 164.851 54.3712 165.335 53.7522 165.747C53.1654 166.137 52.6177 166.315 52.1091 166.282C51.5925 166.255 51.1176 166.072 50.6845 165.734C50.246 165.388 49.8451 164.942 49.4819 164.395L47.7192 161.742L55.6054 156.502L56.5348 157.901ZM53.0756 161.798L52.3385 160.689L49.77 162.396L50.5072 163.505C50.8651 164.044 51.2326 164.396 51.6098 164.563C51.9736 164.727 52.3806 164.659 52.8308 164.36C53.7312 163.762 53.8128 162.908 53.0756 161.798Z" fill="#E3B23C"/>
<path d="M51.0497 147.009C51.3673 147.734 51.4835 148.468 51.3983 149.211C51.3131 149.955 51.0164 150.649 50.5084 151.293C49.9876 151.932 49.2498 152.461 48.2951 152.879C47.3491 153.294 46.4628 153.471 45.636 153.412C44.7964 153.348 44.0682 153.093 43.4511 152.646C42.8253 152.204 42.3535 151.62 42.0359 150.896C41.7957 150.347 41.6931 149.813 41.7282 149.292C41.7633 148.77 41.8666 148.309 42.0383 147.907L43.3931 148.293C43.26 148.615 43.1873 148.942 43.1748 149.274C43.1495 149.601 43.2105 149.933 43.3577 150.269C43.563 150.737 43.8752 151.101 44.2943 151.36C44.7006 151.614 45.1846 151.745 45.7461 151.751C46.3037 151.749 46.9096 151.605 47.5638 151.318C48.5539 150.885 49.237 150.327 49.6129 149.646C49.98 148.969 50.0048 148.268 49.6871 147.543C49.5167 147.154 49.286 146.844 48.9952 146.613C48.6955 146.386 48.3589 146.207 47.9852 146.076L48.5929 144.829C49.1545 145.005 49.6466 145.274 50.069 145.637C50.4787 145.995 50.8056 146.452 51.0497 147.009Z" fill="#E3B23C"/>
<path d="M48.6035 140.873L40.9184 143.268L41.7325 145.88L40.3779 146.302L38.2502 139.474L39.6048 139.052L40.4188 141.664L48.1039 139.27L48.6035 140.873Z" fill="#E3B23C"/>
<path d="M46.4545 131.458C46.6023 132.265 46.5381 133.013 46.2618 133.701C45.976 134.391 45.5046 134.978 44.8473 135.461C44.1789 135.937 43.3415 136.267 42.3351 136.451C41.3288 136.635 40.4383 136.622 39.6637 136.41C38.8873 136.19 38.2527 135.805 37.76 135.258C37.2672 134.71 36.947 134.033 36.7992 133.226C36.6497 132.409 36.7083 131.658 36.9751 130.971C37.2419 130.285 37.7 129.705 38.3494 129.233C38.9972 128.751 39.8242 128.418 40.8306 128.234C41.8369 128.05 42.7378 128.066 43.5331 128.284C44.3172 128.494 44.9652 128.87 45.4769 129.415C45.9792 129.96 46.305 130.641 46.4545 131.458ZM45.0162 131.721C44.8824 130.99 44.4669 130.463 43.7698 130.139C43.0633 129.817 42.1878 129.752 41.1435 129.943C40.0991 130.134 39.3226 130.502 38.814 131.047C38.2958 131.593 38.1037 132.232 38.2375 132.963C38.3714 133.694 38.7774 134.223 39.4554 134.55C40.124 134.879 40.9805 134.948 42.0248 134.756C43.0692 134.565 43.8646 134.194 44.4113 133.642C44.9484 133.093 45.1501 132.452 45.0162 131.721Z" fill="#E3B23C"/>
<path d="M45.397 125.516L35.939 125.961L35.8608 124.298L39.9679 124.105C40.4982 124.08 41.0489 124.078 41.62 124.1C42.1911 124.121 42.7188 124.145 43.2031 124.17L43.2004 124.112L41.1439 123.223L35.6826 120.509L35.599 118.73L45.0569 118.286L45.1351 119.949L40.9991 120.143C40.4688 120.168 39.9278 120.169 39.376 120.147C38.8237 120.115 38.296 120.092 37.7928 120.077L37.7956 120.134L39.8369 121.009L45.3133 123.738L45.397 125.516Z" fill="#E3B23C"/>
<path d="M45.1198 115.814L35.6888 114.973L35.8573 113.084L40.621 111.823C40.9284 111.744 41.245 111.67 41.5709 111.602C41.8879 111.524 42.2046 111.45 42.5208 111.382L42.5259 111.324C42.2277 111.191 41.9291 111.062 41.63 110.939C41.3213 110.814 41.0223 110.691 40.7328 110.568L36.2636 108.527L36.4333 106.624L45.8643 107.465L45.7267 109.008L41.415 108.623C41.1169 108.597 40.7957 108.558 40.4514 108.508C40.0982 108.448 39.7451 108.387 39.392 108.327C39.0397 108.256 38.7206 108.194 38.4348 108.139L38.4297 108.197L40.5534 109.157L44.6555 111.078L44.5667 112.073L40.1883 113.252L37.9295 113.807L37.9243 113.864C38.2153 113.861 38.54 113.861 38.8982 113.864C39.2574 113.857 39.6156 113.86 39.9731 113.873C40.3217 113.875 40.6451 113.889 40.9431 113.915L45.2548 114.3L45.1198 115.814Z" fill="#E3B23C"/>
<path d="M47.2363 102.054C47.0544 102.854 46.7009 103.516 46.1759 104.04C45.6415 104.562 44.977 104.915 44.1825 105.101C43.3808 105.275 42.4811 105.248 41.4835 105.021C40.4859 104.794 39.6727 104.431 39.0439 103.932C38.4173 103.423 37.9853 102.82 37.748 102.123C37.5107 101.425 37.483 100.677 37.665 99.8767C37.8491 99.0673 38.1989 98.3996 38.7145 97.8735C39.2301 97.3473 39.8794 96.9952 40.6623 96.8169C41.4473 96.6292 42.3387 96.6489 43.3363 96.8758C44.3339 97.1027 45.1554 97.4727 45.8009 97.9857C46.4391 98.4872 46.8863 99.0888 47.1424 99.7905C47.3891 100.49 47.4204 101.244 47.2363 102.054ZM45.8105 101.729C45.9753 101.005 45.8011 100.356 45.2879 99.7844C44.7652 99.2101 43.9862 98.8053 42.951 98.5698C41.9157 98.3343 41.0571 98.3667 40.3751 98.6669C39.6837 98.965 39.2556 99.4763 39.0908 100.201C38.9259 100.926 39.0908 101.572 39.5852 102.14C40.0702 102.705 40.8304 103.106 41.8656 103.341C42.9009 103.577 43.7783 103.549 44.4979 103.257C45.2082 102.963 45.6457 102.454 45.8105 101.729Z" fill="#E3B23C"/>
<path d="M50.0608 92.7159C49.7915 93.4602 49.3698 94.0722 48.7958 94.5522C48.2217 95.0322 47.5287 95.3305 46.7166 95.4472C45.8988 95.5515 44.9998 95.4263 44.0196 95.0715C43.0485 94.7201 42.2838 94.238 41.7254 93.6254C41.1612 93.0003 40.8093 92.3136 40.6697 91.565C40.5209 90.8132 40.5812 90.0652 40.8505 89.321C41.0542 88.7583 41.3483 88.3002 41.7329 87.9467C42.1174 87.5932 42.5103 87.3299 42.9117 87.157L43.6272 88.3706C43.3091 88.512 43.0311 88.6988 42.7931 88.9309C42.5494 89.1506 42.3651 89.4329 42.2403 89.7778C42.0662 90.2588 42.0418 90.7375 42.167 91.214C42.2865 91.678 42.5473 92.106 42.9495 92.4979C43.3549 92.8807 43.8935 93.1937 44.5651 93.4368C45.5815 93.8046 46.4607 93.8713 47.2025 93.6368C47.9352 93.3991 48.4362 92.9081 48.7055 92.1639C48.8501 91.7645 48.8965 91.381 48.8448 91.0133C48.784 90.6423 48.6635 90.2805 48.4832 89.9279L49.7825 89.4435C50.0686 89.9576 50.2397 90.4917 50.2958 91.0458C50.3461 91.5875 50.2677 92.1442 50.0608 92.7159Z" fill="#E3B23C"/>
<path d="M52.533 86.5303L45.3219 82.9532L44.1059 85.4044L42.8349 84.7739L46.0131 78.3669L47.2842 78.9974L46.0682 81.4487L53.2793 85.0258L52.533 86.5303Z" fill="#E3B23C"/>
<path d="M55.2868 81.273L47.3209 76.1549L48.2287 74.7419L51.3103 76.7219L52.1086 75.4795C52.4894 74.8867 52.9071 74.4151 53.3617 74.0648C53.8082 73.7091 54.2894 73.5136 54.8056 73.4781C55.3136 73.4374 55.8477 73.597 56.408 73.957C57.0089 74.3431 57.4126 74.786 57.6192 75.2859C57.8258 75.7857 57.8656 76.3218 57.7388 76.8942C57.6171 77.4585 57.3659 78.0371 56.985 78.6298L55.2868 81.273ZM55.0619 79.1322L55.7818 78.0116C56.147 77.4432 56.3206 76.941 56.3025 76.5049C56.2815 76.0555 56.0274 75.6742 55.5402 75.3612C54.712 74.829 53.9144 75.1598 53.1474 76.3535L52.4431 77.4497L55.0619 79.1322Z" fill="#E3B23C"/>
<path d="M66.4952 70.1171L59.9699 58.8278L60.7681 58.029L67.2934 69.3183L66.4952 70.1171Z" fill="#E3B23C"/>
<path d="M70.1428 66.4786L64.4519 54.7465L65.3058 54.0076L70.9968 65.7397L70.1428 66.4786Z" fill="#E3B23C"/>
<path d="M84.1246 53.9648L83.5091 52.8C82.3772 53.3436 81.3512 53.5091 80.4311 53.2967C79.511 53.0843 78.7849 52.4746 78.2528 51.4676C77.7251 50.4692 77.6373 49.5386 77.9892 48.6758C78.3411 47.813 79.0604 47.0672 80.1472 46.4383L79.5384 45.2862L80.8185 44.6098L81.4272 45.7618C82.5592 45.2183 83.5806 45.0442 84.4917 45.2395C85.4028 45.4349 86.1221 46.0318 86.6497 47.0302C87.1819 48.0372 87.2765 48.9806 86.9336 49.8604C86.5908 50.7403 85.8759 51.4947 84.7891 52.1236L85.4047 53.2884L84.1246 53.9648ZM79.648 50.7303C79.9952 51.3874 80.4513 51.7959 81.0162 51.9559C81.5851 52.1028 82.2221 52.0173 82.9273 51.6992L80.7289 47.5391C80.0643 47.934 79.6302 48.4036 79.4265 48.9478C79.2269 49.4791 79.3008 50.0732 79.648 50.7303ZM85.2545 47.7675C84.9073 47.1104 84.4537 46.717 83.8938 46.5871C83.338 46.4442 82.7097 46.536 82.009 46.8626L84.2074 51.0227C84.8675 50.6193 85.2929 50.1434 85.4834 49.5952C85.6781 49.0338 85.6017 48.4246 85.2545 47.7675Z" fill="#E3B23C"/>
<path d="M90.0358 50.8532L86.7743 41.9643L88.3373 41.3908L89.7536 45.2508C89.9365 45.7492 90.1033 46.274 90.2542 46.8252C90.405 47.3764 90.5409 47.8869 90.6618 48.3566L90.7162 48.3366L90.9472 46.1083L91.8983 40.0842L93.5701 39.4708L96.8316 48.3598L95.2685 48.9333L93.8423 45.0461C93.6594 44.5477 93.4959 44.032 93.3517 43.4989C93.2166 42.9624 93.0807 42.452 92.944 41.9675L92.8897 41.9874L92.6672 44.1972L91.7075 50.2399L90.0358 50.8532Z" fill="#E3B23C"/>
<path d="M99.2398 47.6886L97.1157 38.4616L98.7523 38.0848L99.6162 41.8377L100.914 41.5389L101.657 39.0206C101.799 38.5223 101.956 38.1248 102.125 37.8283C102.294 37.5318 102.491 37.3084 102.714 37.158C102.934 36.9982 103.205 36.8816 103.524 36.8079C103.628 36.7841 103.738 36.7686 103.855 36.7614C103.98 36.7427 104.09 36.7471 104.185 36.7746L104.258 38.3178C104.179 38.3163 104.106 38.3231 104.04 38.3383C103.981 38.3418 103.929 38.3491 103.882 38.3599C103.675 38.4075 103.51 38.5098 103.388 38.6667C103.265 38.8236 103.13 39.1372 102.98 39.6073L102.331 41.8218L106.548 46.0062L104.813 46.4057L101.22 42.8651L99.9215 43.1639L100.876 47.3118L99.2398 47.6886Z" fill="#E3B23C"/>
<path d="M111.286 45.6893C110.499 45.7762 109.764 45.6681 109.08 45.365C108.396 45.0619 107.822 44.5718 107.359 43.8947C106.904 43.207 106.619 42.3451 106.505 41.309C106.391 40.2825 106.486 39.3835 106.789 38.612C107.101 37.8298 107.562 37.2108 108.172 36.755C108.781 36.2896 109.479 36.0134 110.265 35.9265C110.86 35.8607 111.401 35.9224 111.888 36.1113C112.375 36.3002 112.785 36.5366 113.117 36.8203L112.344 37.9981C112.077 37.7752 111.786 37.6082 111.473 37.4972C111.168 37.3755 110.834 37.3348 110.469 37.3751C109.961 37.4313 109.52 37.6208 109.148 37.9435C108.784 38.2556 108.516 38.6786 108.342 39.2125C108.177 39.7453 108.134 40.3667 108.213 41.0766C108.331 42.151 108.66 42.9693 109.198 43.5313C109.734 44.0837 110.396 44.3165 111.183 44.2295C111.605 44.1829 111.97 44.0552 112.277 43.8465C112.583 43.6282 112.854 43.3603 113.091 43.0428L114.099 43.9946C113.764 44.4784 113.361 44.8677 112.888 45.1626C112.424 45.447 111.89 45.6225 111.286 45.6893Z" fill="#E3B23C"/>
<path d="M116.133 45.1122L116.281 35.645L117.946 35.671L117.881 39.7822C117.873 40.313 117.84 40.8627 117.783 41.4313C117.726 41.9999 117.669 42.5251 117.614 43.0069L117.672 43.0078L118.687 41.0111L121.738 35.7304L123.519 35.7583L123.371 45.2256L121.706 45.1995L121.771 41.0594C121.779 40.5286 121.812 39.9885 121.869 39.4392C121.935 38.89 121.992 38.3648 122.038 37.8636L121.98 37.8627L120.979 39.8452L117.913 45.1401L116.133 45.1122Z" fill="#E3B23C"/>
<path d="M125.471 45.4204L126.758 36.0399L129.713 36.4452C130.411 36.541 131.02 36.7171 131.54 36.9736C132.06 37.2301 132.449 37.5903 132.707 38.0543C132.965 38.5184 133.044 39.1138 132.944 39.8405C132.85 40.529 132.614 41.0763 132.237 41.4824C131.86 41.8885 131.388 42.1648 130.823 42.3113C130.257 42.4577 129.635 42.4844 128.956 42.3912L127.607 42.2063L127.135 45.6486L125.471 45.4204ZM127.79 40.8723L129.01 41.0396C130.387 41.2285 131.153 40.754 131.309 39.6161C131.391 39.0233 131.265 38.592 130.931 38.3222C130.609 38.0441 130.099 37.8572 129.401 37.7615L128.239 37.6021L127.79 40.8723Z" fill="#E3B23C"/>
<path d="M137.427 47.8009C136.634 47.59 135.986 47.2127 135.481 46.669C134.979 46.116 134.65 45.4391 134.493 44.6384C134.348 43.8309 134.407 42.9328 134.67 41.9441C134.933 40.9554 135.326 40.1559 135.848 39.5457C136.379 38.9379 136.997 38.5281 137.703 38.3163C138.408 38.1045 139.158 38.104 139.95 38.3149C140.753 38.5283 141.407 38.9022 141.914 39.4366C142.421 39.9709 142.75 40.6325 142.899 41.4214C143.058 42.2128 143.006 43.1028 142.743 44.0915C142.48 45.0802 142.081 45.8878 141.545 46.5142C141.02 47.1338 140.403 47.5588 139.692 47.7893C138.984 48.0104 138.229 48.0143 137.427 47.8009ZM137.803 46.3878C138.521 46.5789 139.175 46.4283 139.766 45.9362C140.359 45.4347 140.792 44.6709 141.064 43.6449C141.337 42.6189 141.336 41.7597 141.061 41.0672C140.788 40.3655 140.293 39.9191 139.575 39.728C138.856 39.537 138.205 39.6782 137.619 40.1517C137.036 40.6159 136.608 41.361 136.335 42.387C136.063 43.413 136.059 44.2909 136.324 45.0206C136.592 45.741 137.085 46.1968 137.803 46.3878Z" fill="#E3B23C"/>
<path d="M143.275 49.364L146.82 40.584L149.625 41.7167C150.234 41.9624 150.744 42.2463 151.155 42.5685C151.575 42.8942 151.855 43.2724 151.993 43.703C152.144 44.1282 152.111 44.6094 151.894 45.1464C151.728 45.5581 151.463 45.904 151.101 46.1843C150.741 46.4555 150.342 46.5806 149.903 46.5595L149.881 46.6132C150.321 46.9157 150.627 47.3047 150.8 47.7802C150.985 48.2504 150.958 48.7809 150.719 49.3715C150.485 49.9533 150.142 50.377 149.691 50.6426C149.249 50.9118 148.735 51.0374 148.149 51.0194C147.567 50.9925 146.954 50.849 146.309 50.5888L143.275 49.364ZM146.914 44.8375L148.028 45.2873C148.636 45.533 149.125 45.6 149.492 45.4882C149.86 45.3765 150.12 45.1326 150.272 44.7567C150.445 44.3271 150.425 43.965 150.211 43.6704C149.996 43.3758 149.603 43.1129 149.03 42.8816L147.889 42.421L146.914 44.8375ZM145.32 48.7844L146.636 49.3155C147.28 49.5757 147.824 49.6598 148.267 49.5681C148.714 49.4673 149.036 49.1708 149.235 48.6786C149.423 48.2132 149.388 47.8089 149.131 47.4658C148.878 47.1137 148.42 46.8039 147.758 46.5366L146.442 46.0054L145.32 48.7844Z" fill="#E3B23C"/>
<path d="M155.453 49.3007L154.608 50.1598L156.733 51.313L156.993 50.1362C157.096 49.6215 157.211 49.0963 157.337 48.5606C157.471 48.0296 157.604 47.5028 157.733 46.9803L157.682 46.9527C157.319 47.3594 156.947 47.7615 156.567 48.159C156.199 48.5527 155.828 48.9332 155.453 49.3007ZM150.263 52.2165L157.49 45.3655L159.22 46.3047L157.414 56.0974L155.862 55.255L156.435 52.6505L153.636 51.1313L151.765 53.0313L150.263 52.2165Z" fill="#E3B23C"/>
<path d="M158.09 56.5726L163.529 48.8225L164.904 49.7872L162.716 52.9039L165.857 55.1079L168.044 51.9913L169.419 52.956L163.979 60.7061L162.605 59.7414L165.017 56.3048L161.876 54.1008L159.464 57.5373L158.09 56.5726Z" fill="#E3B23C"/>
<path d="M165.344 61.8264L171.699 54.8073L172.944 55.9345L170.389 58.7571L173.233 61.3321L175.788 58.5094L177.033 59.6366L170.678 66.6556L169.434 65.5285L172.251 62.4161L169.407 59.8411L166.589 62.9535L165.344 61.8264Z" fill="#E3B23C"/>
<path d="M177.177 66.3442L176.086 66.8544L177.675 68.6767L178.329 67.6645C178.605 67.2183 178.896 66.7661 179.201 66.3081C179.513 65.8574 179.82 65.4098 180.124 64.9655L180.086 64.9218C179.604 65.1761 179.115 65.4232 178.619 65.6629C178.138 65.9036 177.657 66.1307 177.177 66.3442ZM171.296 67.2658L180.459 63.3671L181.753 64.8511L176.644 73.3982L175.483 72.067L176.929 69.8263L174.836 67.4257L172.419 68.5534L171.296 67.2658Z" fill="#E3B23C"/>
<path d="M179.818 77.9905L182.865 75.8802L182.066 74.7258L177.758 75.0151L176.661 73.4322L181.329 73.281C181.145 72.6926 181.13 72.1212 181.287 71.5669C181.451 71.0071 181.838 70.5157 182.449 70.0925C183.028 69.6913 183.573 69.5023 184.082 69.5254C184.599 69.543 185.077 69.7165 185.517 70.0461C185.962 70.3836 186.371 70.8221 186.745 71.3616L188.558 73.98L180.775 79.3711L179.818 77.9905ZM183.202 74.0269L183.96 75.1218L186.495 73.366L185.737 72.2711C185.369 71.7395 184.994 71.394 184.614 71.2348C184.247 71.078 183.842 71.1534 183.397 71.4612C182.509 72.0767 182.443 72.9319 183.202 74.0269Z" fill="#E3B23C"/>
<path d="M185.434 88.5384C185.103 87.8197 184.973 87.088 185.044 86.3431C185.114 85.5982 185.398 84.8989 185.893 84.2451C186.402 83.596 187.129 83.0532 188.076 82.6165C189.014 82.1839 189.896 81.9893 190.724 82.0326C191.565 82.0806 192.298 82.3217 192.923 82.756C193.557 83.1862 194.04 83.7606 194.372 84.4793C194.623 85.0227 194.735 85.5552 194.71 86.077C194.685 86.5987 194.591 87.0622 194.427 87.4673L193.065 87.107C193.192 86.7828 193.258 86.4545 193.264 86.1222C193.283 85.7946 193.216 85.4643 193.062 85.1312C192.848 84.6667 192.529 84.309 192.105 84.0582C191.694 83.8121 191.207 83.691 190.646 83.6949C190.088 83.7076 189.485 83.8636 188.837 84.1627C187.855 84.6156 187.183 85.1861 186.82 85.8743C186.466 86.5584 186.455 87.2598 186.787 87.9785C186.964 88.3641 187.201 88.6695 187.496 88.8947C187.8 89.1159 188.14 89.2885 188.516 89.4126L187.933 90.6704C187.368 90.5058 186.871 90.2462 186.441 89.8915C186.025 89.5416 185.689 89.0906 185.434 88.5384Z" fill="#E3B23C"/>
<path d="M188.188 95.0388L195.835 92.5273L194.982 89.9276L196.33 89.4849L198.561 96.2798L197.213 96.7225L196.359 94.1228L188.712 96.6343L188.188 95.0388Z" fill="#E3B23C"/>
<path d="M190.422 103.963C190.259 103.159 190.309 102.41 190.572 101.717C190.845 101.021 191.305 100.426 191.953 99.9303C192.613 99.4421 193.444 99.0965 194.446 98.8934C195.449 98.6902 196.34 98.687 197.118 98.8839C197.899 99.0901 198.54 99.4624 199.043 100.001C199.546 100.539 199.879 101.21 200.042 102.014C200.207 102.828 200.162 103.58 199.909 104.272C199.655 104.963 199.208 105.551 198.567 106.035C197.929 106.529 197.108 106.877 196.105 107.081C195.102 107.284 194.201 107.284 193.402 107.082C192.614 106.887 191.959 106.522 191.437 105.988C190.925 105.451 190.586 104.777 190.422 103.963ZM191.855 103.673C192.002 104.401 192.428 104.921 193.131 105.231C193.843 105.54 194.72 105.589 195.76 105.378C196.801 105.167 197.57 104.785 198.069 104.231C198.576 103.675 198.756 103.033 198.609 102.304C198.461 101.576 198.045 101.055 197.361 100.74C196.687 100.424 195.829 100.371 194.789 100.582C193.748 100.793 192.96 101.179 192.423 101.741C191.897 102.3 191.707 102.944 191.855 103.673Z" fill="#E3B23C"/>
<path d="M191.668 110.078L201.116 109.458L201.225 111.12L197.122 111.389C196.593 111.424 196.042 111.435 195.471 111.425C194.899 111.414 194.371 111.4 193.886 111.383L193.89 111.441L195.963 112.292L201.473 114.905L201.59 116.682L192.142 117.301L192.033 115.64L196.165 115.369C196.694 115.334 197.235 115.323 197.787 115.335C198.34 115.357 198.868 115.371 199.372 115.376L199.368 115.318L197.311 114.481L191.785 111.855L191.668 110.078Z" fill="#E3B23C"/>
<path d="M192.163 119.767L201.608 120.435L201.474 122.327L196.734 123.675C196.429 123.76 196.113 123.839 195.789 123.913C195.473 123.997 195.158 124.076 194.843 124.151L194.839 124.209C195.14 124.336 195.44 124.459 195.742 124.577C196.053 124.696 196.354 124.814 196.646 124.932L201.151 126.891L201.016 128.797L191.572 128.128L191.681 126.583L195.999 126.889C196.298 126.91 196.619 126.942 196.965 126.986C197.319 127.04 197.673 127.094 198.027 127.148C198.381 127.212 198.701 127.269 198.988 127.318L198.992 127.26L196.851 126.339L192.714 124.494L192.785 123.497L197.141 122.238L199.389 121.642L199.393 121.585C199.102 121.593 198.778 121.599 198.42 121.603C198.061 121.616 197.702 121.62 197.345 121.614C196.996 121.618 196.673 121.61 196.374 121.589L192.056 121.283L192.163 119.767Z" fill="#E3B23C"/>
<path d="M190.352 133.507C190.519 132.704 190.861 132.036 191.376 131.502C191.901 130.971 192.559 130.605 193.35 130.405C194.148 130.217 195.048 130.227 196.05 130.436C197.052 130.644 197.871 130.993 198.509 131.48C199.145 131.978 199.588 132.573 199.838 133.266C200.088 133.959 200.129 134.707 199.961 135.51C199.792 136.322 199.454 136.996 198.948 137.532C198.442 138.067 197.8 138.431 197.02 138.624C196.239 138.826 195.347 138.822 194.346 138.613C193.344 138.405 192.516 138.05 191.861 137.548C191.214 137.059 190.756 136.465 190.487 135.768C190.228 135.073 190.183 134.32 190.352 133.507ZM191.784 133.805C191.632 134.533 191.818 135.178 192.341 135.741C192.874 136.305 193.661 136.696 194.7 136.913C195.739 137.129 196.597 137.081 197.274 136.769C197.96 136.458 198.378 135.939 198.53 135.212C198.682 134.484 198.505 133.841 198 133.282C197.505 132.725 196.738 132.339 195.698 132.122C194.659 131.905 193.782 131.949 193.068 132.254C192.363 132.561 191.935 133.078 191.784 133.805Z" fill="#E3B23C"/>
<path d="M187.717 142.98C187.972 142.231 188.383 141.611 188.948 141.121C189.513 140.631 190.201 140.32 191.011 140.188C191.826 140.069 192.728 140.178 193.714 140.515C194.691 140.849 195.465 141.317 196.034 141.919C196.61 142.534 196.974 143.214 197.127 143.96C197.29 144.709 197.243 145.458 196.987 146.207C196.794 146.773 196.508 147.236 196.13 147.597C195.752 147.957 195.364 148.228 194.966 148.408L194.228 147.208C194.544 147.06 194.818 146.869 195.052 146.632C195.292 146.408 195.471 146.122 195.589 145.775C195.755 145.291 195.77 144.812 195.636 144.338C195.509 143.876 195.24 143.453 194.831 143.069C194.418 142.693 193.874 142.39 193.198 142.159C192.175 141.81 191.295 141.759 190.558 142.007C189.829 142.258 189.337 142.758 189.082 143.507C188.944 143.909 188.905 144.293 188.963 144.66C189.031 145.03 189.158 145.39 189.345 145.739L188.054 146.247C187.759 145.738 187.578 145.207 187.512 144.654C187.452 144.113 187.52 143.555 187.717 142.98Z" fill="#E3B23C"/>
<path d="M185.304 149.398L192.58 152.842L193.75 150.369L195.033 150.976L191.972 157.44L190.69 156.833L191.861 154.36L184.585 150.916L185.304 149.398Z" fill="#E3B23C"/>
<path d="M182.691 154.651L190.75 159.621L189.868 161.05L186.751 159.128L185.976 160.385C185.606 160.984 185.197 161.464 184.749 161.822C184.309 162.186 183.832 162.391 183.316 162.436C182.809 162.486 182.272 162.336 181.705 161.987C181.097 161.612 180.685 161.176 180.47 160.68C180.254 160.184 180.204 159.649 180.32 159.075C180.431 158.508 180.672 157.925 181.042 157.325L182.691 154.651ZM182.955 156.787L182.256 157.921C181.902 158.496 181.737 159.002 181.763 159.437C181.793 159.886 182.054 160.263 182.547 160.567C183.385 161.083 184.176 160.738 184.921 159.53L185.605 158.421L182.955 156.787Z" fill="#E3B23C"/>
<path d="M171.649 166.102L178.388 177.265L177.605 178.079L170.866 166.915L171.649 166.102Z" fill="#E3B23C"/>
<path d="M168.126 169.762L174.04 181.383L173.201 182.138L167.286 170.517L168.126 169.762Z" fill="#E3B23C"/>
</svg>
