<svg width="25" height="31" viewBox="0 0 25 31" fill="none" xmlns="http://www.w3.org/2000/svg">
<path d="M7.70033 24.0714C7.97158 23.9126 8.26802 23.7576 8.58964 23.6103C8.31795 24.0154 8.02699 24.4072 7.71777 24.7844C7.17527 25.4374 6.75289 25.7842 6.48746 25.8927C6.46542 25.902 6.44276 25.9098 6.41964 25.9159C6.40031 25.8891 6.38345 25.8606 6.36927 25.8307C6.26077 25.6176 6.26464 25.4122 6.44677 25.1332C6.65214 24.8135 7.06483 24.4473 7.70033 24.0714ZM12.4569 20.8804C12.2263 20.9288 11.9977 20.9772 11.7671 21.0315C12.1086 20.3624 12.4317 19.684 12.7359 18.9971C13.0422 19.5647 13.3718 20.1193 13.724 20.6595C13.3036 20.7215 12.8793 20.7951 12.4569 20.8804ZM17.3491 22.6997C17.0481 22.4569 16.7664 22.1914 16.5063 21.9053C16.948 21.915 17.3471 21.9479 17.692 22.0099C18.3062 22.1204 18.5949 22.2947 18.6956 22.4149C18.7274 22.4484 18.7454 22.4927 18.746 22.5389C18.7392 22.6755 18.6993 22.8085 18.6298 22.9264C18.5907 23.0208 18.528 23.1035 18.4476 23.1666C18.4077 23.1912 18.3605 23.2014 18.314 23.1957C18.1396 23.1899 17.8141 23.0678 17.3491 22.6997ZM13.0381 13.5043C12.9606 13.9771 12.8289 14.5196 12.6506 15.1105C12.585 14.8892 12.5274 14.6656 12.4782 14.4401C12.331 13.7562 12.3096 13.2195 12.3891 12.8475C12.4627 12.5046 12.6022 12.367 12.7688 12.2992C12.8582 12.2598 12.9528 12.2337 13.0498 12.2217C13.075 12.2798 13.104 12.3999 13.1118 12.6053C13.1215 12.8417 13.0982 13.142 13.0381 13.5062V13.5043Z" fill="#E3B23C"/>
<path fill-rule="evenodd" clip-rule="evenodd" d="M4.75 0H15.0052C15.519 0.000109735 16.0117 0.204311 16.375 0.567688L23.5573 7.75C23.9207 8.11327 24.1249 8.606 24.125 9.11981V27.125C24.125 28.1527 23.7167 29.1383 22.99 29.865C22.2633 30.5917 21.2777 31 20.25 31H4.75C3.72229 31 2.73666 30.5917 2.00996 29.865C1.28326 29.1383 0.875 28.1527 0.875 27.125V3.875C0.875 2.84729 1.28326 1.86166 2.00996 1.13496C2.73666 0.408258 3.72229 0 4.75 0V0ZM15.4062 2.90625V6.78125C15.4062 7.29511 15.6104 7.78792 15.9737 8.15127C16.3371 8.51462 16.8299 8.71875 17.3438 8.71875H21.2188L15.4062 2.90625ZM5.06969 26.4818C5.24406 26.8305 5.51531 27.1463 5.91831 27.2936C6.31938 27.4389 6.71656 27.3711 7.04206 27.2354C7.65819 26.9836 8.27238 26.3907 8.83619 25.7126C9.48138 24.9356 10.1595 23.9165 10.8144 22.7869C12.0787 22.4122 13.3733 22.149 14.6836 22.0003C15.2648 22.7424 15.8654 23.3818 16.4467 23.8409C16.9892 24.2672 17.615 24.6217 18.2563 24.6489C18.6056 24.6662 18.9515 24.5726 19.2444 24.3815C19.5448 24.1858 19.7676 23.9029 19.9303 23.5755C20.1047 23.2248 20.2112 22.8586 20.1977 22.4847C20.1854 22.116 20.0489 21.7623 19.8102 21.4811C19.3723 20.9579 18.6554 20.7061 17.9502 20.5801C17.0947 20.4476 16.2267 20.4151 15.3636 20.4832C14.6348 19.453 13.9994 18.3598 13.4649 17.2166C13.9493 15.9379 14.3116 14.7289 14.4724 13.7408C14.5421 13.3184 14.5789 12.9154 14.5654 12.5511C14.563 12.1896 14.4788 11.8332 14.3193 11.5087C14.2274 11.3297 14.0968 11.1733 13.9369 11.051C13.7771 10.9287 13.592 10.8435 13.3951 10.8016C13.0037 10.7182 12.6007 10.8016 12.2307 10.9508C11.5002 11.2414 11.1147 11.8614 10.9694 12.5453C10.8279 13.2041 10.8919 13.9713 11.0585 14.7463C11.229 15.5329 11.5196 16.3893 11.8916 17.2554C11.2966 18.7352 10.6094 20.1763 9.834 21.5702C8.83549 21.8844 7.87301 22.3032 6.96263 22.8199C6.24575 23.2461 5.60831 23.7499 5.22469 24.3447C4.81781 24.9763 4.69187 25.7281 5.06969 26.4818Z" fill="#E3B23C"/>
</svg>
