<svg width="16" height="19" viewBox="0 0 16 19" xmlns="http://www.w3.org/2000/svg">
<path d="M11.9613 3.67678C11.4225 3.20996 10.7268 2.96453 10.0144 2.98989C9.30194 3.01525 8.62553 3.3095 8.12127 3.81345L2.46627 9.46678C2.35183 9.58959 2.21383 9.6881 2.0605 9.75642C1.90717 9.82473 1.74165 9.86147 1.57381 9.86443C1.40597 9.86739 1.23926 9.83652 1.08361 9.77365C0.927962 9.71078 0.786572 9.61721 0.667874 9.49851C0.549176 9.37981 0.455602 9.23842 0.392734 9.08278C0.329865 8.92713 0.298991 8.76041 0.301952 8.59258C0.304914 8.42474 0.34165 8.25922 0.40997 8.10588C0.47829 7.95255 0.576794 7.81455 0.699605 7.70011L6.35294 2.04678C6.84964 1.5434 7.44171 1.1441 8.09454 0.872232C8.74737 0.600361 9.44785 0.461375 10.155 0.463401C10.8622 0.465426 11.5619 0.608423 12.2131 0.884029C12.8644 1.15964 13.4542 1.56232 13.948 2.06854C14.4418 2.57475 14.8297 3.17434 15.0891 3.83224C15.3484 4.49014 15.474 5.19314 15.4585 5.90015C15.443 6.60716 15.2867 7.30398 14.9987 7.94986C14.7107 8.59574 14.2968 9.17772 13.7813 9.66178L5.90961 17.1551C5.30115 17.7488 4.4818 18.0764 3.63179 18.0659C2.78178 18.0554 1.97075 17.7077 1.3771 17.0993C0.783462 16.4908 0.455839 15.6715 0.46631 14.8215C0.476781 13.9715 0.824488 13.1604 1.43294 12.5668L8.50461 5.49345C8.61997 5.37411 8.75795 5.27895 8.91048 5.21351C9.06302 5.14808 9.22706 5.11367 9.39303 5.11231C9.55901 5.11094 9.72359 5.14265 9.87718 5.20557C10.0308 5.2685 10.1703 5.36138 10.2876 5.4788C10.4049 5.59622 10.4977 5.73583 10.5604 5.88948C10.6232 6.04313 10.6548 6.20774 10.6532 6.37371C10.6517 6.53969 10.6172 6.70369 10.5516 6.85617C10.486 7.00864 10.3907 7.14653 10.2713 7.26178L3.20461 14.3351C3.08097 14.4676 3.01311 14.6426 3.01511 14.8238C3.01711 15.0051 3.08881 15.1785 3.21534 15.3083C3.34187 15.438 3.51349 15.5141 3.6946 15.5206C3.8757 15.5272 4.05238 15.4637 4.18794 15.3434L12.0579 7.85011C12.3427 7.57913 12.5676 7.25161 12.7183 6.88858C12.869 6.52555 12.9422 6.13502 12.9331 5.74206C12.924 5.34909 12.8328 4.96237 12.6655 4.6067C12.4981 4.25104 12.2582 3.93429 11.9613 3.67678Z" />
</svg>
