<svg width="36" height="36" viewBox="0 0 36 36" fill="none" xmlns="http://www.w3.org/2000/svg">
<path d="M17.9987 10.7897C14.0085 10.7897 10.7882 14.01 10.7882 18.0003C10.7882 21.9905 14.0085 25.2108 17.9987 25.2108C21.9889 25.2108 25.2093 21.9905 25.2093 18.0003C25.2093 14.01 21.9889 10.7897 17.9987 10.7897ZM17.9987 22.6866C15.4182 22.6866 13.3124 20.5807 13.3124 18.0003C13.3124 15.4198 15.4182 13.3139 17.9987 13.3139C20.5792 13.3139 22.685 15.4198 22.685 18.0003C22.685 20.5807 20.5792 22.6866 17.9987 22.6866ZM25.5046 8.81393C24.5729 8.81393 23.8206 9.56628 23.8206 10.4979C23.8206 11.4296 24.5729 12.1819 25.5046 12.1819C26.4362 12.1819 27.1886 11.4331 27.1886 10.4979C27.1888 10.2767 27.1455 10.0576 27.0609 9.85316C26.9764 9.64872 26.8524 9.46297 26.6959 9.30654C26.5395 9.15012 26.3538 9.02609 26.1493 8.94156C25.9449 8.85703 25.7258 8.81366 25.5046 8.81393ZM32.0542 18.0003C32.0542 16.0596 32.0718 14.1366 31.9628 12.1995C31.8538 9.94948 31.3405 7.95261 29.6952 6.3073C28.0464 4.65847 26.053 4.1487 23.803 4.03972C21.8624 3.93073 19.9393 3.94831 18.0022 3.94831C16.0616 3.94831 14.1385 3.93073 12.2014 4.03972C9.95144 4.1487 7.95456 4.66198 6.30925 6.3073C4.66042 7.95612 4.15066 9.94948 4.04167 12.1995C3.93269 14.1401 3.95026 16.0632 3.95026 18.0003C3.95026 19.9374 3.93269 21.8639 4.04167 23.801C4.15066 26.051 4.66394 28.0479 6.30925 29.6932C7.95808 31.3421 9.95144 31.8518 12.2014 31.9608C14.1421 32.0698 16.0651 32.0522 18.0022 32.0522C19.9428 32.0522 21.8659 32.0698 23.803 31.9608C26.053 31.8518 28.0499 31.3385 29.6952 29.6932C31.344 28.0444 31.8538 26.051 31.9628 23.801C32.0753 21.8639 32.0542 19.9409 32.0542 18.0003ZM28.9604 26.2901C28.7038 26.9299 28.3944 27.4081 27.8987 27.9003C27.403 28.396 26.9284 28.7053 26.2886 28.962C24.4393 29.6967 20.0483 29.5315 17.9987 29.5315C15.9491 29.5315 11.5546 29.6967 9.70534 28.9655C9.0655 28.7089 8.58738 28.3995 8.09519 27.9038C7.59948 27.4081 7.29011 26.9335 7.03347 26.2936C6.30222 24.4409 6.46745 20.0499 6.46745 18.0003C6.46745 15.9507 6.30222 11.5561 7.03347 9.7069C7.29011 9.06706 7.59948 8.58894 8.09519 8.09675C8.59089 7.60456 9.0655 7.29167 9.70534 7.03503C11.5546 6.30378 15.9491 6.46901 17.9987 6.46901C20.0483 6.46901 24.4429 6.30378 26.2921 7.03503C26.9319 7.29167 27.41 7.60104 27.9022 8.09675C28.3979 8.59245 28.7073 9.06706 28.9639 9.7069C29.6952 11.5561 29.53 15.9507 29.53 18.0003C29.53 20.0499 29.6952 24.4409 28.9604 26.2901Z" fill="#E3B23C"/>
</svg>
