<svg width="30" height="30" viewBox="0 0 30 30" fill="none" xmlns="http://www.w3.org/2000/svg">
<path d="M14.9987 7.78972C11.0085 7.78972 7.78816 11.01 7.78816 15.0003C7.78816 18.9905 11.0085 22.2108 14.9987 22.2108C18.9889 22.2108 22.2093 18.9905 22.2093 15.0003C22.2093 11.01 18.9889 7.78972 14.9987 7.78972ZM14.9987 19.6866C12.4182 19.6866 10.3124 17.5807 10.3124 15.0003C10.3124 12.4198 12.4182 10.3139 14.9987 10.3139C17.5792 10.3139 19.685 12.4198 19.685 15.0003C19.685 17.5807 17.5792 19.6866 14.9987 19.6866ZM22.5046 5.81393C21.5729 5.81393 20.8206 6.56628 20.8206 7.49792C20.8206 8.42956 21.5729 9.1819 22.5046 9.1819C23.4362 9.1819 24.1886 8.43308 24.1886 7.49792C24.1888 7.2767 24.1455 7.05759 24.0609 6.85316C23.9764 6.64872 23.8524 6.46297 23.6959 6.30654C23.5395 6.15012 23.3538 6.02609 23.1493 5.94156C22.9449 5.85703 22.7258 5.81366 22.5046 5.81393ZM29.0542 15.0003C29.0542 13.0596 29.0718 11.1366 28.9628 9.19948C28.8538 6.94948 28.3405 4.95261 26.6952 3.3073C25.0464 1.65847 23.053 1.1487 20.803 1.03972C18.8624 0.930733 16.9393 0.948311 15.0022 0.948311C13.0616 0.948311 11.1385 0.930733 9.20144 1.03972C6.95144 1.1487 4.95456 1.66198 3.30925 3.3073C1.66042 4.95612 1.15066 6.94948 1.04167 9.19948C0.932686 11.1401 0.950264 13.0632 0.950264 15.0003C0.950264 16.9374 0.932686 18.8639 1.04167 20.801C1.15066 23.051 1.66394 25.0479 3.30925 26.6932C4.95808 28.3421 6.95144 28.8518 9.20144 28.9608C11.1421 29.0698 13.0651 29.0522 15.0022 29.0522C16.9428 29.0522 18.8659 29.0698 20.803 28.9608C23.053 28.8518 25.0499 28.3385 26.6952 26.6932C28.344 25.0444 28.8538 23.051 28.9628 20.801C29.0753 18.8639 29.0542 16.9409 29.0542 15.0003ZM25.9604 23.2901C25.7038 23.9299 25.3944 24.4081 24.8987 24.9003C24.403 25.396 23.9284 25.7053 23.2886 25.962C21.4393 26.6967 17.0483 26.5315 14.9987 26.5315C12.9491 26.5315 8.55456 26.6967 6.70534 25.9655C6.0655 25.7089 5.58738 25.3995 5.09519 24.9038C4.59948 24.4081 4.29011 23.9335 4.03347 23.2936C3.30222 21.4409 3.46745 17.0499 3.46745 15.0003C3.46745 12.9507 3.30222 8.55612 4.03347 6.7069C4.29011 6.06706 4.59948 5.58894 5.09519 5.09675C5.59089 4.60456 6.0655 4.29167 6.70534 4.03503C8.55456 3.30378 12.9491 3.46901 14.9987 3.46901C17.0483 3.46901 21.4429 3.30378 23.2921 4.03503C23.9319 4.29167 24.41 4.60104 24.9022 5.09675C25.3979 5.59245 25.7073 6.06706 25.9639 6.7069C26.6952 8.55612 26.53 12.9507 26.53 15.0003C26.53 17.0499 26.6952 21.4409 25.9604 23.2901Z" fill="#E3B23C"/>
</svg>
