<svg width="34" height="34" viewBox="0 0 34 34" fill="none" xmlns="http://www.w3.org/2000/svg">
<path d="M19.0499 29.6154C19.2845 29.5004 19.4822 29.322 19.6207 29.1004C19.7591 28.8789 19.8328 28.623 19.8333 28.3617V20.825C19.8333 20.4539 19.9821 20.0969 20.2484 19.8334L28.9198 11.2569C29.1825 10.9976 29.3911 10.6888 29.5336 10.3483C29.6761 10.0079 29.7496 9.64259 29.75 9.27353V5.65253C29.7493 5.46736 29.712 5.28416 29.6404 5.11342C29.5687 4.94267 29.4641 4.78772 29.3326 4.65745C29.201 4.52718 29.045 4.42414 28.8735 4.35423C28.7021 4.28432 28.5185 4.24891 28.3333 4.25003H5.66667C4.88325 4.25003 4.25 4.87619 4.25 5.65253V9.27353C4.25 10.0173 4.54892 10.7313 5.08017 11.2569L13.7516 19.8334C13.883 19.963 13.9873 20.1173 14.0586 20.2876C14.1298 20.4578 14.1666 20.6405 14.1667 20.825V29.7642C14.1667 30.8054 15.2745 31.4826 16.2166 31.0165L19.0499 29.6154Z" fill="#283143"/>
</svg>
