<svg width="164" height="40" viewBox="0 0 164 40" fill="none" xmlns="http://www.w3.org/2000/svg">
<g clip-path="url(#clip0_1195_8676)">
<path d="M32.4672 6.39587V34.7004H26.2235V23.4619H4.99512V6.39587H11.2388V10.9746C11.2388 15.0954 14.6103 18.4669 18.7312 18.4669C22.852 18.4669 26.2235 15.0954 26.2235 10.9746V6.39587H32.4672Z" fill="#CFCFCF"/>
<path d="M0 1.27612V39.1543H37.4619V1.27612H0ZM34.5482 36.2406H2.91371V4.18983H34.5482V36.2406Z" fill="#CFCFCF"/>
<path d="M49.6993 12.9725H47.6598V10.5167C47.0354 10.8497 46.4527 11.0162 45.9115 11.0162C45.2455 11.0162 44.7044 10.8081 44.2466 10.4334C43.8303 10.0588 43.5806 9.47608 43.5806 8.81009V6.39587H45.6202V8.39384C45.6202 8.72684 45.7034 8.97658 45.8283 9.14308C45.9532 9.30958 46.2029 9.39283 46.4943 9.39283C47.0354 9.39283 47.41 9.22633 47.6598 8.93496V6.39587H49.6993V12.9725Z" fill="#CFCFCF"/>
<path d="M50.9064 6.39587H56.3175V7.8111H52.9043V8.85171H56.0678V10.1837H52.9043V11.474H56.4008V12.9725H50.8647V6.39587H50.9064Z" fill="#CFCFCF"/>
<path d="M57.3994 6.39587H60.771C61.5202 6.39587 62.0613 6.56237 62.436 6.93699C62.8106 7.26999 62.9771 7.76948 62.9771 8.43547C62.9771 9.10146 62.769 9.60095 62.3943 9.97557C62.0197 10.3502 61.3954 10.5167 60.5629 10.5167H59.439V12.9309H57.3994V6.39587ZM59.439 9.18471H59.9385C60.3131 9.18471 60.6045 9.10146 60.771 8.97658C60.9375 8.85171 61.0207 8.68521 61.0207 8.43547C61.0207 8.22735 60.9375 8.06085 60.8126 7.89435C60.6877 7.76948 60.438 7.68623 60.0218 7.68623H59.439V9.18471Z" fill="#CFCFCF"/>
<path d="M63.8932 6.39587H69.3044V7.8111H65.8912V8.85171H69.0546V10.1837H65.8912V11.474H69.3876V12.9725H63.8516V6.39587H63.8932Z" fill="#CFCFCF"/>
<path d="M76.6715 12.9725H74.6319V8.01922H72.4258V12.9725H70.3862V6.39587H76.6715V12.9725Z" fill="#CFCFCF"/>
<path d="M77.6709 9.6842C77.6709 8.60196 77.9623 7.76947 78.545 7.18673C79.1277 6.60399 79.9602 6.31262 81.0425 6.31262C82.1247 6.31262 82.9572 6.60399 83.5816 7.18673C84.1643 7.76947 84.4557 8.60196 84.4557 9.64257C84.4557 10.3918 84.3308 11.0162 84.081 11.5157C83.8313 12.0152 83.4567 12.3898 82.9572 12.6811C82.4577 12.9725 81.875 13.0974 81.1257 13.0974C80.3765 13.0974 79.7937 12.9725 79.2942 12.7644C78.7948 12.5147 78.4201 12.14 78.1288 11.6405C77.7958 11.0994 77.6709 10.4334 77.6709 9.6842ZM79.7105 9.6842C79.7105 10.3502 79.8354 10.8081 80.0851 11.0994C80.3349 11.3908 80.6679 11.5157 81.0841 11.5157C81.5003 11.5157 81.875 11.3908 82.0831 11.0994C82.3328 10.8081 82.4577 10.3086 82.4577 9.55932C82.4577 8.93496 82.3328 8.47709 82.0831 8.18572C81.8333 7.89435 81.5003 7.76947 81.0841 7.76947C80.6679 7.76947 80.3349 7.89435 80.0851 8.18572C79.7937 8.56034 79.7105 9.01821 79.7105 9.6842Z" fill="#CFCFCF"/>
<path d="M85.4127 6.39587H89.2005C89.8249 6.39587 90.3244 6.56237 90.6574 6.85374C90.9904 7.18674 91.1569 7.56136 91.1569 8.01922C91.1569 8.39384 91.032 8.72684 90.7823 9.01821C90.6158 9.18471 90.366 9.3512 90.0746 9.47608C90.5325 9.60095 90.9071 9.76745 91.1153 10.0588C91.3234 10.3502 91.4482 10.6832 91.4482 11.0994C91.4482 11.4324 91.365 11.7654 91.1985 12.0152C91.032 12.3065 90.8239 12.5147 90.5325 12.6395C90.366 12.7228 90.1163 12.806 89.7833 12.8477C89.3254 12.8893 89.034 12.9309 88.8675 12.9309H85.3711V6.39587H85.4127ZM87.4939 8.97658H88.368C88.701 8.97658 88.9092 8.93496 89.034 8.81009C89.1589 8.68521 89.2005 8.56034 89.2005 8.35222C89.2005 8.1441 89.1589 8.01922 89.034 7.89435C88.9092 7.76948 88.701 7.72785 88.368 7.72785H87.4939V8.97658ZM87.4939 11.5573H88.5345C88.8675 11.5573 89.1173 11.5157 89.2838 11.3908C89.4087 11.2659 89.4919 11.0994 89.4919 10.8913C89.4919 10.6832 89.4087 10.5583 89.2838 10.4334C89.1589 10.3086 88.9092 10.2669 88.5345 10.2669H87.4939V11.5573Z" fill="#CFCFCF"/>
<path d="M92.4474 6.39587H97.8586V7.8111H94.4454V8.85171H97.6088V10.1837H94.4454V11.474H97.9418V12.9725H92.4058V6.39587H92.4474Z" fill="#CFCFCF"/>
<path d="M105.892 14.3878H104.268V12.9725H98.9404V6.39587H100.98V11.3492H103.186V6.39587H105.226V11.4324H105.933V14.3878H105.892Z" fill="#CFCFCF"/>
<path d="M112.635 12.9725H110.346L109.555 11.2659C109.389 10.8497 109.222 10.5999 109.139 10.5167C109.056 10.4334 108.889 10.3502 108.723 10.3502V12.9309H106.683V6.39587H108.723V8.89333C108.889 8.89333 109.056 8.81008 109.139 8.68521C109.222 8.56034 109.389 8.22734 109.597 7.68623C109.763 7.26998 109.888 6.97861 110.055 6.81211C110.221 6.64562 110.471 6.52074 110.804 6.4375C111.137 6.35425 111.72 6.31262 112.427 6.31262V7.68623H112.344C112.011 7.68623 111.761 7.76948 111.595 7.89435C111.428 8.01922 111.303 8.22734 111.179 8.51871C111.054 8.81008 110.97 9.01821 110.846 9.1847C110.721 9.30958 110.554 9.43445 110.346 9.5177C110.637 9.60095 110.887 9.76744 111.095 10.0172C111.303 10.2669 111.553 10.5999 111.803 11.0994L112.635 12.9725Z" fill="#CFCFCF"/>
<path d="M119.503 6.39587V12.9309H117.588V9.3512L115.132 12.9309H113.218V6.39587H115.132V10.0172L117.588 6.39587H119.503Z" fill="#CFCFCF"/>
<path d="M127.037 6.39593V12.931H125.123V9.35126L122.667 12.931H120.752V6.39593H122.667V10.0173L125.123 6.39593H127.037ZM125.539 4.77258C125.456 5.1472 125.289 5.43857 124.998 5.68832C124.706 5.93806 124.332 6.02131 123.915 6.02131C123.499 6.02131 123.166 5.89644 122.833 5.68832C122.5 5.4802 122.334 5.1472 122.292 4.77258H123.083C123.208 5.1472 123.499 5.3137 123.915 5.3137C124.373 5.3137 124.665 5.1472 124.79 4.77258H125.539Z" fill="#CFCFCF"/>
<path d="M48.159 17.7178C50.157 17.9259 51.1559 18.8 51.1559 20.3817C51.1559 22.0051 50.157 22.8792 48.159 23.0873V23.7533H46.3275V23.0457C44.3296 22.8792 43.3306 22.0051 43.3306 20.3817C43.3306 18.8 44.3296 17.8843 46.3275 17.7178V17.2183H48.159V17.7178ZM46.3275 21.7553V19.0497C46.0362 19.133 45.7864 19.2995 45.5783 19.5492C45.4118 19.799 45.2869 20.0903 45.2869 20.4233C45.2869 20.7147 45.3702 21.0061 45.5783 21.2558C45.7864 21.5056 46.0362 21.6304 46.3275 21.7553ZM48.159 21.7137C48.492 21.6304 48.7417 21.4639 48.9082 21.2142C49.0747 20.9645 49.158 20.6731 49.158 20.3817C49.158 20.0487 49.0747 19.799 48.9082 19.5492C48.7417 19.2995 48.492 19.133 48.159 19.0081V21.7137Z" fill="#CFCFCF"/>
<path d="M56.0678 22.7126H53.7785L53.4455 23.7948H51.3643L53.8201 17.2598H56.0262L58.482 23.7948H56.3592L56.0678 22.7126ZM55.6516 21.2557L54.944 18.8831L54.2363 21.2557H55.6516Z" fill="#CFCFCF"/>
<path d="M59.0234 17.2183H61.063V19.5076H63.2691V17.2183H65.3087V23.7533H63.2691V21.0893H61.063V23.7533H59.0234V17.2183Z" fill="#CFCFCF"/>
<path d="M66.5153 17.2183H71.9264V18.6335H68.5132V19.6741H71.6767V21.0061H68.5132V22.2964H72.0097V23.7949H66.4736V17.2183H66.5153Z" fill="#CFCFCF"/>
<path d="M73.0088 17.2183H76.3804C77.1296 17.2183 77.6707 17.3848 78.0453 17.7594C78.42 18.0924 78.5865 18.5919 78.5865 19.2579C78.5865 19.9238 78.3783 20.4233 78.0037 20.798C77.6291 21.1726 77.0047 21.3391 76.1722 21.3391H75.0484V23.7533H73.0088V17.2183ZM75.0484 20.0071H75.5479C75.9225 20.0071 76.2139 19.9238 76.3804 19.799C76.5469 19.6741 76.6301 19.5076 76.6301 19.2579C76.6301 19.0497 76.5469 18.8832 76.422 18.7167C76.2971 18.5919 76.0474 18.5086 75.6311 18.5086H75.0484V20.0071Z" fill="#CFCFCF"/>
<path d="M79.5435 17.2183H81.583V19.5076H83.7891V17.2183H85.8287V23.7533H83.7891V21.0893H81.583V23.7533H79.5435V17.2183Z" fill="#CFCFCF"/>
<path d="M86.7866 20.5066C86.7866 19.4244 87.078 18.5919 87.6607 18.0091C88.2435 17.4264 89.076 17.135 90.1582 17.135C91.2404 17.135 92.0729 17.4264 92.6973 18.0091C93.28 18.5919 93.5714 19.4243 93.5714 20.465C93.5714 21.2142 93.4465 21.8386 93.1968 22.3381C92.947 22.8375 92.5724 23.2122 92.0729 23.5035C91.5734 23.7949 90.9907 23.9198 90.2414 23.9198C89.4922 23.9198 88.9095 23.7949 88.41 23.5868C87.9105 23.337 87.5359 22.9624 87.2445 22.4629C86.9115 21.9218 86.7866 21.2558 86.7866 20.5066ZM88.7846 20.5066C88.7846 21.1726 88.9095 21.6304 89.1592 21.9218C89.409 22.2132 89.742 22.3381 90.1582 22.3381C90.5744 22.3381 90.9491 22.2132 91.1572 21.9218C91.4069 21.6304 91.5318 21.1309 91.5318 20.3817C91.5318 19.7573 91.4069 19.2995 91.1572 19.0081C90.9074 18.7167 90.5744 18.5919 90.1582 18.5919C89.742 18.5919 89.409 18.7167 89.1592 19.0081C88.9095 19.3827 88.7846 19.8406 88.7846 20.5066Z" fill="#CFCFCF"/>
<path d="M94.0703 20.6731H96.7343V22.0883H94.0703V20.6731Z" fill="#CFCFCF"/>
<path d="M97.4424 17.2183H100.106L101.147 21.2142L102.188 17.2183H104.852V23.7533H103.187V18.7584L101.896 23.7533H100.398L99.1074 18.7584V23.7533H97.4424V17.2183Z" fill="#CFCFCF"/>
<path d="M105.975 17.2183H111.386V18.6335H107.973V19.6741H111.137V21.0061H107.973V22.2964H111.47V23.7949H105.934V17.2183H105.975Z" fill="#CFCFCF"/>
<path d="M114.508 19.7573H115.591C116.59 19.7573 117.339 19.9238 117.797 20.2985C118.296 20.6315 118.504 21.1726 118.504 21.9218C118.504 22.5462 118.296 23.004 117.838 23.2954C117.38 23.6284 116.756 23.7949 115.965 23.7949H112.469V17.2183H118.005V18.5502H114.508V19.7573ZM114.508 22.3797H115.549C116.173 22.3797 116.506 22.1299 116.506 21.6721C116.506 21.2558 116.173 21.0477 115.549 21.0477H114.508V22.3797Z" fill="#CFCFCF"/>
<path d="M119.503 17.2183H124.914V18.6335H121.501V19.6741H124.664V21.0061H121.501V22.2964H124.997V23.7949H119.461V17.2183H119.503Z" fill="#CFCFCF"/>
<path d="M132.032 23.7949H129.992V18.8416H128.411V20.8396C128.411 21.6721 128.369 22.2964 128.286 22.6711C128.203 23.0457 127.995 23.337 127.662 23.5452C127.329 23.7117 126.829 23.8365 126.08 23.8365C125.872 23.8365 125.622 23.7949 125.331 23.7533V22.4213H125.622C125.913 22.4213 126.08 22.3797 126.205 22.2548C126.33 22.1299 126.371 21.9218 126.371 21.5888V17.2183H131.99V23.7949H132.032Z" fill="#CFCFCF"/>
<path d="M135.279 19.7573H136.361C137.36 19.7573 138.109 19.9238 138.567 20.2985C139.067 20.6315 139.275 21.1726 139.275 21.9218C139.275 22.5462 139.067 23.004 138.609 23.2954C138.151 23.6284 137.527 23.7949 136.736 23.7949H133.239V17.2183H135.279V19.7573ZM135.279 22.3797H136.319C136.944 22.3797 137.277 22.1299 137.277 21.6721C137.277 21.2558 136.944 21.0477 136.319 21.0477H135.279V22.3797Z" fill="#CFCFCF"/>
<path d="M140.19 17.2183H142.23V19.5076H144.436V17.2183H146.476V23.7533H144.436V21.0893H142.23V23.7533H140.19V17.2183Z" fill="#CFCFCF"/>
<path d="M149.723 19.7573H150.805C151.804 19.7573 152.553 19.9238 153.011 20.2985C153.511 20.6315 153.719 21.1726 153.719 21.9218C153.719 22.5462 153.511 23.004 153.053 23.2954C152.595 23.6284 151.97 23.7949 151.18 23.7949H147.683V17.2183H149.723V19.7573ZM149.723 22.3797H150.763C151.388 22.3797 151.721 22.1299 151.721 21.6721C151.721 21.2558 151.388 21.0477 150.763 21.0477H149.723V22.3797ZM154.26 17.2183H156.299V23.7533H154.26V17.2183Z" fill="#CFCFCF"/>
<path d="M163.791 17.2182V23.7532H161.876V20.1735L159.421 23.7532H157.506V17.2182H159.421V20.8395L161.876 17.2182H163.791ZM162.293 15.5948C162.209 15.9695 162.043 16.2608 161.752 16.5106C161.46 16.7603 161.086 16.8436 160.669 16.8436C160.253 16.8436 159.92 16.7187 159.587 16.5106C159.254 16.3025 159.088 15.9695 159.046 15.5948H159.837C159.962 15.9695 160.253 16.136 160.669 16.136C161.127 16.136 161.419 15.9695 161.543 15.5948H162.293Z" fill="#CFCFCF"/>
<path d="M49.6574 34.6173H47.368L46.5772 32.9107C46.4107 32.4945 46.2442 32.2447 46.1609 32.1615C46.0777 32.0782 45.9112 31.995 45.7447 31.995V34.5757H43.7051V28.0406H45.7447V30.5381C45.9112 30.5381 46.0777 30.4549 46.1609 30.33C46.2442 30.2051 46.4107 29.8721 46.6188 29.331C46.7853 28.9148 46.9102 28.6234 47.0767 28.4569C47.2431 28.2904 47.4929 28.1655 47.8259 28.0823C48.1589 27.999 48.7416 27.9574 49.4492 27.9574V29.331H49.366C49.033 29.331 48.7833 29.4142 48.6168 29.5391C48.4503 29.664 48.3254 29.8721 48.2005 30.1635C48.0756 30.4549 47.9924 30.663 47.8675 30.8295C47.7426 30.9543 47.5761 31.0792 47.368 31.1625C47.6594 31.2457 47.9091 31.4122 48.1173 31.662C48.3254 31.9117 48.5751 32.2447 48.8249 32.7442L49.6574 34.6173Z" fill="#CFCFCF"/>
<path d="M49.9902 31.329C49.9902 30.2467 50.2816 29.4142 50.8643 28.8315C51.4471 28.2488 52.2796 27.9574 53.3618 27.9574C54.444 27.9574 55.2765 28.2488 55.9009 28.8315C56.4836 29.4142 56.775 30.2467 56.775 31.2873C56.775 32.0366 56.6501 32.661 56.4004 33.1604C56.1506 33.6599 55.776 34.0346 55.2765 34.3259C54.777 34.6173 54.1943 34.7422 53.4451 34.7422C52.6958 34.7422 52.1131 34.6173 51.6136 34.4092C51.1141 34.1594 50.7395 33.7848 50.4481 33.2853C50.1567 32.7442 49.9902 32.0782 49.9902 31.329ZM52.0298 31.329C52.0298 31.995 52.1547 32.4528 52.4044 32.7442C52.6542 33.0356 52.9872 33.1604 53.4034 33.1604C53.8197 33.1604 54.1943 33.0356 54.4024 32.7442C54.6522 32.4528 54.777 31.9533 54.777 31.2041C54.777 30.5797 54.6522 30.1219 54.4024 29.8305C54.1527 29.5391 53.8197 29.4143 53.4034 29.4143C52.9872 29.4143 52.6542 29.5391 52.4044 29.8305C52.1547 30.2051 52.0298 30.663 52.0298 31.329Z" fill="#CFCFCF"/>
<path d="M57.7325 28.0405H60.3965L61.4371 32.0365L62.4361 28.0405H65.1V34.5756H63.4351V29.5806L62.1447 34.5756H60.6462L59.3559 29.5806V34.5756H57.6909V28.0405H57.7325Z" fill="#CFCFCF"/>
<path d="M68.3052 30.5796H69.3875C70.3864 30.5796 71.1357 30.7461 71.5935 31.1207C72.093 31.4537 72.3012 31.9948 72.3012 32.7441C72.3012 33.3684 72.093 33.8263 71.6352 34.1177C71.1773 34.4507 70.5529 34.6172 69.7621 34.6172H66.2656V28.0405H71.8017V29.3725H68.3052V30.5796ZM68.3052 33.2019H69.3458C69.9702 33.2019 70.3032 32.9522 70.3032 32.4943C70.3032 32.0781 69.9702 31.87 69.3458 31.87H68.3052V33.2019Z" fill="#CFCFCF"/>
<path d="M79.5441 28.0405V34.5756H77.6293V30.9959L75.1735 34.5756H73.2588V28.0405H75.1735V31.6618L77.6293 28.0405H79.5441Z" fill="#CFCFCF"/>
<path d="M80.7925 28.0405H82.8321V30.3299H85.0382V28.0405H87.0778V34.5756H85.0382V31.9116H82.8321V34.5756H80.7925V28.0405Z" fill="#CFCFCF"/>
<path d="M92.3222 33.5351H90.0329L89.6999 34.6173H87.6187L90.0745 28.0823H92.2806L94.7364 34.6173H92.6136L92.3222 33.5351ZM91.906 32.0782L91.1984 29.7056L90.4907 32.0782H91.906Z" fill="#CFCFCF"/>
<path d="M94.8614 28.0405H101.022V29.6639H98.9406V34.6172H96.901V29.6639H94.8198V28.0405H94.8614Z" fill="#CFCFCF"/>
</g>
<defs>
<clipPath id="clip0_1195_8676">
<rect width="164" height="38.2944" fill="white" transform="translate(0 0.984741)"/>
</clipPath>
</defs>
</svg>
