<svg width="140" height="29" viewBox="0 0 140 29" fill="none" xmlns="http://www.w3.org/2000/svg">
<g clip-path="url(#clip0_1081_8820)">
<path fill-rule="evenodd" clip-rule="evenodd" d="M82.9873 11.3592L79.3193 19.7377L74.352 11.3592H65.6539L60.7391 22.2195L58.2555 11.2426H50.4692C50.4692 11.2426 49.3269 11.2532 48.3733 11.6668C47.6188 11.9956 46.948 12.5577 46.948 12.5577L39.6647 19.0484C35.1585 22.6331 27.2883 24.7012 25.0771 24.8073C14.5976 25.2845 12.4074 18.0408 13.1304 14.6152C15.0063 5.77003 28.5669 3.6701 35.693 3.6701C39.0675 3.6701 41.834 4.34886 43.9823 4.94278L46.0467 1.23078L44.5377 0.902008C42.6514 0.658079 39.7276 0.0217356 34.7288 0.000524192C14.5138 -0.0631101 4.13908 5.67458 0.984733 13.0349C-2.57831 21.3498 3.44743 28.8693 20.3719 28.8693C23.4424 28.8693 29.5205 28.5935 35.2319 26.5148H40.7441L43.5631 23.98H52.1039L52.4603 26.6951H61.7661L61.7556 26.6314H66.7229L70.6841 17.8605L75.882 26.6314L83.9517 26.6421L90.8682 11.3486H82.9873V11.3592ZM46.7803 20.9362L51.3179 16.5666L51.7476 20.8301L46.7803 20.9362Z" fill="#CFCFCF"/>
<path fill-rule="evenodd" clip-rule="evenodd" d="M105.665 11.3594H92.9429L86.0264 26.6528H98.7484C108.924 26.7377 113.064 22.7711 114.437 19.7379C115.966 16.3653 114.646 11.3594 105.665 11.3594ZM106.985 18.7516C106.011 22.5802 100.414 22.8348 98.5183 22.8348H96.2652L99.608 15.188H101.861C103.914 15.1774 107.793 15.5804 106.985 18.7516Z" fill="#CFCFCF"/>
<path fill-rule="evenodd" clip-rule="evenodd" d="M130.606 11.2529L124.255 17.6482L122.118 11.359H114.332L119.414 23.0147L114.363 28.0736H121.028C121.028 28.0736 122.327 27.9145 122.862 27.7236C123.396 27.5327 124.161 26.7373 124.161 26.7373L139.367 11.2741L130.606 11.2529Z" fill="#CFCFCF"/>
</g>
<defs>
<clipPath id="clip0_1081_8820">
<rect width="140" height="29" fill="white"/>
</clipPath>
</defs>
</svg>
