<svg width="177" height="26" viewBox="0 0 177 26" fill="none" xmlns="http://www.w3.org/2000/svg">
<path d="M3.02376 23.0302C1.07927 21.0334 0.0891969 17.234 0 13.379V12.4916C0.0713575 8.64587 1.07927 4.83716 3.02376 2.82187C6.65407 -0.940622 22.6649 -0.940622 26.2952 2.82187C30.3001 6.99111 30.3001 18.8702 26.2952 23.021C22.6649 26.7927 6.65407 26.7927 3.02376 23.0302Z" fill="#CFCFCF"/>
<path d="M16.5998 5.90027C21.2558 5.70614 25.4302 4.83716 25.4302 4.83716L21.5056 12.3529H13.5225L16.5998 5.90027Z" fill="white"/>
<path d="M12.8264 20.0073C10.0613 20.146 7.13566 20.146 4.59354 20.8763C6.05637 16.0877 5.90472 9.72748 4.44189 4.70776C7.13566 5.25319 9.98104 5.65994 12.8353 5.65994V20.0073" fill="white"/>
<path d="M16.7511 20.0811L13.4419 13.2217H21.5766C21.5766 13.2217 24.199 18.3246 25.2782 20.8668C22.4954 20.4786 20.4884 19.9701 16.7511 20.0811Z" fill="white"/>
<path d="M42.0076 14.5503H41.241V21.15H38.3232V5.69922H41.241V12.5417L41.9225 12.2327L46.0328 5.69922H49.3551L45.0106 12.1886L43.8605 13.0273L45.0531 13.8882L50.0153 21.15H46.4162L42.0076 14.5503Z" fill="#CFCFCF"/>
<path d="M51.5298 5.69922H60.3681V8.39205H54.4475V11.9899H59.8357V14.6827H54.4475V18.4572H60.4746V21.15H51.5298V5.69922Z" fill="#CFCFCF"/>
<path d="M69.0882 17.0005C69.0882 16.5296 68.9178 16.1471 68.577 15.8528C68.2505 15.5585 67.8316 15.2936 67.3205 15.0581C66.8236 14.808 66.2769 14.5578 65.6806 14.3077C65.0985 14.0428 64.5519 13.7264 64.0407 13.3586C63.5438 12.976 63.1249 12.5051 62.7842 11.9459C62.4576 11.3868 62.2944 10.6731 62.2944 9.80489C62.2944 9.05443 62.4151 8.40696 62.6564 7.86248C62.8978 7.30333 63.2385 6.83981 63.6787 6.47194C64.133 6.10406 64.6655 5.83183 65.276 5.65526C65.8865 5.47867 66.568 5.39038 67.3205 5.39038C68.1866 5.39038 69.003 5.47131 69.7698 5.63318C70.5364 5.78033 71.1684 6.00106 71.6653 6.29535L70.7496 8.83372C70.4367 8.62767 69.9684 8.44372 69.3437 8.28187C68.719 8.10529 68.0446 8.01703 67.3205 8.01703C66.639 8.01703 66.1137 8.15678 65.7445 8.43643C65.3896 8.716 65.2121 9.09119 65.2121 9.56208C65.2121 10.0035 65.3754 10.3714 65.7019 10.6657C66.0427 10.96 66.4615 11.2322 66.9585 11.4824C67.4695 11.7326 68.0162 11.99 68.5983 12.255C69.1947 12.5198 69.7413 12.8436 70.2381 13.2261C70.7496 13.594 71.1684 14.0576 71.4945 14.6167C71.8353 15.1612 72.006 15.8454 72.006 16.6695C72.006 17.4935 71.8708 18.2072 71.6012 18.8105C71.3454 19.3991 70.9768 19.892 70.4939 20.2893C70.0249 20.6866 69.4502 20.9809 68.7687 21.1722C68.1014 21.3636 67.363 21.4592 66.5538 21.4592C65.4889 21.4592 64.5519 21.3562 63.7426 21.1501C62.9333 20.9442 62.337 20.7381 61.9536 20.5321L62.8907 17.9497C63.0468 18.0379 63.2456 18.1336 63.487 18.2366C63.7426 18.3396 64.0265 18.4352 64.3389 18.5236C64.6513 18.6118 64.9778 18.6854 65.3186 18.7443C65.6735 18.8031 66.0356 18.8325 66.4047 18.8325C67.2708 18.8325 67.931 18.6854 68.3853 18.3911C68.8539 18.0821 69.0882 17.6185 69.0882 17.0005Z" fill="#CFCFCF"/>
<path d="M80.3819 17.0005C80.3819 16.5296 80.2112 16.1471 79.8704 15.8528C79.5443 15.5585 79.1255 15.2936 78.614 15.0581C78.1172 14.808 77.5708 14.5578 76.9743 14.3077C76.3924 14.0428 75.8454 13.7264 75.3346 13.3586C74.8378 12.976 74.419 12.5051 74.0782 11.9459C73.7514 11.3868 73.5883 10.6731 73.5883 9.80489C73.5883 9.05443 73.7089 8.40696 73.95 7.86248C74.1918 7.30333 74.5325 6.83981 74.9723 6.47194C75.4266 6.10406 75.959 5.83183 76.5694 5.65526C77.1799 5.47867 77.8614 5.39038 78.614 5.39038C79.4802 5.39038 80.2969 5.47131 81.0634 5.63318C81.83 5.78033 82.462 6.00106 82.9589 6.29535L82.0432 8.83372C81.731 8.62767 81.262 8.44372 80.6377 8.28187C80.0126 8.10529 79.338 8.01703 78.614 8.01703C77.9325 8.01703 77.4071 8.15678 77.0384 8.43643C76.683 8.716 76.506 9.09119 76.506 9.56208C76.506 10.0035 76.6691 10.3714 76.9959 10.6657C77.3367 10.96 77.7555 11.2322 78.2523 11.4824C78.7631 11.7326 79.3102 11.99 79.892 12.255C80.4885 12.5198 81.0349 12.8436 81.5317 13.2261C82.0432 13.594 82.462 14.0576 82.7881 14.6167C83.1289 15.1612 83.2996 15.8454 83.2996 16.6695C83.2996 17.4935 83.1644 18.2072 82.8948 18.8105C82.6397 19.3991 82.2704 19.892 81.7875 20.2893C81.3192 20.6866 80.7443 20.9809 80.0628 21.1722C79.3952 21.3636 78.6565 21.4592 77.8475 21.4592C76.7827 21.4592 75.8454 21.3562 75.0364 21.1501C74.2273 20.9442 73.6308 20.7381 73.2476 20.5321L74.1841 17.9497C74.3409 18.0379 74.5395 18.1336 74.7806 18.2366C75.0364 18.3396 75.32 18.4352 75.6329 18.5236C75.9451 18.6118 76.2712 18.6854 76.612 18.7443C76.9673 18.8031 77.329 18.8325 77.6983 18.8325C78.5645 18.8325 79.2244 18.6854 79.6788 18.3911C80.1478 18.0821 80.3819 17.6185 80.3819 17.0005Z" fill="#CFCFCF"/>
<path d="M85.2432 5.69922H94.082V8.39205H88.1609V11.9899H93.5496V14.6827H88.1609V18.4572H94.1879V21.15H85.2432V5.69922Z" fill="#CFCFCF"/>
<path d="M106.401 9.29708C106.401 9.67965 106.351 10.0622 106.252 10.4448C106.166 10.8274 106.017 11.1806 105.805 11.5043C105.592 11.8133 105.315 12.0929 104.974 12.3431C104.633 12.5785 104.222 12.7551 103.739 12.8728V13.0053C104.165 13.0788 104.569 13.2039 104.953 13.3805C105.336 13.557 105.67 13.7999 105.954 14.1089C106.238 14.4179 106.458 14.7931 106.614 15.2345C106.785 15.676 106.87 16.1984 106.87 16.8017C106.87 17.5964 106.706 18.288 106.38 18.8766C106.053 19.4504 105.613 19.9213 105.059 20.2892C104.52 20.6571 103.902 20.9293 103.206 21.1059C102.511 21.2824 101.794 21.3708 101.055 21.3708C100.814 21.3708 100.502 21.3708 100.118 21.3708C99.7491 21.3708 99.3443 21.356 98.9046 21.3266C98.4781 21.3119 98.0384 21.2824 97.584 21.2383C97.1436 21.1942 96.7394 21.128 96.3701 21.0396V5.8096C96.6398 5.76545 96.945 5.72131 97.2858 5.67717C97.6405 5.63302 98.0168 5.59624 98.4147 5.56681C98.8119 5.53738 99.2167 5.51531 99.6286 5.50059C100.054 5.48588 100.473 5.47852 100.885 5.47852C101.58 5.47852 102.255 5.53738 102.908 5.6551C103.576 5.7581 104.165 5.9494 104.676 6.22898C105.201 6.50856 105.62 6.89851 105.932 7.3988C106.244 7.89915 106.401 8.53189 106.401 9.29708ZM101.077 18.8766C101.431 18.8766 101.772 18.8324 102.099 18.7441C102.44 18.6558 102.738 18.5234 102.994 18.3468C103.249 18.1555 103.455 17.9201 103.611 17.6405C103.767 17.3609 103.845 17.0298 103.845 16.6472C103.845 16.1616 103.753 15.779 103.569 15.4995C103.384 15.2199 103.143 15.0065 102.845 14.8594C102.546 14.6975 102.213 14.5944 101.843 14.5503C101.475 14.5062 101.105 14.4841 100.736 14.4841H99.1812V18.7441C99.2523 18.7735 99.3659 18.7956 99.522 18.8103C99.6781 18.825 99.8411 18.8397 100.012 18.8545C100.197 18.8545 100.381 18.8618 100.566 18.8766C100.764 18.8766 100.934 18.8766 101.077 18.8766ZM100.118 12.1886C100.317 12.1886 100.544 12.1812 100.8 12.1665C101.07 12.1517 101.29 12.1297 101.46 12.1002C101.999 11.9237 102.461 11.6588 102.845 11.3057C103.242 10.9525 103.44 10.489 103.44 9.91509C103.44 9.53253 103.37 9.21612 103.228 8.96595C103.086 8.71584 102.894 8.51716 102.653 8.37004C102.426 8.22285 102.163 8.11986 101.865 8.061C101.567 8.00214 101.254 7.97275 100.928 7.97275C100.558 7.97275 100.217 7.98004 99.9052 7.99477C99.593 8.00951 99.3519 8.03153 99.1812 8.061V12.1886H100.118Z" fill="#CFCFCF"/>
<path d="M108.484 13.4248C108.484 10.8497 109.031 8.87048 110.124 7.48728C111.217 6.08935 112.779 5.39038 114.81 5.39038C115.874 5.39038 116.805 5.58168 117.6 5.96427C118.395 6.34686 119.055 6.89131 119.58 7.59764C120.106 8.30397 120.496 9.15005 120.752 10.136C121.007 11.1219 121.135 12.2181 121.135 13.4248C121.135 15.9999 120.581 17.9864 119.474 19.3844C118.38 20.7676 116.826 21.4592 114.81 21.4592C113.731 21.4592 112.794 21.2679 111.999 20.8853C111.203 20.5027 110.543 19.9583 110.018 19.2519C109.507 18.5456 109.123 17.6995 108.868 16.7136C108.612 15.7277 108.484 14.6314 108.484 13.4248ZM111.551 13.4248C111.551 14.2047 111.615 14.9257 111.743 15.5879C111.87 16.2353 112.063 16.7945 112.318 17.2654C112.587 17.7363 112.928 18.1042 113.34 18.369C113.752 18.6339 114.242 18.7663 114.81 18.7663C115.846 18.7663 116.649 18.347 117.217 17.5082C117.785 16.6695 118.068 15.3083 118.068 13.4248C118.068 12.6743 118.004 11.9754 117.877 11.3279C117.763 10.6804 117.578 10.1139 117.323 9.62831C117.067 9.14269 116.734 8.76749 116.322 8.50258C115.91 8.22301 115.406 8.08326 114.81 8.08326C113.773 8.08326 112.971 8.51731 112.403 9.3855C111.836 10.2389 111.551 11.5854 111.551 13.4248Z" fill="#CFCFCF"/>
<path d="M131.59 14.6827H126.138V21.15H123.221V5.69922H126.138V11.9899H131.59V5.69922H134.508V21.15H131.59V14.6827Z" fill="#CFCFCF"/>
<path d="M148.657 13.1376L148.976 10.0696H148.849L147.933 12.5417L144.76 18.3026H143.822L140.479 12.5196L139.542 10.0696H139.435L139.861 13.1156V21.15H137.093V5.69922H139.755L143.737 12.7624L144.44 14.5282H144.525L145.164 12.7183L148.934 5.69922H151.575V21.15H148.657V13.1376Z" fill="#CFCFCF"/>
<path d="M154.126 5.69922H162.964V8.39205H157.044V11.9899H162.432V14.6827H157.044V18.4572H163.071V21.15H154.126V5.69922Z" fill="#CFCFCF"/>
<path d="M165.253 5.85375C165.58 5.79488 165.927 5.74338 166.297 5.69924C166.68 5.64038 167.056 5.59624 167.425 5.56681C167.809 5.53738 168.178 5.51531 168.533 5.50059C168.888 5.48588 169.214 5.47852 169.513 5.47852C170.208 5.47852 170.89 5.54473 171.557 5.67717C172.239 5.8096 172.842 6.03769 173.368 6.36142C173.907 6.68515 174.333 7.13396 174.645 7.70783C174.972 8.26698 175.135 8.97331 175.135 9.82684C175.135 11.0923 174.851 12.1223 174.283 12.9169C173.715 13.7116 172.956 14.2634 172.004 14.5724L173.048 15.2566L176.455 21.15H173.09L169.704 15.1022L168.171 14.8152V21.15H165.253V5.85375ZM169.726 8.17136C169.428 8.17136 169.129 8.17872 168.831 8.19346C168.547 8.20812 168.327 8.23759 168.171 8.28171V12.7625H169.406C170.216 12.7625 170.862 12.5711 171.344 12.1886C171.827 11.8059 172.069 11.1732 172.069 10.2904C172.069 9.62815 171.869 9.11314 171.472 8.74524C171.074 8.36267 170.492 8.17136 169.726 8.17136Z" fill="#CFCFCF"/>
<path d="M112.392 3.82941C112.954 3.82941 113.41 3.35759 113.41 2.77555C113.41 2.19351 112.954 1.72168 112.392 1.72168C111.831 1.72168 111.375 2.19351 111.375 2.77555C111.375 3.35759 111.831 3.82941 112.392 3.82941Z" fill="#CFCFCF"/>
<path d="M117.12 3.80183C117.681 3.80183 118.137 3.33 118.137 2.74796C118.137 2.16593 117.681 1.69409 117.12 1.69409C116.558 1.69409 116.103 2.16593 116.103 2.74796C116.103 3.33 116.558 3.80183 117.12 3.80183Z" fill="#CFCFCF"/>
</svg>
