<svg width="209" height="48" viewBox="0 0 209 48" fill="none" xmlns="http://www.w3.org/2000/svg">
<g clip-path="url(#clip0_326_7824)">
<path d="M207.119 0H46.3281V16.1143H207.119V0Z" fill="#CFCFCF"/>
<path d="M46.3281 32.4342V47.3142H74.9611C74.9611 47.3142 74.9611 44.4342 74.9611 44.1599C74.9611 43.8171 74.8218 43.7485 74.5431 43.7485C74.2645 43.7485 55.8028 43.7485 55.8028 43.7485V38.4685H72.0351V35.3142C72.0351 35.0399 71.8958 34.9028 71.6171 34.9028H55.8028V29.4856H74.9611V26.3314C74.9611 26.0571 74.8218 25.9199 74.5431 25.9199H52.9465C49.2541 25.9199 46.3281 28.8685 46.3281 32.4342Z" fill="#CFCFCF"/>
<path d="M85.4803 25.9199H107.356C107.634 25.9199 107.774 25.9885 107.774 26.3314V29.4856H88.3367V43.4056H104.012V38.4685H94.2583V35.3142C94.2583 35.0399 94.3977 34.9028 94.6763 34.9028C97.1147 34.9028 107.077 34.9028 107.216 34.9028C107.495 34.9028 107.634 35.0399 107.634 35.3142V47.3142H78.7227V32.5028C78.862 28.8685 81.788 25.9199 85.4803 25.9199Z" fill="#CFCFCF"/>
<path d="M118.711 25.9199H140.587C140.865 25.9199 141.005 25.9885 141.005 26.3314V29.4856H121.568V43.4056H137.243V38.4685H127.489C127.489 38.4685 127.489 35.5885 127.489 35.3142C127.489 35.0399 127.629 34.9028 127.907 34.9028C130.346 34.9028 140.308 34.9028 140.447 34.9028C140.726 34.9028 140.865 35.0399 140.865 35.3142V47.3142H112.023V32.5028C112.093 28.8685 115.089 25.9199 118.711 25.9199Z" fill="#CFCFCF"/>
<path d="M145.395 32.4342V47.3142H174.028V44.1599C174.028 43.8171 173.888 43.7485 173.61 43.7485C173.331 43.7485 154.869 43.7485 154.869 43.7485V38.4685H171.102V35.3142C171.102 35.0399 170.962 34.9028 170.684 34.9028H154.939V29.4856H174.167V26.3314C174.167 26.0571 174.028 25.9199 173.749 25.9199H152.013C148.39 25.9199 145.395 28.8685 145.395 32.4342Z" fill="#CFCFCF"/>
<path d="M0 25.92H31.559V29.9658H14.839V34.56H31.559V38.6743H14.9087V43.3372H31.559V47.3143H0V25.92Z" fill="#CFCFCF"/>
<path d="M201.475 25.9199C204.68 25.9199 207.188 29.0742 207.188 32.1599C207.188 35.3142 204.61 38.3999 201.475 38.3999H198.897L208.651 46.5599C208.651 46.5599 209.626 47.3142 208.581 47.3142H198.27C197.852 47.3142 197.574 47.0399 197.156 46.7656C197.504 47.0399 187.402 38.4685 187.402 38.4685V47.3828H177.928V32.5028C177.928 28.8685 180.854 25.9885 184.546 25.9885H201.475V25.9199ZM200.082 34.9028C201.057 34.9028 202.52 33.9428 202.52 32.1599C202.52 30.2399 201.196 29.4171 200.082 29.4171H187.402V34.8342L200.082 34.9028Z" fill="#CFCFCF"/>
</g>
<defs>
<clipPath id="clip0_326_7824">
<rect width="209" height="48" fill="white"/>
</clipPath>
</defs>
</svg>
