<svg width="108" height="31" viewBox="0 0 108 31" fill="none" xmlns="http://www.w3.org/2000/svg">
<path d="M4.92616 23.1647C4.92616 24.5053 4.92616 25.7064 4.92616 27.0577C6.12205 26.9826 7.28503 27.004 8.40411 26.811C10.1705 26.5 10.6203 25.6313 10.0608 23.8833C11.6736 23.8833 13.2645 23.8833 14.8663 23.8833C15.7989 25.9638 15.0089 28.3231 12.9243 29.5242C11.8382 30.1463 10.6423 30.5002 9.39154 30.5109C6.31954 30.5538 3.24754 30.5216 0.0109688 30.5216C-2.67822e-06 24.5374 0.0109714 18.5854 0 12.5691C0.3072 12.5262 0.559532 12.4618 0.811875 12.4618C3.18171 12.4511 5.54057 12.4404 7.9104 12.4618C9.40251 12.4726 10.8178 12.7621 12.0137 13.7166C13.6923 15.0571 14.2629 17.5237 13.2645 19.3898C12.9463 19.9689 12.3867 20.43 11.9259 20.977C13.056 21.2665 14.0544 21.8456 14.7237 23.1433C13.0011 23.1433 11.4213 23.1433 9.84137 23.1433C8.22856 23.1647 6.61576 23.1647 4.92616 23.1647ZM4.89326 19.7866C6.10011 19.808 7.18628 19.8295 8.21759 19.4434C9.01851 19.1431 9.38057 18.6069 9.35863 17.8562C9.33669 17.1269 8.91977 16.6122 8.10788 16.3655C7.05462 16.0545 5.9904 16.0974 4.89326 16.2261C4.89326 17.4165 4.89326 18.5425 4.89326 19.7866Z" fill="#CFCFCF"/>
<path d="M91.4906 30.6396C91.4906 28.2802 91.4906 26.1246 91.4906 23.9047C93.0814 23.9047 94.6397 23.9047 96.3069 23.9047C96.3069 24.8484 96.3069 25.7922 96.3069 26.7895C98.6554 26.9933 100.718 26.6716 102.089 24.7305C103.406 22.8644 103.603 20.8054 102.418 18.8214C101.091 16.6014 98.8963 16.0545 96.318 16.1939C96.318 18.5425 96.318 20.8375 96.318 23.1754C94.6834 23.1754 93.1586 23.1754 91.458 23.1754C91.458 19.6471 91.458 16.1188 91.458 12.5584C91.6989 12.5262 91.842 12.4833 91.9843 12.4833C94.2334 12.4833 96.4937 12.4404 98.7429 12.494C102.901 12.5905 106.467 15.2287 107.586 18.9608C109.166 24.2479 105.611 29.7602 100.005 30.4144C97.2292 30.7254 94.398 30.5752 91.4906 30.6396Z" fill="#CFCFCF"/>
<path d="M79.214 12.4402C80.3331 12.4938 81.4632 12.4831 82.5823 12.6118C86.9051 13.1158 89.0334 17.856 86.51 21.3521C85.6652 22.5211 84.5023 23.186 82.9882 23.1752C80.2453 23.1645 77.5025 23.1752 74.7706 23.1752C74.5512 23.1752 74.3426 23.1752 74.0684 23.1752C74.0684 19.5933 74.0684 16.0865 74.0684 12.4509C75.6044 12.4509 77.0966 12.4509 78.5887 12.4509C78.7862 12.4402 78.9946 12.4402 79.214 12.4402ZM78.8081 20.5156C80.1247 20.5478 80.9585 20.4084 81.551 20.0974C82.3738 19.6577 82.67 18.9499 82.6042 18.0812C82.5494 17.2447 82.0775 16.6334 81.2327 16.3975C80.4537 16.183 79.6418 16.0436 78.819 16.2366C78.808 17.6737 78.8081 19.0571 78.8081 20.5156Z" fill="#CFCFCF"/>
<path d="M22.0415 23.1325C20.4068 23.1325 18.9147 23.1325 17.4335 23.1325C16.5449 20.5693 17.9602 16.2367 21.0651 14.0811C24.3017 11.829 28.5696 11.711 31.9268 13.8559C35.2512 15.9793 36.7323 20.0653 35.9753 23.111C34.4722 23.111 32.9472 23.111 31.3344 23.111C31.839 20.7516 31.3014 18.7462 29.0742 17.4807C27.3737 16.5048 25.5963 16.5692 23.9725 17.6523C22.0415 18.95 21.4381 20.816 22.0415 23.1325Z" fill="#CFCFCF"/>
<path d="M47.7698 23.1539C45.9815 23.1539 44.2919 23.1539 42.4926 23.1539C40.1776 19.6792 37.8297 16.1724 35.416 12.5476C37.358 12.5476 39.1792 12.5476 41.176 12.5476C42.4048 14.5637 43.7104 16.6871 45.1038 18.9607C46.5849 16.8158 47.726 14.6173 49.1193 12.5154C50.9735 12.5154 52.8386 12.5154 54.8684 12.5154C52.4656 16.0973 50.1287 19.6042 47.7698 23.1539Z" fill="#CFCFCF"/>
<path d="M55.1533 23.111C56.5467 19.5613 57.9291 16.0544 59.3115 12.5261C61.0011 12.5261 62.6358 12.5261 64.3803 12.5261C65.6639 16.0115 66.9476 19.5077 68.2642 23.1003C66.5855 23.1003 65.0057 23.1003 63.2722 23.1003C62.8662 21.5667 62.4383 19.9474 61.9446 18.0706C61.3083 19.883 60.7487 21.4809 60.1673 23.1218C58.5106 23.111 56.8758 23.111 55.1533 23.111Z" fill="#CFCFCF"/>
<path d="M64.7864 27.433C62.7238 27.433 60.716 27.433 58.6205 27.433C58.1816 28.4733 57.7428 29.5028 57.3259 30.4894C55.6143 30.4894 53.9906 30.4894 52.2461 30.4894C53.1458 28.2159 53.9906 26.0496 54.8463 23.8618C59.4324 23.8618 63.9636 23.8618 68.5387 23.8618C69.3835 26.0496 70.2283 28.2266 71.106 30.4894C69.3835 30.4894 67.7377 30.4894 66.0372 30.4894C65.6312 29.4706 65.2143 28.4626 64.7864 27.433Z" fill="#CFCFCF"/>
<path d="M30.9612 23.8725C32.5959 23.8725 34.1649 23.8725 35.7338 23.8725C35.4046 27.197 31.5975 30.4679 27.6149 30.8326C22.4474 31.3044 18.4428 27.8298 17.4883 23.8832C18.3002 23.7652 19.1011 23.851 19.891 23.8296C20.681 23.8189 21.4599 23.8296 22.3157 23.8296C23.3361 25.331 24.6965 26.3176 26.6385 26.3176C28.5804 26.3176 29.9847 25.4061 30.9612 23.8725Z" fill="#CFCFCF"/>
<path d="M74.9568 6.44532C75.7907 4.35408 76.6355 2.26283 77.5351 0C78.7859 2.23066 79.9488 4.30045 81.1118 6.37025C80.6839 7.51775 80.278 8.61163 79.872 9.70551C79.7294 10.0809 79.5868 10.4562 79.4441 10.8316C79.3673 10.9817 79.3015 11.1318 79.2247 11.2713C78.2263 11.282 77.2279 11.3034 76.2295 11.3142C75.2201 11.3142 74.2217 11.3034 73.1904 11.2927C73.2563 11.0461 73.2892 10.9388 73.3221 10.8316C73.728 9.80203 74.134 8.78322 74.5289 7.75369C74.6825 7.32471 74.8142 6.88502 74.9568 6.44532Z" fill="#CFCFCF"/>
<path d="M67.7928 6.44532C68.6266 4.35408 69.4714 2.26283 70.371 0C71.6218 2.23066 72.7848 4.30045 73.9477 6.37025C73.5199 7.51775 73.1139 8.61163 72.708 9.70551C72.5653 10.0809 72.4227 10.4562 72.2801 10.8316C72.2033 10.9817 72.1375 11.1318 72.0607 11.2713C71.0623 11.282 70.0639 11.3034 69.0655 11.3142C68.0561 11.3142 67.0577 11.3034 66.0264 11.2927C66.0922 11.0461 66.1251 10.9388 66.158 10.8316C66.564 9.80203 66.9699 8.78322 67.3649 7.75369C67.5185 7.32471 67.6392 6.88502 67.7928 6.44532Z" fill="#CFCFCF"/>
<path d="M60.617 6.44532C61.4508 4.35408 62.2956 2.26283 63.1953 0C64.446 2.23066 65.609 4.30045 66.772 6.37025C66.3441 7.51775 65.9381 8.61163 65.5322 9.70551C65.3896 10.0809 65.2469 10.4562 65.1043 10.8316C65.0275 10.9817 64.9617 11.1318 64.8849 11.2713C63.8865 11.282 62.8881 11.3034 61.8897 11.3142C60.8803 11.3142 59.8819 11.3034 58.8506 11.2927C58.9164 11.0461 58.9493 10.9388 58.9822 10.8316C59.3882 9.80203 59.7941 8.78322 60.1891 7.75369C60.3427 7.32471 60.4744 6.88502 60.617 6.44532Z" fill="#CFCFCF"/>
<path d="M84.1289 23.894C85.8077 26.0389 87.5083 28.2052 89.3623 30.5646C88.2214 30.5646 87.2665 30.5753 86.3228 30.5753C85.3577 30.5753 84.3812 30.5753 83.3828 30.5753C81.9346 28.3554 80.5083 26.1783 79.0161 23.894C80.7387 23.894 82.3515 23.894 84.1289 23.894Z" fill="#CFCFCF"/>
<path d="M78.7423 23.8831C78.7423 26.1244 78.7423 28.2693 78.7423 30.4785C77.1843 30.4785 75.6592 30.4785 74.0684 30.4785C74.0684 28.2908 74.0684 26.1137 74.0684 23.8831C75.6044 23.8831 77.1295 23.8831 78.7423 23.8831Z" fill="#CFCFCF"/>
<path d="M42.7666 23.8618C44.3465 23.8618 45.8715 23.8618 47.4624 23.8618C47.4624 26.071 47.4624 28.2481 47.4624 30.4787C45.9044 30.4787 44.3794 30.4787 42.7666 30.4787C42.7666 28.3231 42.7666 26.1461 42.7666 23.8618Z" fill="#CFCFCF"/>
<path d="M79.2246 11.282C79.3014 11.1318 79.3672 10.9817 79.444 10.8423C79.3672 10.9817 79.3014 11.1318 79.2246 11.282Z" fill="#CFCFCF"/>
</svg>
