<svg width="109" height="38" viewBox="0 0 109 38" fill="none" xmlns="http://www.w3.org/2000/svg">
<path d="M68.0576 17.8127C69.568 17.8127 71.0272 17.8127 72.5888 17.8127C72.5888 20.2063 72.5888 22.5615 72.5888 24.9679C75.5328 24.9679 78.3744 24.9679 81.3312 24.9679C81.4336 22.5999 81.3311 20.2575 81.3823 17.8383C82.9183 17.6847 84.416 17.7871 85.9648 17.7615C85.9648 24.1871 85.9648 30.4847 85.9648 36.8847C84.4544 37.0127 82.944 36.9487 81.3568 36.9231C81.3568 34.2607 81.3568 31.7007 81.3568 29.0895C78.4256 29.0895 75.584 29.0895 72.6016 29.0895C72.5504 30.3695 72.5888 31.6495 72.576 32.9423C72.576 34.2351 72.576 35.5407 72.576 36.8975C71.0528 36.8975 69.5935 36.8975 68.1343 36.8975C67.9551 36.2703 67.8784 20.3087 68.0576 17.8127Z" fill="#CFCFCF"/>
<path d="M4.48001 36.9105C2.9696 36.9105 1.5104 36.9105 0 36.9105C0 30.5489 0 24.2257 0 17.8385C1.4592 17.8385 2.9184 17.8385 4.48001 17.8385C4.48001 20.1809 4.48001 22.5105 4.48001 24.9553C5.03041 24.9553 5.4784 24.9553 5.9136 24.9553C6.7072 24.9553 7.50079 24.9169 8.29439 24.9681C8.92159 25.0065 9.26719 24.7761 9.57439 24.2257C10.6496 22.2673 11.7888 20.3473 12.8512 18.3889C13.1072 17.9153 13.4016 17.7617 13.9136 17.7617C15.4112 17.7873 16.9088 17.7745 18.5728 17.7745C18.3168 18.2609 18.1376 18.6193 17.9328 18.9649C16.5632 21.3713 15.2064 23.7777 13.7984 26.1585C13.4144 26.7985 13.4144 27.2977 13.8112 27.9377C15.4368 30.6513 16.9984 33.4033 18.5728 36.1297C18.7008 36.3473 18.7904 36.5649 18.944 36.8849C17.2032 36.8849 15.552 36.8849 13.8368 36.8849C13.0816 35.5793 12.3008 34.2353 11.52 32.8913C10.9184 31.8417 10.3296 30.7793 9.72802 29.7297C9.54882 29.4097 9.35682 29.1153 8.89602 29.1281C7.48801 29.1537 6.06719 29.1409 4.55679 29.1409C4.42879 31.7393 4.56961 34.2993 4.48001 36.9105Z" fill="#CFCFCF"/>
<path d="M27.8529 17.8126C27.8529 18.171 27.8529 18.4526 27.8529 18.7342C27.8529 21.9598 27.8529 25.1854 27.8529 28.411C27.8529 30.2542 28.6721 31.6238 30.2977 32.4558C33.4209 34.0686 36.5953 31.419 36.5953 28.9102C36.5953 26.8238 36.6209 24.7374 36.6209 22.651C36.6209 21.0766 36.6209 19.5022 36.6209 17.9406C37.2865 17.7102 40.4097 17.6974 41.2161 17.9278C41.2289 18.1454 41.2673 18.4014 41.2673 18.6446C41.2673 21.8958 41.2929 25.147 41.2673 28.3982C41.2545 30.459 40.6657 32.3534 39.3857 33.9918C36.2625 38.011 30.6305 38.715 26.6369 35.5278C24.6017 33.9022 23.3857 31.7646 23.3217 29.1278C23.2449 25.4798 23.2833 21.8318 23.2705 18.1838C23.2705 18.0814 23.3089 17.9662 23.3473 17.8254C24.8193 17.8126 26.2785 17.8126 27.8529 17.8126Z" fill="#CFCFCF"/>
<path d="M108.352 17.8253C107.917 19.0797 107.52 20.2317 107.123 21.3709C107.085 21.4733 107.008 21.5629 106.918 21.7165C103.808 21.7165 100.685 21.7165 97.472 21.7165C97.472 22.8429 97.472 23.8925 97.472 25.0573C99.8528 25.0573 102.208 25.0573 104.627 25.0573C104.627 26.4269 104.627 27.6813 104.627 29.0381C102.234 29.0381 99.8655 29.0381 97.4591 29.0381C97.4591 30.4333 97.4591 31.7133 97.4591 33.1085C97.7663 33.1213 98.0608 33.1469 98.368 33.1469C100.89 33.1469 103.411 33.1469 105.92 33.1469C106.982 33.1469 106.982 33.1469 107.354 34.1325C107.674 35.0029 107.994 35.8733 108.352 36.8333C108.109 36.8717 107.904 36.9485 107.699 36.9485C102.912 36.9613 98.1375 36.9485 93.3503 36.9485C93.2095 36.9485 93.0815 36.9101 92.9023 36.8845C92.9023 30.5357 92.9023 24.1997 92.9023 17.8125C98.0095 17.8253 103.117 17.8253 108.352 17.8253Z" fill="#CFCFCF"/>
<path d="M63.3854 20.6928C62.5534 21.832 61.7086 22.9968 60.7614 24.2768C59.187 22.2416 57.2414 21.3072 54.7838 21.704C53.4014 21.9216 52.3262 22.6896 51.4814 23.752C49.7406 25.928 49.779 29.2432 51.9166 31.4064C53.1838 32.6864 54.7582 33.1728 56.5502 33.0064C58.3294 32.84 59.5838 31.7776 60.7358 30.3952C61.6446 31.624 62.5022 32.7632 63.3342 33.8896C61.9006 36.2576 57.779 37.9344 54.3614 37.384C49.459 36.5904 46.0158 32.8016 45.683 28.0272C45.3758 23.6496 47.8334 19.4896 52.2878 17.8256C56.3966 16.2896 60.9662 17.6848 63.3854 20.6928Z" fill="#CFCFCF"/>
<path d="M36.5569 5.43515C35.0465 5.42235 33.9585 4.28315 33.9585 2.72155C33.9585 1.08315 35.1105 0.020751 36.8513 0.046351C38.2977 0.059151 39.3729 1.27515 39.3601 2.84955C39.3601 4.37275 38.1953 5.44795 36.5569 5.43515Z" fill="#CFCFCF"/>
<path d="M27.7374 5.43512C26.3038 5.48632 25.0749 4.43672 25.1005 2.72152C25.1261 1.22392 26.2909 0.161518 27.7501 0.00791761C29.0814 -0.120082 30.5406 1.32632 30.515 2.72152C30.4766 4.14232 29.363 5.63992 27.7374 5.43512Z" fill="#CFCFCF"/>
<path d="M25.101 11.7072C25.1266 9.94083 26.2274 8.87843 27.6994 8.89123C29.2738 8.90403 30.4642 9.78723 30.4898 11.7072C30.5154 13.1024 29.2994 14.408 27.9682 14.3824C26.381 14.344 25.0754 13.1664 25.101 11.7072Z" fill="#CFCFCF"/>
<path d="M39.3728 11.5022C39.3088 13.3966 38.2848 14.203 36.7872 14.3566C35.6352 14.4846 33.856 13.307 33.9456 11.6174C34.0352 10.1582 34.8672 8.99342 36.6592 8.86542C38.0544 8.77582 39.6032 10.3758 39.3728 11.5022Z" fill="#CFCFCF"/>
</svg>
