<svg width="170" height="26" viewBox="0 0 170 26" fill="none" xmlns="http://www.w3.org/2000/svg">
<path d="M166.246 2.64397V1.83046H166.728C166.977 1.83046 167.293 1.91366 167.293 2.22797C167.293 2.57001 166.95 2.65321 166.645 2.65321H166.246V2.64397ZM165.737 4.2525H166.246V3.06921H166.645L167.32 4.2525H167.969L167.209 2.98601C167.635 2.90281 167.885 2.64397 167.885 2.22797C167.885 1.58086 167.32 1.38672 166.811 1.38672H165.793L165.737 4.2525ZM164.608 2.81961C164.608 1.63632 165.598 0.647165 166.784 0.647165C167.969 0.647165 168.96 1.63632 168.96 2.81961C168.96 4.0029 167.969 4.99206 166.784 4.99206C165.57 4.98281 164.608 4.0029 164.608 2.81961ZM164.209 2.81961C164.209 4.22477 165.366 5.32486 166.746 5.32486C168.126 5.32486 169.284 4.22477 169.284 2.81961C169.284 1.41446 168.126 0.28663 166.746 0.28663C165.311 0.249652 164.209 1.40521 164.209 2.81961Z" fill="#CFCFCF"/>
<path d="M126.411 16.7971V18.9049H150.042V17.9804H163.561V16.7971H126.411Z" fill="#CFCFCF"/>
<path d="M126.411 20.3193V22.4271H150.042V21.5581H163.561V20.3193H126.411Z" fill="#CFCFCF"/>
<path d="M163.617 23.8969H126.411V25.1356H163.617V23.8969Z" fill="#CFCFCF"/>
<path d="M135.273 0.249634V10.8438H135.218L128.051 0.249634H126.468V12.6834H127.708V1.99683H127.736L134.968 12.6834H136.551V0.249634H135.273Z" fill="#CFCFCF"/>
<path d="M135.533 0.249634V1.40519H141.829V12.6834H143.097V1.40519H147.866V0.249634H135.533Z" fill="#CFCFCF"/>
<path d="M163.57 3.66089H161.45V12.6834H163.57V3.66089Z" fill="#CFCFCF"/>
<path d="M152.163 3.66089H150.042V12.6834H152.163V3.66089Z" fill="#CFCFCF"/>
<path d="M161.107 0.249634L155.57 9.09658H158.061L163.561 0.249634H161.107Z" fill="#CFCFCF"/>
<path d="M150.042 0.249634L155.57 9.09658H158.061L152.551 0.249634H150.042Z" fill="#CFCFCF"/>
<path d="M88.5586 25.2743H94.8833L113.874 0H107.523L88.5586 25.2743Z" fill="#CFCFCF"/>
<path d="M101.235 8.44942L94.8833 0H88.5586L94.8833 8.44942H101.235Z" fill="#CFCFCF"/>
<path d="M101.235 16.8804L107.523 25.2743H113.874L107.523 16.8804H101.235Z" fill="#CFCFCF"/>
<path d="M0 25.2751H4.49089V14.7919H15.6395V10.7058H4.49089V4.08678H15.6395V0.000732422H0V25.2751Z" fill="#CFCFCF"/>
<path d="M23.5195 25.2743H39.659V21.216H28.0289V14.3751H39.659V10.2798H28.0289V4.08604H39.659V0H23.5195V25.2743Z" fill="#CFCFCF"/>
<path d="M82.7157 0H78.1973V25.2836H82.7157V0Z" fill="#CFCFCF"/>
<path d="M65.8354 18.5444L53.4646 0H47.5107V25.2743H52.0294V6.67449L64.6132 25.2743H70.3171V0H65.8354V18.5444Z" fill="#CFCFCF"/>
</svg>
