<svg width="121" height="30" viewBox="0 0 121 30" fill="none" xmlns="http://www.w3.org/2000/svg">
<path fill-rule="evenodd" clip-rule="evenodd" d="M38.7704 29.0927C38.8871 25.3149 38.8093 20.8149 38.7704 16.9445C38.7704 16.2223 38.6926 16.3334 39.0817 15.889C40.4823 14.2408 43.5365 13.8334 44.2368 16.2223C44.5092 17.1667 44.373 20.2778 44.3925 21.463C44.3925 23.2408 44.4119 25.0186 44.4119 26.7964C44.4119 27.7779 44.3536 28.389 44.9761 28.9816C46.3767 30.2964 50.5397 29.5556 51.9987 29.1112C52.0571 27.3519 51.9987 25.5001 51.9987 23.7223V17.0001C51.9987 16.3334 51.9209 16.3704 52.31 15.9445C54.0219 14.0186 56.9204 14.0371 57.5235 16.2038C57.7958 17.1667 57.6597 20.2593 57.6597 21.4445C57.6597 23.2223 57.6791 25.0001 57.6791 26.7778C57.6791 27.7408 57.6208 28.3704 58.2238 28.9445C59.7412 30.3704 63.5151 29.389 65.2465 29.0927C65.3632 26.1667 65.2465 23.0371 65.2465 20.0927C65.2465 17.2778 65.6355 14.2593 64.0987 12.2038C61.92 9.31488 57.5429 8.51858 53.9441 10.3704C52.3683 11.1852 52.1154 11.8519 51.454 12.426C51.0455 11.8704 50.9093 11.6482 50.423 11.2038C49.2363 10.0927 46.9214 9.61118 45.1511 9.62969C43.3031 9.64821 41.241 10.1482 39.8404 11.1667C39.3735 11.5001 38.7121 12.1852 38.6732 12.2038C38.5759 11.2038 38.4786 10.8149 37.8756 10.2778C37.4087 9.85192 36.65 9.66673 35.833 9.61117C34.9965 9.55562 34.0822 9.64821 33.2651 9.77784C32.9733 9.81488 31.1253 10.0927 31.0669 10.2964L31.1447 27.2778C31.1447 28.4816 31.5338 29.0556 32.5064 29.4075C33.4791 29.7593 34.7047 29.7223 35.7746 29.5927C36.4555 29.5741 38.3425 29.2964 38.7704 29.0927Z" fill="#CFCFCF"/>
<path fill-rule="evenodd" clip-rule="evenodd" d="M89.8358 17.1482C89.8163 16.1853 90.789 14.926 91.6838 14.463C94.3684 13.1112 96.1581 15.5186 95.8469 17.1668L89.8358 17.1482ZM90.361 9.87046C89.33 10.1668 88.5908 10.3705 87.7154 10.7779C86.1785 11.5001 84.8168 12.5927 83.8441 13.9445C83.3967 14.5927 82.9687 15.4075 82.6964 16.2593C81.4125 20.2408 82.8131 24.6667 85.0892 26.8149C85.77 27.4445 86.2174 27.8519 87.0929 28.3334C87.8515 28.7408 88.688 29.0927 89.6218 29.3334C93.0456 30.2408 98.7065 30.0556 101.352 27.7779C102.5 26.7779 103.589 24.6482 102.228 22.963C102.072 22.7593 101.138 21.9445 100.652 22.2964C100.555 22.3705 100.457 22.4816 100.341 22.5742C99.1734 23.5556 97.1113 24.2223 95.5162 24.3334C93.3568 24.4816 91.4699 23.8334 90.361 22.2408C90.1276 21.9075 89.6996 21.1297 89.6412 20.6668C90.4194 20.5927 97.656 20.6853 99.0372 20.6297C100.632 20.5742 101.702 20.3149 102.286 19.2593C102.811 18.2779 102.87 16.5371 102.636 15.3519C102.169 12.889 100.477 11.2038 98.4731 10.3334C97.3448 9.85194 96.0609 9.55564 94.6602 9.48157C92.9872 9.42601 91.8978 9.6112 90.361 9.87046Z" fill="#CFCFCF"/>
<path fill-rule="evenodd" clip-rule="evenodd" d="M82.0933 9.88891L76.8603 9.85187C76.7436 8.46298 77.016 6.44446 77.8719 5.81483C78.4361 5.38891 79.1364 5.29632 80.0312 5.42595C80.965 5.57409 81.6848 5.90743 82.0544 5.96298C82.3851 5.31483 82.7353 4.87039 82.7936 3.94447C82.852 3.11113 82.5407 2.40743 82.1322 1.88891C81.393 0.944464 80.0507 0.407428 78.3972 0.185206C74.0396 -0.0184979 71.2967 2.53706 70.1295 5.92595C69.4875 7.7778 69.7015 8.29632 69.468 9.7778C69.1957 9.90743 68.8066 9.92595 68.5148 10.0185C66.978 10.5 66.336 11.7963 66.6667 13.3148C66.8224 14 67.0753 14.2963 67.2893 14.7963L69.6431 14.8148C69.7209 15.4074 69.7015 25.2408 69.7015 26.1482C69.7015 27.0185 69.5848 28 70.0127 28.6667C71.1799 30.5371 75.8293 29.3519 77.3078 29.1111V14.7778C79.1947 14.6667 80.6343 14.9815 81.7237 13.8334C82.638 12.9445 82.9492 11.1482 82.0933 9.88891Z" fill="#CFCFCF"/>
<path fill-rule="evenodd" clip-rule="evenodd" d="M1.61458 22.9262C1.28388 23.3891 0.369566 24.0743 0.233393 25.3151C0.097219 26.5003 0.894809 27.3706 1.51732 27.8336C2.97632 28.9077 5.09674 29.5558 7.39224 29.7595C12.4696 30.2225 16.7493 28.7966 17.6831 24.6484C18.2667 22.0558 17.5663 20.278 15.9323 19.1854C13.0143 17.241 7.80076 17.704 7.25606 16.204C6.82809 15.0003 8.71506 14.8336 9.70719 14.8521C11.8471 14.9077 14.4733 15.5188 16.0879 16.278C16.9633 15.6854 18.1694 13.8891 17.4691 12.3521C15.7572 8.50026 2.39272 7.66693 0.38902 15.0188C0.0972196 16.1114 0.097219 17.3336 0.427926 18.4077C0.778087 19.5188 1.36169 20.1114 2.04256 20.6484C4.84384 22.8151 10.6993 21.8521 10.7188 23.7225C10.7382 25.7966 4.29915 23.8891 3.03468 23.4632C2.5678 23.3151 2.04256 23.0373 1.61458 22.9262Z" fill="#CFCFCF"/>
<path fill-rule="evenodd" clip-rule="evenodd" d="M105.204 22.6854C105.204 23.9261 105.223 25.1669 105.223 26.3891C105.223 27.6669 105.146 28.6669 106.118 29.2224C107.752 30.1669 110.962 29.5558 112.81 29.1113C112.907 26.8891 112.81 23.8335 112.81 21.4632C112.81 21.0372 112.81 20.6113 112.81 20.1854C112.81 19.5373 112.771 19.6113 113.063 19.0928C113.783 17.8706 114.464 16.9076 115.475 16.241C116.993 15.2224 117.946 15.4632 119.911 15.5558C120.436 15.0928 120.883 13.9261 120.942 12.9817C121.02 11.7039 120.689 10.9632 120.008 10.315C118.354 9.01873 115.436 9.50021 113.861 11.6669C113.627 11.9817 113.491 12.2224 113.277 12.5743C113.102 12.8706 112.966 13.241 112.791 13.5187C112.46 12.741 113.433 10.2595 110.631 9.70391C109.134 9.40762 106.566 9.83355 105.165 10.2224L105.204 22.6854Z" fill="#CFCFCF"/>
<path fill-rule="evenodd" clip-rule="evenodd" d="M20.0757 27.3148C20.0757 29.074 21.1067 29.6481 23.052 29.7037C24.1025 29.7407 26.826 29.4259 27.6625 29.0925C27.6625 24.037 27.7014 18.7962 27.643 13.7592C27.6236 12.5185 27.6819 11.1296 26.9232 10.4259C25.5615 9.16662 22.624 9.68514 20.776 10.0925C19.9006 10.2777 19.9978 10.1481 19.9978 10.8148L20.0757 27.3148Z" fill="#CFCFCF"/>
<path fill-rule="evenodd" clip-rule="evenodd" d="M23.3245 0.222134C18.1109 0.814727 18.8307 7.99991 24.5306 7.37028C26.5926 7.14806 28.324 5.51843 27.9738 3.25917C27.6237 1.09251 25.5421 -0.0371249 23.3245 0.222134Z" fill="#CFCFCF"/>
</svg>
