<svg width="93" height="26" viewBox="0 0 93 26" fill="none" xmlns="http://www.w3.org/2000/svg">
<path d="M28.604 24.6449H35.9433L44.4816 0.0439453H37.1166L28.604 24.6449Z" fill="#CFCFCF"/>
<path d="M57.9697 24.636H65.2492L69.0514 13.8025C70.5675 11.1926 73.6077 11.7794 73.051 14.0652L69.3939 24.636H76.9905L80.5961 14.3017C81.5549 11.7094 85.5371 11.5517 84.664 14.617L81.2725 24.636H88.6115L92.7142 12.7428C94.0844 8.7054 89.2538 3.29301 80.9387 9.24839C79.9538 6.52467 75.8511 4.81688 70.3788 8.78422L70.7475 7.16401H63.9217L57.9697 24.636Z" fill="#CFCFCF"/>
<path d="M50.5106 7.15527H43.6251L39.5658 18.777C37.5447 25.3367 44.002 27.5086 50.1595 22.972L49.7484 24.636H56.3085L62.3547 7.16403H55.3322L51.7439 17.1393C50.9046 19.5827 46.2457 20.949 46.9565 17.2181L50.5106 7.15527Z" fill="#CFCFCF"/>
<path d="M11.4673 11.4991L6.9541 24.636H13.8653L14.6532 22.6917C15.0814 25.6431 24.6046 28.1304 29.6916 17.6384C33.691 10.0716 29.1264 2.56606 20.0399 8.08354L22.7719 0H15.4068L11.4673 11.4991L18.8838 12.8216C20.177 11.5779 21.65 11.1751 22.8318 11.9633C24.2277 12.8916 24.0051 15.6153 22.5578 17.4457C21.1875 19.171 19.0037 20.0381 17.7448 19.1885C16.3745 18.2602 16.4516 16.1233 17.8219 14.109C18.1559 13.6098 18.507 13.1806 18.8838 12.8216L11.4673 11.4991Z" fill="#CFCFCF"/>
<path d="M4.62457 14.6783C4.62457 14.6783 5.14698 13.3559 6.08902 14.0478L7.43358 15.2038C7.43358 15.2038 8.1187 15.738 7.96455 14.7134L7.15953 7.63699C7.15953 7.63699 7.01394 6.51599 6.2603 7.26916L1.43876 12.2524C1.43876 12.2524 0.77932 12.9005 1.25891 12.9968L3.20293 12.9793C3.20293 12.9793 4.57318 12.9705 4.00797 14.7396L0.642301 24.6361L0 24.6448L3.44273 14.5732C3.44273 14.5732 3.67397 13.5573 3.00597 13.6099L1.13902 13.6449C0.196977 13.6361 0.154148 12.594 0.787884 11.9809L5.98624 6.62108C6.6371 5.92921 7.63911 6.31455 7.74188 7.24288C7.93885 8.84558 8.63254 15.0199 8.63254 15.0199C8.761 16.0095 7.77614 16.4299 7.10814 15.7468L6.06333 14.871C6.06333 14.871 5.40389 14.1441 5.12128 15.0812L1.86696 24.6361L1.24178 24.6448L4.62457 14.6783Z" fill="#CFCFCF"/>
</svg>
