<svg width="183" height="62" viewBox="0 0 183 62" fill="none" xmlns="http://www.w3.org/2000/svg">
<g clip-path="url(#clip0_1195_8649)">
<path d="M67.6278 57.3698C67.6598 57.3695 67.6915 57.3759 67.7209 57.3885C67.7504 57.4011 67.7768 57.4197 67.7987 57.443C67.8226 57.4685 67.8413 57.4984 67.8535 57.5311C67.8657 57.5638 67.8713 57.5987 67.8699 57.6336V61.0636H71.2178C71.2498 61.0633 71.2816 61.0696 71.311 61.0822C71.3404 61.0948 71.3669 61.1134 71.3887 61.1369C71.4127 61.1623 71.4313 61.1922 71.4436 61.2249C71.4558 61.2576 71.4614 61.2925 71.46 61.3274C71.4605 61.36 71.4544 61.3923 71.4422 61.4226C71.4299 61.4528 71.4118 61.4802 71.3887 61.5033C71.3669 61.5267 71.3404 61.5453 71.311 61.558C71.2816 61.5706 71.2498 61.5769 71.2178 61.5766H67.6278C67.5935 61.5779 67.5593 61.5721 67.5274 61.5595C67.4955 61.5469 67.4666 61.5278 67.4426 61.5033C67.4195 61.4803 67.4013 61.4528 67.3891 61.4226C67.3768 61.3924 67.3708 61.36 67.3713 61.3274V57.6336C67.3699 57.5987 67.3755 57.5638 67.3877 57.5311C67.3999 57.4984 67.4186 57.4685 67.4426 57.443C67.4667 57.4187 67.4956 57.3996 67.5275 57.387C67.5594 57.3743 67.5935 57.3685 67.6278 57.3698Z" fill="#CFCFCF"/>
<path d="M82.4859 61.1368C82.5099 61.1622 82.5286 61.1922 82.5408 61.2249C82.5531 61.2576 82.5587 61.2924 82.5573 61.3274C82.5578 61.36 82.5517 61.3923 82.5394 61.4226C82.5272 61.4528 82.509 61.4802 82.4859 61.5033C82.4619 61.5277 82.433 61.5468 82.4011 61.5594C82.3692 61.572 82.3351 61.5778 82.3009 61.5765H78.7107C78.6786 61.5769 78.6468 61.5706 78.6174 61.558C78.5879 61.5454 78.5614 61.5268 78.5396 61.5033C78.5166 61.4802 78.4984 61.4527 78.4862 61.4225C78.474 61.3923 78.468 61.3599 78.4685 61.3274C78.4671 61.2925 78.4726 61.2576 78.4848 61.2249C78.497 61.1922 78.5156 61.1623 78.5396 61.1368C78.5614 61.1134 78.5879 61.0947 78.6174 61.0821C78.6468 61.0695 78.6786 61.0632 78.7107 61.0636H80.2634V57.8827H78.7107C78.6786 57.8831 78.6468 57.8768 78.6174 57.8642C78.5879 57.8516 78.5614 57.833 78.5396 57.8095C78.5165 57.7864 78.4984 57.759 78.4861 57.7287C78.4739 57.6985 78.4679 57.6661 78.4685 57.6335C78.4671 57.5987 78.4727 57.5638 78.4849 57.5311C78.4971 57.4984 78.5157 57.4685 78.5396 57.443C78.5615 57.4196 78.588 57.401 78.6174 57.3884C78.6469 57.3758 78.6786 57.3695 78.7107 57.3698H82.3009C82.3351 57.3686 82.3692 57.3744 82.4011 57.387C82.4329 57.3996 82.4618 57.4187 82.4859 57.443C82.5099 57.4684 82.5285 57.4984 82.5408 57.5311C82.5531 57.5638 82.5587 57.5986 82.5573 57.6335C82.5578 57.6662 82.5518 57.6985 82.5395 57.7288C82.5272 57.759 82.509 57.7864 82.4859 57.8095C82.4618 57.8339 82.433 57.853 82.4011 57.8656C82.3692 57.8782 82.3351 57.884 82.3009 57.8827H80.7621V61.0636H82.3009C82.3351 61.0623 82.3692 61.0681 82.4011 61.0807C82.433 61.0934 82.4619 61.1125 82.4859 61.1368Z" fill="#CFCFCF"/>
<path d="M93.3845 57.3698C93.4165 57.3695 93.4482 57.3759 93.4776 57.3885C93.507 57.4011 93.5334 57.4197 93.5553 57.4431C93.5782 57.4662 93.5964 57.4936 93.6086 57.5238C93.6208 57.5541 93.6268 57.5864 93.6264 57.619C93.6279 57.6539 93.6223 57.6887 93.6101 57.7215C93.5979 57.7542 93.5792 57.7841 93.5553 57.8095C93.5335 57.8329 93.507 57.8515 93.4776 57.8641C93.4482 57.8768 93.4165 57.8831 93.3845 57.8827H90.0365V59.2167H93.3845C93.4165 59.2165 93.4482 59.2228 93.4776 59.2354C93.507 59.248 93.5334 59.2666 93.5553 59.29C93.5783 59.313 93.5964 59.3405 93.6086 59.3707C93.6208 59.401 93.6269 59.4333 93.6264 59.4659C93.6278 59.5008 93.6223 59.5356 93.6101 59.5683C93.5979 59.6011 93.5792 59.631 93.5553 59.6564C93.5335 59.6798 93.507 59.6984 93.4776 59.7111C93.4482 59.7237 93.4165 59.73 93.3845 59.7297H90.0365V61.3128C90.0379 61.3477 90.0324 61.3825 90.0202 61.4153C90.008 61.448 89.9893 61.4779 89.9654 61.5033C89.9435 61.5268 89.917 61.5454 89.8876 61.558C89.8581 61.5706 89.8263 61.5769 89.7943 61.5766C89.76 61.5779 89.7259 61.5721 89.694 61.5595C89.6621 61.5469 89.6333 61.5278 89.6092 61.5033C89.5852 61.478 89.5664 61.448 89.5542 61.4153C89.5419 61.3826 89.5364 61.3477 89.5378 61.3128V57.619C89.5373 57.5864 89.5434 57.554 89.5557 57.5238C89.5679 57.4935 89.5862 57.4661 89.6092 57.443C89.6333 57.4187 89.6622 57.3995 89.6941 57.3869C89.7259 57.3743 89.7601 57.3685 89.7943 57.3698H93.3845V57.3698Z" fill="#CFCFCF"/>
<path d="M104.467 57.3698C104.499 57.3695 104.531 57.3759 104.56 57.3885C104.59 57.4011 104.616 57.4197 104.638 57.4431C104.661 57.4661 104.679 57.4935 104.692 57.5238C104.704 57.554 104.71 57.5864 104.709 57.619C104.711 57.6539 104.705 57.6888 104.693 57.7215C104.681 57.7543 104.662 57.7842 104.638 57.8095C104.616 57.833 104.59 57.8516 104.56 57.8642C104.531 57.8768 104.499 57.8831 104.467 57.8827H101.12V59.2167H104.467C104.499 59.2164 104.531 59.2228 104.56 59.2354C104.59 59.248 104.616 59.2666 104.638 59.29C104.661 59.313 104.679 59.3404 104.692 59.3707C104.704 59.4009 104.71 59.4333 104.709 59.4659C104.711 59.5008 104.705 59.5357 104.693 59.5684C104.681 59.6011 104.662 59.6311 104.638 59.6564C104.616 59.6799 104.59 59.6985 104.56 59.7111C104.531 59.7237 104.499 59.73 104.467 59.7297H101.12V61.0636H104.467C104.499 61.0633 104.531 61.0696 104.56 61.0822C104.59 61.0948 104.616 61.1134 104.638 61.1369C104.661 61.1599 104.679 61.1873 104.692 61.2176C104.704 61.2478 104.71 61.2802 104.709 61.3128C104.711 61.3477 104.705 61.3826 104.693 61.4153C104.681 61.448 104.662 61.478 104.638 61.5033C104.616 61.5268 104.59 61.5454 104.56 61.558C104.531 61.5706 104.499 61.5769 104.467 61.5766H100.877C100.843 61.5779 100.809 61.5721 100.777 61.5595C100.745 61.5469 100.716 61.5278 100.692 61.5033C100.668 61.478 100.649 61.448 100.637 61.4153C100.625 61.3826 100.619 61.3477 100.621 61.3128V57.619C100.62 57.5864 100.626 57.554 100.639 57.5238C100.651 57.4936 100.669 57.4661 100.692 57.443C100.716 57.4186 100.745 57.3995 100.777 57.3869C100.809 57.3743 100.843 57.3685 100.877 57.3698H104.467V57.3698Z" fill="#CFCFCF"/>
<path d="M126.634 57.3698C126.666 57.3695 126.697 57.3759 126.727 57.3885C126.756 57.4011 126.783 57.4197 126.804 57.4431C126.828 57.4661 126.846 57.4935 126.858 57.5238C126.87 57.554 126.876 57.5864 126.876 57.619C126.877 57.6539 126.872 57.6888 126.86 57.7215C126.847 57.7543 126.829 57.7842 126.804 57.8095C126.783 57.833 126.756 57.8516 126.727 57.8642C126.697 57.8768 126.666 57.8831 126.634 57.8827H123.286V59.2167H126.634C126.666 59.2164 126.697 59.2228 126.727 59.2354C126.756 59.248 126.783 59.2666 126.804 59.29C126.828 59.313 126.846 59.3404 126.858 59.3707C126.87 59.4009 126.876 59.4333 126.876 59.4659C126.877 59.5008 126.872 59.5357 126.86 59.5684C126.847 59.6011 126.829 59.6311 126.804 59.6564C126.783 59.6799 126.756 59.6985 126.727 59.7111C126.697 59.7237 126.666 59.73 126.634 59.7297H123.286V61.0636H126.634C126.666 61.0633 126.697 61.0696 126.727 61.0822C126.756 61.0948 126.783 61.1134 126.804 61.1369C126.828 61.1599 126.846 61.1873 126.858 61.2176C126.87 61.2478 126.876 61.2802 126.876 61.3128C126.877 61.3477 126.872 61.3826 126.86 61.4153C126.847 61.448 126.829 61.478 126.804 61.5033C126.783 61.5268 126.756 61.5454 126.727 61.558C126.697 61.5706 126.666 61.5769 126.634 61.5766H123.044C123.01 61.5779 122.975 61.5721 122.943 61.5595C122.911 61.5469 122.883 61.5278 122.858 61.5033C122.834 61.478 122.816 61.448 122.804 61.4153C122.791 61.3826 122.786 61.3477 122.787 61.3128V57.619C122.787 57.5864 122.793 57.554 122.805 57.5238C122.817 57.4936 122.835 57.4661 122.858 57.443C122.883 57.4186 122.912 57.3995 122.943 57.3869C122.975 57.3743 123.01 57.3685 123.044 57.3698H126.634V57.3698Z" fill="#CFCFCF"/>
<path d="M137.717 57.3696C137.749 57.3674 137.782 57.3729 137.811 57.3856C137.841 57.3983 137.867 57.418 137.888 57.4429C137.934 57.4928 137.959 57.5582 137.959 57.6261C137.959 57.694 137.934 57.7594 137.888 57.8093L136.264 59.4657L137.888 61.1367C137.934 61.1866 137.959 61.252 137.959 61.3199C137.959 61.3878 137.934 61.4532 137.888 61.5031C137.866 61.5266 137.839 61.5452 137.81 61.5578C137.781 61.5704 137.749 61.5767 137.717 61.5764C137.649 61.5723 137.584 61.5467 137.532 61.5031L135.922 59.8322L134.298 61.5031C134.276 61.5266 134.25 61.5452 134.22 61.5578C134.191 61.5704 134.159 61.5767 134.127 61.5764C134.059 61.5724 133.994 61.5467 133.942 61.5031C133.896 61.4531 133.871 61.3877 133.871 61.3199C133.871 61.2521 133.896 61.1867 133.942 61.1367L135.566 59.4657L133.942 57.8093C133.896 57.7593 133.871 57.6939 133.871 57.6261C133.871 57.5583 133.896 57.4929 133.942 57.4429C133.966 57.4185 133.995 57.3994 134.027 57.3868C134.059 57.3741 134.093 57.3683 134.127 57.3696C134.159 57.3674 134.192 57.3729 134.221 57.3857C134.251 57.3984 134.277 57.418 134.298 57.4429L135.922 59.0992L137.532 57.4429C137.556 57.4185 137.585 57.3994 137.617 57.3868C137.648 57.3741 137.683 57.3683 137.717 57.3696Z" fill="#CFCFCF"/>
<path d="M148.708 57.7144C148.816 57.823 148.901 57.9522 148.959 58.0945C149.016 58.2367 149.045 58.389 149.042 58.5424C149.046 58.6982 149.018 58.8531 148.96 58.9979C148.903 59.1427 148.817 59.2744 148.708 59.3854C148.605 59.4957 148.48 59.5833 148.341 59.6426C148.203 59.7019 148.053 59.7315 147.903 59.7297H145.453V61.3128C145.454 61.3477 145.448 61.3826 145.436 61.4153C145.424 61.448 145.405 61.4779 145.381 61.5033C145.359 61.5268 145.333 61.5454 145.303 61.558C145.274 61.5706 145.242 61.5769 145.21 61.5766C145.176 61.578 145.142 61.5722 145.11 61.5595C145.078 61.5469 145.049 61.5278 145.025 61.5033C145.001 61.478 144.982 61.448 144.97 61.4153C144.958 61.3826 144.952 61.3477 144.954 61.3128V57.619C144.953 57.5864 144.959 57.554 144.972 57.5238C144.984 57.4936 145.002 57.4661 145.025 57.443C145.049 57.4186 145.078 57.3995 145.11 57.3869C145.142 57.3743 145.176 57.3685 145.21 57.3698H147.903C148.053 57.368 148.203 57.3977 148.341 57.4571C148.48 57.5164 148.605 57.6041 148.708 57.7144ZM148.359 59.0189C148.481 58.8905 148.547 58.7194 148.544 58.5424C148.546 58.4559 148.53 58.3697 148.499 58.2892C148.467 58.2086 148.419 58.1352 148.359 58.0733C148.3 58.0116 148.229 57.9628 148.151 57.93C148.072 57.8972 147.988 57.8811 147.903 57.8828H145.453V59.2167H147.903C147.988 59.2182 148.073 59.2013 148.152 59.1672C148.231 59.1331 148.301 59.0825 148.359 59.0189V59.0189Z" fill="#CFCFCF"/>
<path d="M159.884 57.3698C159.916 57.3695 159.947 57.3759 159.977 57.3885C160.006 57.4011 160.033 57.4197 160.054 57.4431C160.078 57.4661 160.096 57.4935 160.108 57.5238C160.12 57.554 160.126 57.5864 160.126 57.619C160.127 57.6539 160.122 57.6888 160.11 57.7215C160.097 57.7543 160.079 57.7842 160.054 57.8095C160.033 57.833 160.006 57.8516 159.977 57.8642C159.947 57.8768 159.916 57.8831 159.884 57.8827H156.536V59.2167H159.884C159.916 59.2164 159.947 59.2228 159.977 59.2354C160.006 59.248 160.033 59.2666 160.054 59.29C160.078 59.313 160.096 59.3404 160.108 59.3707C160.12 59.4009 160.126 59.4333 160.126 59.4659C160.127 59.5008 160.122 59.5357 160.11 59.5684C160.097 59.6011 160.079 59.6311 160.054 59.6564C160.033 59.6799 160.006 59.6985 159.977 59.7111C159.947 59.7237 159.916 59.73 159.884 59.7297H156.536V61.0636H159.884C159.916 61.0633 159.947 61.0696 159.977 61.0822C160.006 61.0948 160.033 61.1134 160.054 61.1369C160.078 61.1599 160.096 61.1873 160.108 61.2176C160.12 61.2478 160.126 61.2802 160.126 61.3128C160.127 61.3477 160.122 61.3826 160.11 61.4153C160.097 61.448 160.079 61.478 160.054 61.5033C160.033 61.5268 160.006 61.5454 159.977 61.558C159.947 61.5706 159.916 61.5769 159.884 61.5766H156.294C156.26 61.5779 156.225 61.5721 156.193 61.5595C156.161 61.5469 156.133 61.5278 156.108 61.5033C156.084 61.478 156.066 61.448 156.054 61.4153C156.041 61.3826 156.036 61.3477 156.037 61.3128V57.619C156.037 57.5864 156.043 57.554 156.055 57.5238C156.067 57.4936 156.085 57.4661 156.108 57.443C156.133 57.4186 156.162 57.3995 156.193 57.3869C156.225 57.3743 156.26 57.3685 156.294 57.3698H159.884V57.3698Z" fill="#CFCFCF"/>
<path d="M171.202 61.2396C171.214 61.2707 171.218 61.3043 171.214 61.3374C171.211 61.3706 171.199 61.4024 171.18 61.4301C171.164 61.4733 171.134 61.5104 171.096 61.5366C171.058 61.5628 171.013 61.5767 170.967 61.5766C170.927 61.5762 170.888 61.5661 170.853 61.5474L167.619 59.891V61.3128C167.62 61.3477 167.615 61.3826 167.603 61.4153C167.59 61.448 167.572 61.4779 167.548 61.5033C167.526 61.5267 167.499 61.5454 167.47 61.558C167.441 61.5706 167.409 61.5769 167.377 61.5766C167.343 61.5779 167.308 61.5721 167.276 61.5595C167.245 61.5469 167.216 61.5278 167.191 61.5033C167.167 61.478 167.149 61.448 167.137 61.4153C167.124 61.3826 167.119 61.3477 167.12 61.3128V57.619C167.12 57.5864 167.126 57.554 167.138 57.5238C167.15 57.4936 167.168 57.4661 167.191 57.443C167.216 57.4186 167.245 57.3995 167.276 57.3869C167.308 57.3743 167.343 57.3685 167.377 57.3698H170.069C170.22 57.368 170.369 57.3977 170.508 57.457C170.647 57.5164 170.771 57.604 170.874 57.7144C170.982 57.823 171.068 57.9522 171.125 58.0945C171.183 58.2367 171.211 58.389 171.209 58.5424C171.212 58.6982 171.184 58.8531 171.127 58.9979C171.069 59.1426 170.983 59.2744 170.874 59.3854C170.771 59.4957 170.647 59.5833 170.508 59.6426C170.369 59.7019 170.22 59.7315 170.069 59.7297H168.431L171.066 61.0928C171.098 61.1062 171.127 61.1262 171.15 61.1515C171.173 61.1769 171.191 61.2069 171.202 61.2396ZM167.619 59.2167H170.069C170.155 59.2182 170.24 59.2013 170.319 59.1672C170.397 59.1331 170.468 59.0825 170.525 59.0189C170.647 58.8905 170.714 58.7194 170.71 58.5424C170.712 58.4558 170.697 58.3697 170.665 58.2892C170.633 58.2086 170.586 58.1352 170.525 58.0733C170.467 58.0116 170.396 57.9628 170.317 57.93C170.239 57.8972 170.154 57.8811 170.069 57.8827H167.619V59.2167Z" fill="#CFCFCF"/>
<path d="M182.05 57.3698C182.084 57.3685 182.118 57.3744 182.15 57.387C182.182 57.3996 182.211 57.4187 182.235 57.443C182.258 57.4661 182.276 57.4936 182.289 57.5238C182.301 57.554 182.307 57.5864 182.307 57.619C182.308 57.6539 182.302 57.6887 182.29 57.7215C182.278 57.7542 182.259 57.7841 182.235 57.8095C182.211 57.8339 182.182 57.8531 182.15 57.8657C182.119 57.8783 182.084 57.8841 182.05 57.8827H180.512V61.3128C180.513 61.3477 180.507 61.3825 180.495 61.4153C180.483 61.448 180.464 61.4779 180.44 61.5033C180.416 61.5277 180.387 61.5468 180.355 61.5594C180.324 61.572 180.289 61.5779 180.255 61.5765C180.223 61.577 180.191 61.5706 180.162 61.558C180.132 61.5454 180.106 61.5268 180.084 61.5033C180.06 61.4779 180.041 61.448 180.029 61.4153C180.017 61.3825 180.011 61.3477 180.013 61.3128V57.8827H178.46C178.428 57.8831 178.396 57.8768 178.367 57.8642C178.337 57.8516 178.311 57.833 178.289 57.8095C178.265 57.7842 178.246 57.7542 178.234 57.7215C178.222 57.6887 178.216 57.6539 178.218 57.619C178.217 57.5864 178.223 57.554 178.236 57.5238C178.248 57.4936 178.266 57.4661 178.289 57.443C178.311 57.4196 178.338 57.401 178.367 57.3884C178.396 57.3758 178.428 57.3695 178.46 57.3698H182.05V57.3698Z" fill="#CFCFCF"/>
<path d="M99.4 38.3654C99.1315 38.0936 98.8114 37.8783 98.4584 37.7321C98.1055 37.5858 97.7269 37.5117 97.3448 37.5139H72.7564V13.0344C72.7657 12.6339 72.6947 12.2356 72.5475 11.863C72.4003 11.4904 72.1799 11.151 71.8994 10.865C71.631 10.5927 71.3109 10.377 70.9578 10.2305C70.6047 10.084 70.2258 10.0096 69.8435 10.0119C69.4429 9.99835 69.0438 10.0672 68.671 10.2143C68.2981 10.3614 67.9595 10.5836 67.6761 10.867C67.3926 11.1504 67.1705 11.489 67.0234 11.8619C66.8763 12.2347 66.8074 12.6338 66.821 13.0344V40.5362C66.8182 40.9191 66.8924 41.2986 67.0392 41.6522C67.1861 42.0058 67.4026 42.3262 67.6758 42.5944C67.9614 42.8748 68.3005 43.095 68.6729 43.2419C69.0452 43.3888 69.4433 43.4593 69.8435 43.4494H97.3448C98.117 43.4477 98.8572 43.1403 99.4033 42.5944C99.9495 42.0485 100.257 41.3085 100.259 40.5362C100.268 40.1354 100.197 39.7368 100.049 39.364C99.9015 38.9912 99.6808 38.6517 99.4 38.3654Z" fill="#CFCFCF"/>
<path d="M138.597 37.5142H114.149V15.9483H138.597C138.98 15.9507 139.36 15.8762 139.713 15.7291C140.067 15.582 140.387 15.3654 140.655 15.0922C140.936 14.8066 141.156 14.4676 141.303 14.0954C141.449 13.7231 141.52 13.3252 141.51 12.9251C141.508 12.1531 141.201 11.4131 140.655 10.8672C140.109 10.3213 139.369 10.0139 138.597 10.0122H111.126C110.354 10.0139 109.614 10.3213 109.068 10.8672C108.522 11.4132 108.214 12.1531 108.213 12.9251C108.213 12.9444 108.213 12.9634 108.214 12.982L108.213 40.5889C108.207 41.0051 108.297 41.4169 108.477 41.7922C108.657 42.1675 108.922 42.4961 109.25 42.7521C109.34 42.8188 109.433 42.8809 109.529 42.9381C110.103 43.2782 110.76 43.455 111.427 43.4496H138.597C138.98 43.452 139.36 43.3774 139.714 43.2303C140.068 43.0832 140.388 42.8666 140.657 42.5933C140.937 42.3075 141.156 41.9686 141.303 41.5965C141.449 41.2244 141.52 40.8267 141.51 40.4269C141.509 39.6548 141.201 38.9148 140.655 38.3688C140.109 37.8228 139.369 37.5155 138.597 37.5142Z" fill="#CFCFCF"/>
<path d="M135.45 24.6261L135.446 24.6215C135.178 24.3493 134.857 24.1336 134.504 23.9871C134.151 23.8406 133.772 23.7663 133.39 23.7686H119.63C118.847 23.7686 118.095 24.0783 117.539 24.6303C116.983 25.1822 116.668 25.9316 116.662 26.715C116.657 27.4984 116.961 28.2523 117.509 28.8123C118.057 29.3722 118.804 29.6929 119.587 29.7042L133.39 29.7045C133.773 29.707 134.153 29.6324 134.506 29.4854C134.86 29.3384 135.18 29.1218 135.448 28.8485C135.729 28.563 135.949 28.224 136.096 27.8518C136.242 27.4795 136.313 27.0816 136.303 26.6815C136.305 26.2994 136.231 25.9206 136.085 25.5676C135.938 25.2145 135.723 24.8944 135.45 24.6261Z" fill="#CFCFCF"/>
<path d="M154.579 10.9014C154.32 10.605 153.997 10.3711 153.635 10.217C153.273 10.063 152.881 9.99283 152.488 10.0118C152.088 10.0019 151.69 10.0724 151.318 10.2192C150.946 10.366 150.608 10.586 150.322 10.8663C149.772 11.4328 149.465 12.1915 149.465 12.9812C149.466 13.7708 149.774 14.5291 150.325 15.0951L160.595 25.2769C160.781 25.4608 160.928 25.6795 161.029 25.9205C161.13 26.1614 161.182 26.4199 161.182 26.6811C161.183 26.9423 161.132 27.201 161.032 27.4424C160.933 27.6839 160.786 27.9032 160.601 28.0879L150.322 38.3684C149.772 38.935 149.465 39.6933 149.465 40.4826C149.466 41.2718 149.773 42.0299 150.323 42.596L150.452 42.7052C151.035 43.1621 151.748 43.4226 152.488 43.4493C152.871 43.452 153.25 43.3777 153.603 43.2308C153.956 43.0839 154.277 42.8675 154.544 42.5943L169.058 28.0818C169.242 27.8972 169.388 27.678 169.488 27.4367C169.588 27.1954 169.639 26.9369 169.638 26.6758C169.638 26.4147 169.586 26.1563 169.485 25.9154C169.385 25.6745 169.238 25.4558 169.053 25.2718L154.579 10.9014Z" fill="#CFCFCF"/>
<path d="M182.96 13.0215C182.966 12.6301 182.894 12.2414 182.747 11.8785C182.6 11.5157 182.381 11.1861 182.104 10.9095C181.819 10.6289 181.48 10.4086 181.108 10.2616C180.736 10.1146 180.338 10.044 179.938 10.0538C179.545 10.0348 179.152 10.1049 178.79 10.2589C178.428 10.4129 178.106 10.6468 177.847 10.9431L169.426 19.2889C169.24 19.4728 169.093 19.6915 168.992 19.9324C168.891 20.1734 168.839 20.4319 168.838 20.693C168.838 20.9542 168.889 21.213 168.988 21.4544C169.088 21.6958 169.234 21.9152 169.419 22.0999L170.839 23.5201C171.21 23.8911 171.712 24.1001 172.237 24.1013C172.762 24.1025 173.265 23.8958 173.638 23.5265L182.101 15.1367C182.379 14.8602 182.599 14.5303 182.747 14.1668C182.894 13.8033 182.967 13.4138 182.96 13.0215Z" fill="#CFCFCF"/>
<path d="M182.111 38.3362L173.66 29.8461L173.647 29.834C173.275 29.4646 172.771 29.2578 172.247 29.2588C171.722 29.2598 171.22 29.4686 170.849 29.8395L169.428 31.2591C169.244 31.4438 169.097 31.6631 168.997 31.9045C168.898 32.146 168.847 32.4047 168.847 32.6659C168.848 32.9271 168.9 33.1856 169.001 33.4266C169.101 33.6676 169.249 33.8864 169.434 34.0703L177.917 42.5906C178.483 43.1407 179.241 43.4488 180.03 43.4493C180.819 43.4499 181.578 43.143 182.144 42.5937C182.425 42.3083 182.645 41.9695 182.792 41.5973C182.939 41.2251 183.01 40.8271 183 40.427C183.019 40.034 182.949 39.6418 182.795 39.2797C182.641 38.9176 182.407 38.5951 182.111 38.3362Z" fill="#CFCFCF"/>
<path d="M12.0307 19.9596C11.1282 19.9651 10.2344 19.7838 9.40538 19.427C8.5764 19.0703 7.83021 18.5459 7.21377 17.8867C6.59732 17.2276 6.12396 16.448 5.82345 15.597C5.52294 14.746 5.40179 13.842 5.46762 12.942C5.59388 11.3181 6.3117 9.79705 7.48495 8.6673C8.6582 7.53756 10.2053 6.87768 11.8327 6.81284C12.7209 6.78081 13.6062 6.9303 14.4346 7.25215C15.2629 7.574 16.0169 8.06144 16.6505 8.68468C17.284 9.30791 17.7838 10.0538 18.1191 10.8768C18.4545 11.6998 18.6185 12.5826 18.6011 13.4711C18.6076 14.3319 18.4415 15.1853 18.1126 15.9809C17.7836 16.7764 17.2986 17.498 16.6861 18.1029C16.0736 18.7078 15.346 19.1837 14.5464 19.5026C13.7468 19.8216 12.8914 19.9769 12.0307 19.9596Z" fill="#CFCFCF"/>
<path d="M27.197 15.3423C26.1818 15.3485 25.1764 15.1445 24.2439 14.7432C23.3114 14.3419 22.4721 13.752 21.7787 13.0106C21.0853 12.2691 20.5528 11.3922 20.2148 10.435C19.8767 9.47776 19.7405 8.46093 19.8145 7.44847C19.9565 5.62187 20.764 3.91091 22.0837 2.6401C23.4035 1.3693 25.1437 0.62703 26.9744 0.55409C27.9734 0.518069 28.9692 0.686217 29.901 1.04825C30.8328 1.41028 31.681 1.95859 32.3936 2.65964C33.1063 3.36069 33.6684 4.19975 34.0457 5.12549C34.4229 6.05123 34.6074 7.0442 34.5877 8.04367C34.5951 9.01198 34.4082 9.97194 34.0382 10.8668C33.6683 11.7617 33.1226 12.5733 32.4336 13.2537C31.7446 13.9341 30.9262 14.4695 30.0268 14.8283C29.1274 15.187 28.1651 15.3618 27.197 15.3423Z" fill="#CFCFCF"/>
<path d="M5.78768 31.7942C4.99388 31.799 4.20765 31.6395 3.47848 31.3258C2.74931 31.012 2.09297 30.5507 1.55075 29.9709C1.00852 29.3911 0.592152 28.7054 0.327824 27.9568C0.0634961 27.2083 -0.0430666 26.4132 0.0148389 25.6215C0.125891 24.1931 0.757291 22.8552 1.78928 21.8615C2.82127 20.8678 4.18207 20.2873 5.61359 20.2303C6.39479 20.2021 7.17352 20.3336 7.90216 20.6167C8.63079 20.8998 9.29402 21.3286 9.85128 21.8768C10.4085 22.425 10.8481 23.0811 11.1431 23.805C11.4381 24.5289 11.5824 25.3053 11.567 26.0869C11.5727 26.8441 11.4266 27.5947 11.1373 28.2945C10.848 28.9943 10.4214 29.6289 9.88258 30.161C9.3438 30.6931 8.70384 31.1117 8.00051 31.3922C7.29717 31.6728 6.54474 31.8094 5.78768 31.7942Z" fill="#CFCFCF"/>
<path d="M13.7459 38.7104C13.7443 39.3544 13.6149 39.9917 13.365 40.5853C13.1151 41.1788 12.7498 41.7169 12.2903 42.1681C11.8308 42.6193 11.2862 42.9747 10.6882 43.2137C10.0901 43.4527 9.45057 43.5705 8.80663 43.5603C7.83146 43.5563 6.87947 43.2627 6.07153 42.7166C5.2636 42.1705 4.63618 41.3966 4.26894 40.4933C3.9017 39.5899 3.81121 38.5977 4.00896 37.6428C4.20672 36.6879 4.68379 35.8133 5.37961 35.1301C6.07542 34.4469 6.95858 33.9858 7.91694 33.8055C8.87531 33.6252 9.86563 33.7338 10.7622 34.1175C11.6587 34.5011 12.421 35.1426 12.9522 35.9603C13.4835 36.7781 13.7597 37.7353 13.7459 38.7104Z" fill="#CFCFCF"/>
<path d="M17.6419 41.1213C18.6781 41.1175 19.6758 41.5134 20.4274 42.2268C21.1789 42.9401 21.6263 43.9159 21.6764 44.9508C21.7138 45.5046 21.6387 46.0601 21.4556 46.584C21.2725 47.108 20.9852 47.5894 20.611 47.9992C20.2369 48.4091 19.7835 48.739 19.2784 48.9689C18.7733 49.1989 18.2269 49.3242 17.6721 49.3372C17.1172 49.3503 16.5655 49.2509 16.0501 49.045C15.5348 48.839 15.0665 48.5309 14.6734 48.1391C14.2803 47.7473 13.9707 47.2799 13.7631 46.7652C13.5556 46.2505 13.4544 45.6991 13.4657 45.1442C13.4861 44.057 13.9376 43.0224 14.7208 42.268C15.5039 41.5135 16.5547 41.1011 17.6419 41.1213Z" fill="#CFCFCF"/>
<path d="M27.2402 43.6571C27.6761 43.6572 28.1076 43.7455 28.5085 43.9167C28.9094 44.0878 29.2716 44.3383 29.5733 44.653C29.8749 44.9678 30.1098 45.3402 30.2639 45.7481C30.4179 46.1559 30.4878 46.5907 30.4695 47.0262C30.4377 47.8658 30.0884 48.662 29.4922 49.2538C28.8959 49.8457 28.0972 50.1891 27.2574 50.2147C26.8171 50.2267 26.3789 50.1492 25.9694 49.987C25.5598 49.8248 25.1875 49.5812 24.8748 49.2709C24.5621 48.9606 24.3157 48.5901 24.1503 48.1818C23.9849 47.7736 23.9041 47.336 23.9127 46.8956C23.9081 46.4614 23.9917 46.0309 24.1584 45.63C24.3252 45.2291 24.5716 44.8663 24.8827 44.5635C25.1938 44.2607 25.5632 44.0242 25.9684 43.8684C26.3737 43.7126 26.8063 43.6407 27.2402 43.6571Z" fill="#CFCFCF"/>
<path d="M37.1759 45.4562C37.1352 46.0613 36.8681 46.6289 36.4278 47.046C35.9875 47.4631 35.4063 47.6991 34.7999 47.707C34.3017 47.7221 33.8107 47.5854 33.3919 47.3152C32.9731 47.0449 32.6463 46.6538 32.4548 46.1936C32.2634 45.7334 32.2162 45.2259 32.3197 44.7384C32.4231 44.2508 32.6723 43.8062 33.0341 43.4634C33.396 43.1207 33.8534 42.8959 34.3459 42.819C34.8383 42.7421 35.3425 42.8166 35.7916 43.0327C36.2408 43.2488 36.6136 43.5963 36.8609 44.0291C37.1081 44.4619 37.2179 44.9596 37.1759 45.4562Z" fill="#CFCFCF"/>
<path d="M46.572 31.8634C46.8299 31.9525 47.0627 32.102 47.2509 32.2997C47.4391 32.4973 47.5772 32.7371 47.6535 32.9991C47.7192 33.2421 47.7278 33.4969 47.6787 33.7438C47.6296 33.9907 47.5242 34.2228 47.3705 34.4222C47.2169 34.6215 47.0192 34.7826 46.793 34.893C46.5668 35.0033 46.3182 35.0599 46.0665 35.0582C45.6608 35.0514 45.2714 34.8973 44.9709 34.6247C44.6703 34.3521 44.4792 33.9795 44.433 33.5764C44.4094 33.3063 44.4528 33.0346 44.5594 32.7853C44.666 32.536 44.8325 32.3169 45.0441 32.1475C45.2557 31.978 45.5059 31.8634 45.7724 31.8139C46.0389 31.7643 46.3136 31.7813 46.572 31.8634Z" fill="#CFCFCF"/>
<path d="M41.997 42.103C41.9875 42.54 41.8074 42.9559 41.4953 43.2619C41.1831 43.568 40.7637 43.7397 40.3266 43.7406C39.9054 43.733 39.5036 43.5617 39.2065 43.263C38.9094 42.9644 38.7402 42.5618 38.7348 42.1405C38.7242 41.9241 38.7581 41.7078 38.8343 41.505C38.9105 41.3021 39.0275 41.1171 39.178 40.9612C39.3285 40.8053 39.5094 40.6819 39.7094 40.5986C39.9094 40.5153 40.1244 40.4738 40.3411 40.4768C40.5578 40.4702 40.7737 40.5074 40.9756 40.5864C41.1776 40.6654 41.3615 40.7844 41.5162 40.9364C41.6709 41.0883 41.7933 41.27 41.8759 41.4705C41.9585 41.671 41.9997 41.8861 41.997 42.103Z" fill="#CFCFCF"/>
<path d="M45.4042 38.0434C45.4055 38.2604 45.3615 38.4752 45.275 38.6742C45.1884 38.8731 45.0613 39.0518 44.9016 39.1987C44.7419 39.3456 44.5533 39.4576 44.3479 39.5273C44.1424 39.597 43.9247 39.6231 43.7086 39.6037C43.2893 39.5856 42.893 39.4072 42.6014 39.1054C42.3098 38.8036 42.1452 38.4014 42.1416 37.9817C42.1505 37.5446 42.332 37.1287 42.6464 36.8248C42.9608 36.5209 43.3826 36.3536 43.8198 36.3595C44.0364 36.3596 44.2507 36.4039 44.4495 36.4898C44.6483 36.5758 44.8274 36.7015 44.9758 36.8592C45.1242 37.0169 45.2387 37.2034 45.3124 37.407C45.3861 37.6107 45.4173 37.8272 45.4042 38.0434Z" fill="#CFCFCF"/>
</g>
<defs>
<clipPath id="clip0_1195_8649">
<rect width="183" height="61.0267" fill="white" transform="translate(0 0.549805)"/>
</clipPath>
</defs>
</svg>
