<svg width="193" height="44" viewBox="0 0 193 44" fill="none" xmlns="http://www.w3.org/2000/svg">
<g clip-path="url(#clip0_326_7834)">
<path d="M73.6608 12.0059H64.5898V31.9944H73.6608V12.0059Z" fill="#CFCFCF"/>
<path d="M36.6067 12.0059H32.0391V22.0001H41.1744V16.4687C41.1744 14.0173 39.1157 12.0059 36.6067 12.0059Z" fill="#CFCFCF"/>
<path d="M138.446 12.0059H129.375V40.9201H138.446V12.0059Z" fill="#CFCFCF"/>
<path d="M137.609 12.9487H130.211V39.9144H137.609V12.9487Z" fill="white"/>
<path d="M127.315 16.4686L127.25 16.0914C127.057 13.7657 125.127 11.9429 122.683 11.9429C122.49 11.9429 122.232 11.9429 122.039 12.0057H118.115V15.84C118.115 16.0286 118.051 16.2172 118.051 16.4686C118.051 16.6572 118.051 16.9086 118.115 17.0972V17.7257V18.1029H127.186V17.9772H127.25V16.4686H127.315Z" fill="#CFCFCF"/>
<path d="M156.136 12.0059C153.756 12.0059 151.761 13.8287 151.633 16.1544V16.4687V17.9144V18.103H160.704V17.7259V16.2173V12.0687L156.136 12.0059Z" fill="#CFCFCF"/>
<path d="M10.9354 12.0057V17.0972C10.9354 17.2857 10.8711 17.4743 10.8711 17.7257C10.8711 17.9772 10.8711 18.1657 10.9354 18.3543V24.7657C10.9354 24.9543 10.8711 25.1429 10.8711 25.3943C10.8711 25.5829 10.8711 25.8343 10.9354 26.0229V32.0572H20.0064V25.2686C20.0064 23.6343 19.1058 22.2514 17.8191 21.4343C19.0414 20.68 19.8778 19.4229 20.0064 17.9143V11.9429H10.9354V12.0057Z" fill="#CFCFCF"/>
<path d="M84.1471 16.4057C84.1471 13.9543 82.0884 11.9429 79.5794 11.9429C79.3864 11.9429 79.1291 11.9429 78.9361 12.0057H75.0117V31.9943H84.0827V17.0343C84.1471 16.7829 84.1471 16.5943 84.1471 16.4057Z" fill="#CFCFCF"/>
<path d="M171.255 12.0059H162.184V31.9944H171.255V12.0059Z" fill="#CFCFCF"/>
<path d="M182.385 12.0059H173.314V31.9944H182.385V12.0059Z" fill="#CFCFCF"/>
<path d="M188.497 12.0059H183.93V31.9944H193.001V16.4059C193.001 13.9544 191.006 12.0059 188.497 12.0059Z" fill="#CFCFCF"/>
<path d="M126.157 15.9659C126.157 14.2687 124.613 12.9487 122.618 12.9487H119.016V15.7144V16.783V17.0344H126.092V16.9716H126.157V15.9659Z" fill="white"/>
<path d="M30.8171 12.0059H21.7461V31.9944H30.8171V12.0059Z" fill="#CFCFCF"/>
<path d="M9.071 3.14307H0V31.9316H9.071V3.14307Z" fill="#CFCFCF"/>
<path d="M170.418 12.8228H163.02V30.9885H170.418V12.8228Z" fill="white"/>
<path d="M181.613 12.8228H174.215V30.9885H181.613V12.8228Z" fill="white"/>
<path d="M188.497 12.8228H184.766V30.9885H192.164V16.8456C192.164 14.6456 190.556 12.8228 188.497 12.8228Z" fill="white"/>
<path d="M156.267 12.8228C154.401 12.8228 152.857 14.1428 152.664 15.8399V16.0913V17.1599V17.2856H159.805V17.0342V15.9028V12.8856L156.267 12.8228Z" fill="white"/>
<path d="M159.16 19.4227H158.259H156.136C154.399 19.4227 152.855 20.4284 152.083 21.8113C151.761 22.3141 151.633 22.817 151.633 23.1313V27.5941C151.633 29.7313 153.177 31.4913 155.235 31.9313H157.165H157.68H160.768V21.1827V20.8684V19.3599L159.16 19.4227Z" fill="#CFCFCF"/>
<path d="M158.581 20.3027H157.873H156.2C154.785 20.3027 153.563 21.1199 152.984 22.377C152.726 22.817 152.598 23.1942 152.598 23.5084V27.2799C152.598 29.1027 153.82 30.6113 155.428 30.9884H156.972H157.423H159.867V21.8742V21.6227V20.3656H158.581V20.3027Z" fill="white"/>
<path d="M52.4322 27.0285V23.1313V20.8685V17.0342C52.4322 16.8456 52.4965 16.657 52.4965 16.4056C52.4965 16.217 52.4965 15.9656 52.4322 15.777V11.9427H48.5079C48.3149 11.9427 48.1219 11.8799 47.8645 11.8799C45.3555 11.8799 43.2969 13.8913 43.2969 16.3427V20.8056V23.0685V27.5313C43.2969 29.7313 44.9052 31.5542 47.0925 31.9313H47.8645H48.6365H52.3679V28.1599C52.3679 27.9713 52.4322 27.7827 52.4322 27.5313C52.4965 27.4056 52.4322 27.217 52.4322 27.0285Z" fill="#CFCFCF"/>
<path d="M58.0285 11.9429C57.8355 11.9429 57.5781 11.9429 57.3851 12.0057H53.4608V15.84C53.4608 16.0286 53.3965 16.2172 53.3965 16.4686C53.3965 16.6572 53.3965 16.9086 53.4608 17.0972V20.9314V23.1943V27.0286C53.4608 27.2172 53.3965 27.4057 53.3965 27.6572C53.3965 27.8457 53.3965 28.0972 53.4608 28.2857V32.0572H57.2565H58.0285H58.8005C60.9235 31.68 62.5962 29.8572 62.5962 27.6572V23.1943V20.9314V16.4686C62.5962 13.9543 60.6018 11.9429 58.0285 11.9429Z" fill="#CFCFCF"/>
<path d="M90.6458 12.0059C88.1368 12.0059 86.0781 14.0173 86.0781 16.4687C86.0781 16.6573 86.0781 16.9087 86.1425 17.0973V20.9316V23.1944V27.0287C86.1425 27.2173 86.0781 27.4059 86.0781 27.6573C86.0781 29.7316 87.4935 31.4287 89.4878 31.9316H90.7101H91.8681H95.2778V23.1944V20.9316V12.0059H90.6458Z" fill="#CFCFCF"/>
<path d="M116.7 26.3371V25.96H107.629V27.9085C107.822 29.8571 109.237 31.4914 111.167 31.8685H112.197V31.9314H116.7V26.3371C116.7 26.3371 116.764 26.3371 116.7 26.3371Z" fill="#CFCFCF"/>
<path d="M126.157 21.1201C126.028 21.0573 125.9 20.9316 125.771 20.8687C124.935 20.303 123.777 19.8001 122.04 19.6744C120.689 19.423 119.209 19.1087 118.115 18.7944C117.215 18.543 116.829 18.103 116.764 17.9144V12.0059H112.197C109.688 12.0059 107.629 14.0173 107.629 16.4687V20.9316C107.629 21.4344 107.951 22.1887 108.723 22.8801C109.495 23.5087 110.781 24.2001 112.84 24.3887C113.805 24.5773 114.77 24.7659 115.671 25.0173C115.735 25.0173 115.799 25.0801 115.864 25.0801C116.121 25.143 116.378 25.2059 116.571 25.2687C116.636 25.2687 116.636 25.2687 116.7 25.3316C117.858 25.6459 118.115 26.2744 118.115 26.2744V32.0573C118.115 32.0573 120.882 32.0573 121.911 32.0573C122.104 32.0573 122.683 32.0573 122.683 32.0573H123.455C125.578 31.6801 127.251 29.8573 127.251 27.6573V23.1944C127.315 22.6287 126.993 21.8116 126.157 21.1201Z" fill="#CFCFCF"/>
<path d="M101.068 12.0059H96.5V16.4687V20.9316V23.1944V27.6573V31.9944H100.103H101.132H102.033C104.091 31.5544 105.635 29.7316 105.635 27.6573H105.7V23.1944V20.9316V16.4687C105.635 13.9544 103.577 12.0059 101.068 12.0059Z" fill="#CFCFCF"/>
<path d="M144.751 12.0059H140.184V20.8687V23.1316V31.9316H142.95H143.786H145.716C147.775 31.4916 149.319 29.6687 149.319 27.5944V23.1316V20.8687V16.4687C149.319 13.9544 147.26 12.0059 144.751 12.0059Z" fill="#CFCFCF"/>
<path d="M115.737 26.8398H108.66V27.0284V28.0341V28.2227C108.789 29.7941 110.268 31.0513 112.198 31.0513H115.737V28.2227V26.8398Z" fill="white"/>
<path d="M121.526 20.5544C116.508 19.6744 116.122 19.0459 115.736 18.2916C115.736 17.5373 115.736 12.9487 115.736 12.9487H112.777C110.525 12.9487 108.659 14.7716 108.659 16.9716C108.659 16.9716 108.595 20.8059 108.659 20.9944C109.624 23.0059 112.391 23.383 113.87 23.5087C115.865 23.9487 118.953 24.4516 119.017 25.7716C119.017 26.023 119.017 31.0516 119.017 31.0516H120.818H121.526H122.877C124.807 30.7373 126.287 29.0402 126.287 27.0287V23.0059C125.901 21.3087 123.07 20.6802 121.526 20.5544Z" fill="white"/>
<path d="M144.814 13.0742H141.211V21.0571V23.0685V30.9885H141.919H144.106H145.65C147.258 30.6114 148.481 28.9771 148.481 27.0914V23.0685V21.0571V17.0342C148.481 14.8971 146.808 13.0742 144.814 13.0742Z" fill="white"/>
</g>
<defs>
<clipPath id="clip0_326_7834">
<rect width="193" height="44" fill="white"/>
</clipPath>
</defs>
</svg>
