<svg width="145" height="42" viewBox="0 0 145 42" fill="none" xmlns="http://www.w3.org/2000/svg">
<g clip-path="url(#clip0_326_7865)">
<path fill-rule="evenodd" clip-rule="evenodd" d="M0 8.31748L9.85087 0V5.05998L2.56302 11.2058V17.7208L0 19.849V8.31748Z" fill="url(#paint0_linear_326_7865)"/>
<path fill-rule="evenodd" clip-rule="evenodd" d="M3.1875 11.4886L13.0161 3.14941V8.2094L5.75052 14.3769V20.8702L3.1875 22.9984V11.4886Z" fill="url(#paint1_linear_326_7865)"/>
<path fill-rule="evenodd" clip-rule="evenodd" d="M6.35156 14.6373L16.2025 6.31982V11.3798L8.91459 17.5256V24.0189L6.35156 26.1688V14.6373Z" fill="url(#paint2_linear_326_7865)"/>
<path fill-rule="evenodd" clip-rule="evenodd" d="M6.35156 14.6373L16.2025 6.31982V11.3798L8.91459 17.5256V24.0189L6.35156 26.1688V14.6373Z" fill="url(#paint3_linear_326_7865)"/>
<path fill-rule="evenodd" clip-rule="evenodd" d="M9.53906 17.8079L19.3677 9.46875V14.5287L12.1021 20.6745V27.1895L9.53906 29.3178V17.8079Z" fill="url(#paint4_linear_326_7865)"/>
<path fill-rule="evenodd" clip-rule="evenodd" d="M9.53906 17.8079L19.3677 9.46875V14.5287L12.1021 20.6745V27.1895L9.53906 29.3178V17.8079Z" fill="url(#paint5_linear_326_7865)"/>
<path fill-rule="evenodd" clip-rule="evenodd" d="M12.7031 20.9566L22.5541 12.6392V17.6774L15.4445 23.6929V30.2079L12.7255 32.4882L12.7031 20.9566Z" fill="url(#paint6_linear_326_7865)"/>
<path fill-rule="evenodd" clip-rule="evenodd" d="M12.7031 20.9566L22.5541 12.6392V17.6774L15.4445 23.6929V30.2079L12.7255 32.4882L12.7031 20.9566Z" fill="url(#paint7_linear_326_7865)"/>
<path fill-rule="evenodd" clip-rule="evenodd" d="M16.0469 23.9535L33.2302 9.44678V14.5284L18.543 26.9287V33.4002L16.0469 35.485V23.9535Z" fill="url(#paint8_linear_326_7865)"/>
<path fill-rule="evenodd" clip-rule="evenodd" d="M16.0469 23.9535L33.2302 9.44678V14.5284L18.543 26.9287V33.4002L16.0469 35.485V23.9535Z" fill="url(#paint9_linear_326_7865)"/>
<path fill-rule="evenodd" clip-rule="evenodd" d="M19.166 27.2108L36.3271 12.7041V17.7859L21.6621 30.186V36.6359L19.166 38.7424V27.2108Z" fill="url(#paint10_linear_326_7865)"/>
<path fill-rule="evenodd" clip-rule="evenodd" d="M19.166 27.2108L36.3271 12.7041V17.7859L21.6621 30.186V36.6359L19.166 38.7424V27.2108Z" fill="url(#paint11_linear_326_7865)"/>
<path fill-rule="evenodd" clip-rule="evenodd" d="M22.2656 30.4686L39.449 15.9619V27.602L22.2879 42.0001L22.2656 30.4686Z" fill="url(#paint12_linear_326_7865)"/>
<path fill-rule="evenodd" clip-rule="evenodd" d="M9.85133 5.84131V10.9013L5.75052 14.376V15.0709L3.1875 17.1991V11.4876L9.85133 5.84131Z" fill="#CFCFCF"/>
<path fill-rule="evenodd" clip-rule="evenodd" d="M13.0154 9.0127V14.0509L8.91459 17.5256V18.2205L6.35156 20.3705V14.6373L13.0154 9.0127Z" fill="#CFCFCF"/>
<path fill-rule="evenodd" clip-rule="evenodd" d="M16.2029 12.1611V17.2211L12.1021 20.6741V21.3907L9.53906 23.5189V17.8075L16.2029 12.1611Z" fill="#CFCFCF"/>
<path fill-rule="evenodd" clip-rule="evenodd" d="M33.2292 15.3325V20.4143L21.6621 30.1867V30.7948L19.166 32.8796V27.2115L33.2292 15.3325Z" fill="#CFCFCF"/>
<path fill-rule="evenodd" clip-rule="evenodd" d="M19.367 15.3105V20.3488L15.4445 23.6932V24.4098L12.7031 26.6684V20.9569L19.367 15.3105Z" fill="#CFCFCF"/>
<path fill-rule="evenodd" clip-rule="evenodd" d="M36.3288 18.5898V24.3447L22.2879 36.1369L22.2656 30.4688L36.3288 18.5898Z" fill="#CFCFCF"/>
<path fill-rule="evenodd" clip-rule="evenodd" d="M22.7107 18.3281V23.4099L18.543 26.928V27.6011L16.0469 29.6859V23.9528L22.7107 18.3281Z" fill="#CFCFCF"/>
<path d="M57.7441 32.7598V16.2286H59.868V30.9706H67.2118V32.7598H57.7441Z" fill="#CFCFCF"/>
<path d="M75.2365 33.0622C74.1277 33.0622 73.1212 32.8102 72.2171 32.3062C71.313 31.7854 70.5965 31.0462 70.0677 30.0886C69.5389 29.131 69.2744 27.9886 69.2744 26.6614C69.2744 25.3174 69.5389 24.1666 70.0677 23.209C70.6136 22.2514 71.313 21.5122 72.1659 20.9914C73.0189 20.4706 73.9144 20.2102 74.8527 20.2102C76.4391 20.2102 77.6589 20.731 78.5118 21.7726C79.3818 22.8142 79.8168 24.2086 79.8168 25.9558C79.8168 26.1742 79.8083 26.3926 79.7912 26.611C79.7912 26.8126 79.7741 26.989 79.74 27.1402H71.3471C71.4324 28.4338 71.8418 29.467 72.5753 30.2398C73.3259 31.0126 74.2983 31.399 75.4924 31.399C76.0894 31.399 76.6353 31.315 77.13 31.147C77.6418 30.9622 78.128 30.727 78.5886 30.4414L79.3306 31.8022C78.8018 32.1382 78.1962 32.4322 77.5139 32.6842C76.8486 32.9362 76.0894 33.0622 75.2365 33.0622ZM71.3215 25.6534H77.9744C77.9744 24.4102 77.7015 23.4694 77.1556 22.831C76.6268 22.1758 75.8762 21.8482 74.9039 21.8482C74.0339 21.8482 73.2491 22.1842 72.5497 22.8562C71.8674 23.5114 71.458 24.4438 71.3215 25.6534Z" fill="#CFCFCF"/>
<path d="M83.4015 32.7598V20.5126H85.1415L85.3207 22.2766H85.3974C85.9433 21.6886 86.5404 21.2014 87.1886 20.815C87.8368 20.4118 88.5277 20.2102 89.2613 20.2102C90.2165 20.2102 90.9586 20.4202 91.4874 20.8402C92.0333 21.2434 92.4342 21.8146 92.6901 22.5538C93.3383 21.865 93.9951 21.3022 94.6604 20.8654C95.3257 20.4286 96.0336 20.2102 96.7842 20.2102C98.0636 20.2102 99.0104 20.6218 99.6245 21.445C100.256 22.2514 100.571 23.4358 100.571 24.9982V32.7598H98.473V25.2754C98.473 24.133 98.2854 23.3014 97.9101 22.7806C97.5348 22.2598 96.9548 21.9994 96.1701 21.9994C95.2489 21.9994 94.2083 22.6294 93.0483 23.8894V32.7598H90.9501V25.2754C90.9501 24.133 90.7624 23.3014 90.3871 22.7806C90.0118 22.2598 89.4233 21.9994 88.6215 21.9994C87.7004 21.9994 86.6598 22.6294 85.4998 23.8894V32.7598H83.4015Z" fill="#CFCFCF"/>
<path d="M107.994 33.0622C106.954 33.0622 106.084 32.7598 105.384 32.155C104.702 31.5334 104.361 30.6766 104.361 29.5846C104.361 28.2406 104.967 27.2158 106.178 26.5102C107.406 25.7878 109.342 25.2838 111.986 24.9982C111.986 24.4774 111.909 23.9818 111.756 23.5114C111.619 23.041 111.364 22.663 110.988 22.3774C110.63 22.075 110.11 21.9238 109.427 21.9238C108.711 21.9238 108.037 22.0582 107.406 22.327C106.775 22.5958 106.212 22.8982 105.717 23.2342L104.898 21.7978C105.478 21.4282 106.186 21.0754 107.022 20.7394C107.875 20.3866 108.796 20.2102 109.786 20.2102C111.304 20.2102 112.404 20.6722 113.087 21.5962C113.769 22.5034 114.11 23.7214 114.11 25.2502V32.7598H112.37L112.191 31.2982H112.114C111.534 31.7686 110.894 32.1802 110.195 32.533C109.513 32.8858 108.779 33.0622 107.994 33.0622ZM108.609 31.399C109.206 31.399 109.769 31.2562 110.297 30.9706C110.826 30.685 111.389 30.2818 111.986 29.761V26.359C109.922 26.611 108.472 26.989 107.636 27.493C106.817 27.997 106.408 28.6438 106.408 29.4334C106.408 30.1222 106.621 30.6262 107.048 30.9454C107.474 31.2478 107.994 31.399 108.609 31.399Z" fill="#CFCFCF"/>
<path d="M118.534 32.7598V20.5126H120.274L120.454 22.7302H120.53C120.957 21.9574 121.477 21.3442 122.091 20.8906C122.705 20.437 123.362 20.2102 124.061 20.2102C124.556 20.2102 125 20.2942 125.392 20.4622L124.983 22.2766C124.778 22.2094 124.59 22.159 124.42 22.1254C124.249 22.0918 124.036 22.075 123.78 22.075C123.251 22.075 122.697 22.285 122.117 22.705C121.554 23.125 121.059 23.8558 120.633 24.8974V32.7598H118.534Z" fill="#CFCFCF"/>
<path d="M127.917 32.7598V14.8174H129.99V26.9638H130.066L135.363 20.5126H137.692L133.521 25.4266L138.255 32.7598H135.952L132.318 26.863L129.99 29.5342V32.7598H127.917Z" fill="#CFCFCF"/>
</g>
<defs>
<linearGradient id="paint0_linear_326_7865" x1="0.00420518" y1="9.91795" x2="9.84985" y2="9.91795" gradientUnits="userSpaceOnUse">
<stop stop-color="#E5E5E5"/>
<stop offset="0.0001" stop-color="#D1D1D1"/>
<stop offset="1" stop-color="#E5E5E5"/>
</linearGradient>
<linearGradient id="paint1_linear_326_7865" x1="3.1917" y1="13.0674" x2="13.0151" y2="13.0674" gradientUnits="userSpaceOnUse">
<stop stop-color="#E5E5E5"/>
<stop offset="0.0001" stop-color="#D1D1D1"/>
<stop offset="1" stop-color="#E5E5E5"/>
</linearGradient>
<linearGradient id="paint2_linear_326_7865" x1="6.35205" y1="16.2434" x2="16.1978" y2="16.2434" gradientUnits="userSpaceOnUse">
<stop stop-color="#E42038"/>
<stop offset="1" stop-color="#E67B95"/>
</linearGradient>
<linearGradient id="paint3_linear_326_7865" x1="6.35577" y1="16.2378" x2="16.2014" y2="16.2378" gradientUnits="userSpaceOnUse">
<stop stop-color="#E5E5E5"/>
<stop offset="0.0001" stop-color="#D1D1D1"/>
<stop offset="1" stop-color="#E5E5E5"/>
</linearGradient>
<linearGradient id="paint4_linear_326_7865" x1="9.53955" y1="19.3923" x2="19.363" y2="19.3923" gradientUnits="userSpaceOnUse">
<stop stop-color="#E42038"/>
<stop offset="1" stop-color="#E67B95"/>
</linearGradient>
<linearGradient id="paint5_linear_326_7865" x1="9.54326" y1="19.3867" x2="19.3666" y2="19.3867" gradientUnits="userSpaceOnUse">
<stop stop-color="#E5E5E5"/>
<stop offset="0.0001" stop-color="#D1D1D1"/>
<stop offset="1" stop-color="#E5E5E5"/>
</linearGradient>
<linearGradient id="paint6_linear_326_7865" x1="12.7036" y1="22.5627" x2="22.5494" y2="22.5627" gradientUnits="userSpaceOnUse">
<stop stop-color="#E42038"/>
<stop offset="1" stop-color="#E67B95"/>
</linearGradient>
<linearGradient id="paint7_linear_326_7865" x1="12.7073" y1="22.5571" x2="22.5531" y2="22.5571" gradientUnits="userSpaceOnUse">
<stop stop-color="#E5E5E5"/>
<stop offset="0.0001" stop-color="#D1D1D1"/>
<stop offset="1" stop-color="#E5E5E5"/>
</linearGradient>
<linearGradient id="paint8_linear_326_7865" x1="16.0477" y1="22.4647" x2="33.222" y2="22.4647" gradientUnits="userSpaceOnUse">
<stop stop-color="#E42038"/>
<stop offset="1" stop-color="#E67B95"/>
</linearGradient>
<linearGradient id="paint9_linear_326_7865" x1="16.0542" y1="22.4573" x2="33.2284" y2="22.4573" gradientUnits="userSpaceOnUse">
<stop stop-color="#E5E5E5"/>
<stop offset="0.0001" stop-color="#D1D1D1"/>
<stop offset="1" stop-color="#E5E5E5"/>
</linearGradient>
<linearGradient id="paint10_linear_326_7865" x1="19.1669" y1="25.722" x2="36.3189" y2="25.722" gradientUnits="userSpaceOnUse">
<stop stop-color="#E42038"/>
<stop offset="1" stop-color="#E67B95"/>
</linearGradient>
<linearGradient id="paint11_linear_326_7865" x1="19.1733" y1="25.7147" x2="36.3253" y2="25.7147" gradientUnits="userSpaceOnUse">
<stop stop-color="#E5E5E5"/>
<stop offset="0.0001" stop-color="#D1D1D1"/>
<stop offset="1" stop-color="#E5E5E5"/>
</linearGradient>
<linearGradient id="paint12_linear_326_7865" x1="22.273" y1="28.9724" x2="39.4472" y2="28.9724" gradientUnits="userSpaceOnUse">
<stop stop-color="#E5E5E5"/>
<stop offset="0.0001" stop-color="#D1D1D1"/>
<stop offset="1" stop-color="#E5E5E5"/>
</linearGradient>
<clipPath id="clip0_326_7865">
<rect width="145" height="42" fill="white"/>
</clipPath>
</defs>
</svg>
