<svg width="108" height="41" viewBox="0 0 108 41" fill="none" xmlns="http://www.w3.org/2000/svg">
<path d="M49.1132 19.8974V34.4719H52.592V19.8974H49.1132ZM42.8543 14.3495H39.2843C38.8894 14.3495 38.9501 14.7094 38.9501 14.7094C39.0109 15.1742 39.1174 15.9239 39.1174 17.4833C39.1174 20.947 38.6919 25.9251 34.8485 30.6633L34.5904 30.9932C34.5904 30.9932 32.2661 15.0393 32.2357 14.7394C32.2357 14.7394 32.2357 14.3795 31.9015 14.3795H28.286C27.9518 14.3795 27.9518 14.7394 27.9518 14.7394C27.8455 16.5687 26.8277 31.9378 15.4647 34.4269C17.8801 34.6818 20.7968 33.9321 23.3489 32.4027C26.4935 30.4684 28.6201 27.6345 29.3037 24.3657C29.3037 24.3657 30.7013 32.9275 30.8532 34.8917V35.0267L30.7469 35.0866C27.5719 36.751 23.9564 37.6656 20.3409 37.6656C11.3933 37.6656 3.47879 32.4326 0 24.4557C2.05081 33.8421 10.5275 40.6645 20.4322 40.6645C31.9927 40.6645 38.8743 31.1131 40.0744 24.3207C40.0744 24.3207 41.6239 34.232 41.6695 34.5468H46.4091C46.3484 34.127 43.2037 15.0992 43.1581 14.7994C43.1581 14.7994 43.1581 14.4395 42.8239 14.4395V14.3495H42.8543ZM2.81037 22.6864C2.81037 12.2203 11.758 3.71858 22.7109 3.71858C29.5013 3.71858 35.8209 7.0923 39.4971 12.5502C36.8083 5.09806 29.3341 0 20.9486 0C10.1173 0 1.30638 8.33682 1.30638 18.5629C1.30638 21.3819 2.00526 24.1258 3.29652 26.6448C2.99269 25.3703 2.79509 24.0358 2.79509 22.7163V22.6864H2.81037ZM85.815 21.9966C84.5542 20.5572 82.8072 19.8075 80.6804 19.8075C78.5232 19.8075 76.7004 20.4972 75.2421 21.8617C73.8141 23.1962 73.0848 24.9955 73.0848 27.2296C73.0848 29.4188 73.7837 31.1881 75.1661 32.4926C76.5637 33.7971 78.5841 34.4569 81.0907 34.4569C85.9974 34.4569 87.0456 31.1281 87.4558 30.0485L86.1948 29.6587C85.0706 31.6829 82.5489 31.8179 81.0602 31.7129C79.9968 31.6529 79.0399 31.2931 78.2803 30.7683C77.5207 30.2135 76.989 29.4338 76.7612 28.2192L76.7003 27.7544H87.6989C87.6685 25.3703 87.0303 23.4361 85.815 22.0266V21.9966ZM76.9739 25.6852C76.8068 25.6852 76.8066 25.5203 76.8066 25.4603C76.9434 24.6056 77.2776 23.9609 77.87 23.3611C78.5384 22.6714 79.5562 22.2815 80.65 22.2815C81.6374 22.2815 82.4427 22.5814 83.1415 23.1362C83.7036 23.631 84.0984 24.3057 84.3263 25.2654C84.3567 25.3703 84.4327 25.6552 84.1593 25.6552H76.9739V25.6852ZM96.8895 19.7325C92.7119 19.7325 91.2232 22.2515 90.7675 23.4211C90.7675 23.4511 90.6003 23.8409 90.6003 23.8409L91.9978 24.3057C91.9978 24.3057 92.8942 21.7567 96.4338 21.9216C100.004 22.0566 99.5784 24.9655 99.5784 25.4153C97.5883 24.8305 94.778 24.8905 92.9246 25.7152C90.6004 26.7648 90.2358 28.849 90.3421 30.3934C90.4485 32.6875 92.4993 34.2769 95.1425 34.4119C97.5276 34.5468 98.591 34.022 99.5784 33.0774L99.548 34.4119H102.693V30.5883V25.8801V25.0555V24.3657C102.753 22.6264 101.538 19.6875 96.8895 19.6875V19.7325ZM99.5328 31.0532C99.5328 31.2781 99.472 31.443 99.2746 31.548C98.6821 31.8479 97.4212 32.2377 95.8565 32.1328C94.2311 31.9978 93.6082 30.8582 93.5019 30.3634C93.4715 30.1685 93.1068 28.0393 95.188 27.3946C96.54 26.9747 98.2719 27.2296 99.1986 27.4995C99.4568 27.5595 99.5328 27.7244 99.5328 28.0543V31.0982V31.0532ZM52.3641 14.3495H49.4778C49.0524 14.3495 49.1132 14.7694 49.1132 14.7694C49.1132 15.2342 49.1132 17.3784 49.1132 17.8432H52.6526V14.7394C52.6526 14.7394 52.683 14.3795 52.3184 14.3795L52.3641 14.3495ZM70.0465 14.3495H67.0996C66.7957 14.3495 66.7957 14.6794 66.7957 14.6794V20.6471L66.3703 20.4222C65.8993 20.1973 65.4437 20.0324 64.9424 19.9274C64.4411 19.8224 63.8485 19.7925 63.1801 19.7925C60.8559 19.7925 58.9722 20.4522 57.5898 21.7867C56.2377 23.0912 55.5086 24.9955 55.5086 27.3046C55.5086 29.3588 56.1011 31.0982 57.2709 32.4626C58.4254 33.7971 60.1267 34.4869 62.3446 34.4869C65.5196 34.4869 66.7804 32.5976 66.7804 32.5976V34.4269H70.3504V30.9932C70.3504 27.1397 70.3504 14.6794 70.3504 14.6794C70.3504 14.6794 70.3504 14.3495 70.0465 14.3495ZM66.6134 30.4984C66.2792 30.7983 65.8539 31.0232 65.3222 31.2181C64.7601 31.443 64.0916 31.548 63.3624 31.548C62.1775 31.548 61.2054 31.1581 60.5066 30.3784C59.8078 29.5987 59.4736 28.4442 59.4736 26.9147C59.4736 25.4153 59.8078 24.3057 60.4306 23.616C61.099 22.8963 62.0864 22.5364 63.408 22.5364C64.1068 22.5364 64.7601 22.6414 65.3678 22.8663C65.8995 23.0612 66.2943 23.2561 66.5981 23.526C66.7045 23.631 66.7957 23.7809 66.7957 24.0208V30.0036C66.7957 30.2285 66.6893 30.3934 66.5981 30.4984H66.6134Z" fill="#CFCFCF"/>
<path d="M104.835 11.9204C103.604 11.9204 102.677 12.8351 102.677 14.0496C102.677 15.2192 103.604 16.1788 104.835 16.1788C106.065 16.1788 106.992 15.2641 106.992 14.0496C106.992 12.88 106.05 11.9204 104.835 11.9204ZM104.835 12.2203C105.868 12.2203 106.657 13.045 106.657 14.0496C106.657 15.0692 105.898 15.8789 104.835 15.8789C103.802 15.8789 103.012 15.0542 103.012 14.0496C103.012 13.03 103.771 12.2203 104.835 12.2203ZM104.364 14.1845H104.895L105.594 15.2641H105.959L105.229 14.1845C105.564 14.1246 105.852 13.9296 105.852 13.4948C105.852 13.075 105.624 12.8051 105.062 12.8051H104.105V15.2641H104.409V14.1845H104.364ZM104.364 13.9146V13.06H104.926C105.229 13.06 105.518 13.12 105.518 13.4798C105.518 13.8997 105.154 13.8997 104.789 13.8997H104.394H104.364V13.9146Z" fill="#CFCFCF"/>
</svg>
