<svg width="112" height="33" viewBox="0 0 112 33" fill="none" xmlns="http://www.w3.org/2000/svg">
<path d="M23.4697 32.8964H29.6855V10.5195H23.4697V32.8964Z" fill="#CFCFCF"/>
<path d="M6.96484 26.7621V32.8817H29.6932V26.7621H6.96484Z" fill="#CFCFCF"/>
<path d="M6.9306 4.37366H0.714844V26.7506H6.9306V4.37366Z" fill="#CFCFCF"/>
<path d="M23.4324 10.5095V4.38989H0.704102V10.5095H23.4324Z" fill="#CFCFCF"/>
<path d="M53.0883 26.561H60.2795L51.5602 1.01961H43.488L34.7866 26.561H41.3306L43.0026 20.95H51.4703L53.0883 26.561ZM47.1016 6.77215H47.4432L50.2298 16.2772H44.2611L47.1016 6.77215ZM86.8689 15.9231V12.6309H75.7588V17.0914H80.5049L80.4869 17.5161C80.3252 20.1004 78.2398 21.835 75.2373 21.835C71.462 21.835 69.0349 18.7552 69.0349 13.693C69.0349 8.71924 71.2282 5.74561 74.9138 5.74561C77.5026 5.74561 79.4443 7.10851 80.0914 9.35637H86.5999C85.9525 3.9579 81.2421 0.329346 74.9138 0.329346C67.1292 0.329346 62.3111 5.46238 62.3111 13.7637C62.3111 22.1713 67.1113 27.2513 75.0935 27.2513C82.429 27.2513 86.8689 22.9501 86.8689 15.9231ZM104.29 26.561V6.24118H111.787V1.01961H90.2314V6.24118H97.71V26.561H104.29Z" fill="#CFCFCF"/>
</svg>
