<svg width="122" height="35" viewBox="0 0 122 35" fill="none" xmlns="http://www.w3.org/2000/svg">
<g clip-path="url(#clip0_1081_8845)">
<path fill-rule="evenodd" clip-rule="evenodd" d="M55.0801 12.3472H52.0127V9.35327H55.0801V12.3472Z" fill="#CFCFCF"/>
<path fill-rule="evenodd" clip-rule="evenodd" d="M55.1694 30.3657H52.0127V15.6035H55.1694V30.3657Z" fill="#CFCFCF"/>
<path fill-rule="evenodd" clip-rule="evenodd" d="M11.2547 18.6194C10.842 17.7234 9.98309 15.3632 7.27259 15.3632C5.59944 15.3632 4.07131 16.6198 3.15665 17.5813V9.42993H0V30.1035H3.15665V22.5093C3.50244 21.0124 4.75172 18.7068 6.2687 18.7068C8.04224 18.7068 7.88608 19.9088 7.88608 19.9088V30.027H11.3885V21.2637C11.4108 20.5207 11.4108 18.9581 11.2547 18.6194Z" fill="#CFCFCF"/>
<path fill-rule="evenodd" clip-rule="evenodd" d="M84.4935 18.6194C84.0808 17.7234 83.2219 15.3632 80.5114 15.3632C78.8382 15.3632 77.3101 16.6198 76.3954 17.5813V9.42993H73.2388V30.1035H76.3954V22.5093C76.7412 21.0124 77.9905 18.7068 79.5075 18.7068C81.281 18.7068 81.1248 19.9088 81.1248 19.9088V30.027H84.6273V21.2637C84.6496 20.5207 84.6497 18.9581 84.4935 18.6194Z" fill="#CFCFCF"/>
<path fill-rule="evenodd" clip-rule="evenodd" d="M26.4356 19.7228C26.4356 15.6362 20.5239 15.1772 20.5239 15.1772C13.954 15.1772 14.1102 22.1049 14.1102 22.1049C14.1102 30.1689 20.4793 30.5404 21.9182 30.5404C23.3459 30.5404 26.246 30.005 26.246 30.005V27.4699C24.8963 28.0053 22.8105 27.9944 22.8105 27.9944C18.4046 27.9944 17.8692 22.2469 17.8692 22.2469H26.4467V19.7228H26.4356ZM17.8579 20.2145C17.8579 20.2145 18.0922 17.6467 20.2561 17.6467C22.42 17.6467 23.1562 19.4606 23.1562 20.1817L17.8579 20.2145Z" fill="#CFCFCF"/>
<path fill-rule="evenodd" clip-rule="evenodd" d="M64.8176 17.6359C66.9816 17.6359 67.2827 20.0179 67.2827 20.7391L71.0306 20.7172C71.0306 14.6966 65.0854 15.1773 65.0854 15.1773C58.5155 15.1773 58.6717 22.1049 58.6717 22.1049C58.6717 30.1689 65.0408 30.5405 66.4797 30.5405C67.9075 30.5405 70.8075 30.005 70.8075 30.005V27.47C69.4578 28.0054 67.372 27.9945 67.372 27.9945C62.4307 27.9945 62.4306 22.247 62.4306 22.247C62.4306 22.247 61.9956 17.6359 64.8176 17.6359Z" fill="#CFCFCF"/>
<path fill-rule="evenodd" clip-rule="evenodd" d="M38.2703 18.1822V15.6144H34.0652V12.4129L34.0875 10.4897L30.4735 12.0086V15.6144H27.3169V18.1822H30.4735V26.4975H30.507C30.4959 27.0439 30.4846 27.8197 30.5292 28.4207C30.6854 30.3875 33.3848 30.5077 33.3848 30.5077H37.7908V27.929C37.7908 27.929 37.4784 27.9617 35.6268 27.9617C33.7752 27.9617 34.0764 25.8419 34.0764 25.8419H34.0541V18.1713H38.2703V18.1822Z" fill="#CFCFCF"/>
<path fill-rule="evenodd" clip-rule="evenodd" d="M49.6255 18.1822V15.6144H45.4203V12.4129L45.4426 10.4897L41.8286 12.0086V15.6144H38.6719V18.1822H41.8286V26.4975H41.8621C41.8509 27.0439 41.8398 27.8197 41.8844 28.4207C42.0406 30.3875 44.7398 30.5077 44.7398 30.5077H49.1457V27.929C49.1457 27.929 48.8335 27.9617 46.9819 27.9617C45.1303 27.9617 45.4315 25.8419 45.4315 25.8419H45.4091V18.1713H49.6255V18.1822Z" fill="#CFCFCF"/>
<path fill-rule="evenodd" clip-rule="evenodd" d="M91.9896 16.2045L121.883 0V3.17971L91.9443 19.5372L91.9896 16.2045Z" fill="#CFCFCF"/>
<path fill-rule="evenodd" clip-rule="evenodd" d="M91.9896 21.3072L121.883 5.10278V8.28249L91.9443 24.6399L91.9896 21.3072Z" fill="#CFCFCF"/>
<path fill-rule="evenodd" clip-rule="evenodd" d="M91.9896 26.4102L121.883 10.1948V13.3745L91.9443 29.7429L91.9896 26.4102Z" fill="#CFCFCF"/>
<path fill-rule="evenodd" clip-rule="evenodd" d="M91.9896 31.5019L121.883 15.2974V18.4771L91.9443 34.8345L91.9896 31.5019Z" fill="#CFCFCF"/>
</g>
<defs>
<clipPath id="clip0_1081_8845">
<rect width="122" height="35" fill="white"/>
</clipPath>
</defs>
</svg>
