<svg width="80" height="50" viewBox="0 0 80 50" fill="none" xmlns="http://www.w3.org/2000/svg">
<path d="M3.70469 8.01814e-05C1.65931 8.01814e-05 0 1.65852 0 3.70477V46.2954C0 48.3412 1.65955 50 3.70469 50H75.9131C77.9584 50 79.6178 48.3416 79.6178 46.2953V3.70469C79.6178 1.65876 77.9582 0 75.9131 0H3.70461L3.70469 8.01814e-05ZM26.1071 6.0187C30.6518 6.0187 34.8256 7.59983 38.102 10.2409C35.3455 12.7074 33.2894 15.9479 32.275 19.6209H33.8649C34.8012 16.5908 36.5021 13.8931 38.7439 11.7536C40.9858 13.8931 42.6866 16.5908 43.623 19.6209H45.2378C44.2093 15.9673 42.1504 12.7461 39.3959 10.2957C42.6785 7.62109 46.8688 6.01862 51.433 6.01862C61.9657 6.01862 70.5039 14.5578 70.5039 25.0921C70.5039 35.6264 61.9657 44.1655 51.433 44.1655C46.7929 44.1655 42.5381 42.5093 39.2316 39.7542C42.1894 37.1809 44.37 33.7313 45.3672 29.807H43.812C42.9266 33.1007 41.1444 36.0303 38.7439 38.3211C36.3434 36.0303 34.5637 33.1007 33.6782 29.807H32.1978C33.2008 33.6745 35.3529 37.0758 38.2662 39.6249C34.9657 42.3459 30.7276 43.9814 26.107 43.9814C15.5744 43.9814 7.03621 35.4833 7.03621 25C7.03621 14.5168 15.5744 6.0187 26.1071 6.0187ZM50.0024 19.4268C47.7109 19.4268 45.4816 21.4301 45.4816 25.1916C45.4816 27.6859 46.6857 29.3317 49.0544 29.3317C49.7242 29.332 50.7911 29.0581 50.7911 29.0581L51.1444 26.8785C51.1444 26.8785 50.1707 27.3711 49.5023 27.3711C48.0942 27.3711 47.5293 26.2883 47.5293 25.1245C47.5293 22.7636 48.7407 21.4645 50.0895 21.4645C51.1008 21.4645 51.9132 22.0367 51.9132 22.0367L52.2367 19.9169C52.2367 19.9169 51.0341 19.4268 50.0023 19.4268H50.0024ZM69.2674 19.611L67.2745 19.6159L66.8465 22.2383C66.8465 22.2383 66.0973 21.2207 64.9257 21.2207C63.1041 21.2207 61.5867 23.3847 61.5867 25.8734C61.5867 27.4798 62.3943 29.0555 64.0499 29.0555C65.2409 29.0555 65.9011 28.2371 65.9011 28.2371L65.814 28.9361H67.7497L69.2674 19.611ZM12.1864 19.6383L10.5991 28.9859H12.5124L13.7216 21.9373L13.9008 28.9859H15.2692L17.8219 21.9373L16.6899 28.9859H18.7226L20.2901 19.6383H17.1452L15.1871 25.3732L15.0851 19.6383H12.1865L12.1864 19.6383ZM32.1755 20.2454C32.1323 20.2887 31.0186 26.7109 31.0186 27.493C31.0186 28.6511 31.6677 29.1684 32.5811 29.1601C33.2355 29.1545 33.7424 28.9901 33.9768 28.9212C34.0014 28.9146 34.049 28.9013 34.049 28.9013L34.2953 27.2293C34.1614 27.2293 33.9641 27.2866 33.7902 27.2866C33.1083 27.2866 33.0327 26.9238 33.0761 26.6546L33.626 23.2435H34.6635L34.9148 21.3948H33.937L34.1361 20.2454H32.1755ZM55.302 21.1859C53.9665 21.1859 52.9433 21.6262 52.9433 21.6262L52.6596 23.343C52.6596 23.343 53.5047 22.9922 54.782 22.9922C55.5071 22.9922 56.0383 23.0751 56.0383 23.6789C56.0383 24.0456 55.9737 24.1815 55.9737 24.1815C55.9737 24.1815 55.4003 24.1317 55.1352 24.1317C53.4512 24.1317 51.6818 24.8698 51.6818 27.09C51.6818 28.8394 52.8434 29.2397 53.5628 29.2397C54.9368 29.2397 55.5293 28.3269 55.5607 28.3241L55.496 29.0855H57.2103L57.9766 23.5918C57.9769 21.2608 55.9914 21.1858 55.302 21.1858V21.1859ZM23.1438 21.1958C21.8035 21.1958 20.7752 21.6362 20.7752 21.6362L20.4916 23.353C20.4916 23.353 21.3395 23.0021 22.6214 23.0021C23.3492 23.0021 23.8828 23.0854 23.8828 23.6888C23.8828 24.0554 23.8181 24.1914 23.8181 24.1914C23.8181 24.1914 23.243 24.1417 22.9772 24.1417C21.2867 24.1417 19.5113 24.8785 19.5113 27.0975C19.5113 28.8459 20.6752 29.2472 21.3972 29.2472C22.7763 29.2472 23.371 28.3343 23.4027 28.3316L23.3379 29.0929H25.0597L25.8285 23.6018C25.8285 21.2721 23.8359 21.1957 23.1438 21.1957V21.1958ZM29.2246 21.1958C27.7854 21.1958 26.3236 21.7768 26.3236 23.761C26.3236 26.0093 28.7594 25.7821 28.7594 26.7292C28.7594 27.3613 28.0796 27.4135 27.5552 27.4135C26.6476 27.4135 25.8314 27.0999 25.8285 27.1149L25.5672 28.8316C25.6142 28.8462 26.1196 29.073 27.7518 29.073C28.19 29.073 30.6951 29.1843 30.6951 26.575C30.6951 24.1356 28.3762 24.6191 28.3762 23.6391C28.3762 23.1512 28.7527 22.9972 29.4436 22.9972C29.7179 22.9972 30.7748 23.0843 30.7748 23.0843L31.0186 21.35C31.0186 21.3503 30.3366 21.1958 29.2247 21.1958H29.2246ZM38.2214 21.1958C36.2214 21.1962 34.7407 23.3469 34.7407 25.7763C34.7407 28.5804 36.5959 29.2472 38.1767 29.2472C39.6357 29.2472 40.2791 28.9212 40.2791 28.9212L40.6274 27.0079C40.6274 27.0079 39.5174 27.4956 38.515 27.4956C36.3792 27.4956 36.7535 25.9057 36.7535 25.9057H40.7966C40.7966 25.9057 41.0579 24.6208 41.0579 24.0969C41.0579 22.7895 40.4054 21.1958 38.2215 21.1958H38.2214ZM45.4642 21.2779C44.5632 21.2779 43.8942 22.4896 43.8942 22.4896L44.0733 21.3774H42.2023L40.9459 29.0556H43.0134C43.599 25.7768 43.706 23.1145 45.1034 23.6018C45.348 22.3327 45.5853 21.8424 45.8523 21.3053C45.8523 21.3053 45.7269 21.2779 45.4642 21.2779H45.4642ZM62.2162 21.2779C61.3152 21.2779 60.6463 22.4896 60.6463 22.4896L60.8254 21.3774H58.9544L57.6979 29.0556H59.763C60.3488 25.7768 60.4585 23.1145 61.8554 23.6018C62.1005 22.3327 62.3376 21.8424 62.6044 21.3053C62.6044 21.3053 62.4789 21.2779 62.2163 21.2779H62.2162ZM38.2115 22.9275C39.3474 22.9275 39.1396 24.2097 39.1396 24.3133H36.9028C36.9028 24.181 37.1144 22.9275 38.2115 22.9275H38.2115ZM65.2393 23.0768C65.9622 23.0766 66.334 23.5649 66.334 24.7139C66.334 25.7564 65.8082 27.1497 64.7192 27.1497C63.9964 27.1497 63.6568 26.5528 63.6568 25.6171C63.6568 24.087 64.3568 23.0768 65.2392 23.0768H65.2393ZM55.3044 25.6892C55.5993 25.6896 55.6603 25.7183 55.71 25.7316C55.7028 25.7304 55.7015 25.7317 55.7299 25.7365C55.7672 26.0785 55.5233 27.6822 54.344 27.6822C53.736 27.6822 53.5802 27.1987 53.5802 26.9133C53.5802 26.357 53.8699 25.6892 55.3044 25.6892ZM23.1464 25.6967C23.4813 25.6971 23.5179 25.7345 23.5743 25.744C23.6117 26.0858 23.3668 27.6871 22.1835 27.6871C21.573 27.6871 21.4147 27.2059 21.4147 26.9208C21.4147 26.3648 21.7061 25.6967 23.1464 25.6967Z" fill="#BFC1C7"/>
</svg>
