<svg width="30" height="30" viewBox="0 0 30 30" fill="none" xmlns="http://www.w3.org/2000/svg">
<path d="M27.8275 29.6667C12.1874 29.6887 0.316525 17.6767 0.333025 2.17217C0.333025 1.15833 1.15436 0.333334 2.16636 0.333334H7.00636C7.91386 0.333334 8.68569 1.00067 8.81952 1.899C9.13871 4.05327 9.76538 6.15059 10.6804 8.12683L10.8692 8.53383C10.996 8.80772 11.0233 9.11728 10.9463 9.40913C10.8694 9.70098 10.693 9.95681 10.4475 10.1325C8.94786 11.2032 8.37586 13.3573 9.54369 15.0367C11.014 17.1511 12.8491 18.9868 14.963 20.4578C16.6442 21.6238 18.7984 21.0518 19.8672 19.554C20.0427 19.3078 20.2987 19.1308 20.591 19.0534C20.8833 18.9761 21.1934 19.0034 21.4677 19.1305L21.8729 19.3175C23.8492 20.2342 25.9465 20.8612 28.1007 21.1802C28.999 21.314 29.6664 22.0858 29.6664 22.9952V27.8333C29.6664 28.0742 29.6189 28.3128 29.5266 28.5353C29.4344 28.7579 29.2992 28.9601 29.1287 29.1303C28.9583 29.3006 28.756 29.4356 28.5333 29.5276C28.3107 29.6197 28.0721 29.6669 27.8312 29.6667H27.8275Z" fill="#E3B23C"/>
</svg>
