<svg width="21" height="21" viewBox="0 0 21 21" xmlns="http://www.w3.org/2000/svg">
<path d="M18.6232 7.24127L13.4163 6.48453L11.0886 1.76568C11.0251 1.63648 10.9205 1.53189 10.7913 1.46832C10.4672 1.30836 10.0735 1.44166 9.91148 1.76568L7.58384 6.48453L2.3769 7.24127C2.23335 7.26178 2.1021 7.32945 2.00161 7.43199C1.88012 7.55686 1.81318 7.72485 1.81549 7.89904C1.81779 8.07324 1.88916 8.2394 2.01391 8.361L5.7812 12.0339L4.89116 17.2204C4.87029 17.341 4.88364 17.4651 4.9297 17.5786C4.97576 17.692 5.05268 17.7903 5.15175 17.8622C5.25082 17.9342 5.36807 17.9769 5.4902 17.9856C5.61232 17.9943 5.73445 17.9687 5.84273 17.9115L10.5001 15.4629L15.1574 17.9115C15.2845 17.9792 15.4322 18.0017 15.5737 17.9771C15.9305 17.9156 16.1705 17.5772 16.1089 17.2204L15.2189 12.0339L18.9862 8.361C19.0887 8.26051 19.1564 8.12926 19.1769 7.98571C19.2323 7.62682 18.9821 7.29459 18.6232 7.24127Z"/>
</svg>
