<svg width="80" height="50" viewBox="0 0 80 50" fill="none" xmlns="http://www.w3.org/2000/svg">
<path d="M3.19355 0C1.43015 0 0 1.4258 0 3.18471V46.8153C0 48.5741 1.43087 50 3.19355 50H76.6452C78.4086 50 79.8387 48.5742 79.8387 46.8153V3.18471C79.8387 1.42588 78.4078 0 76.6452 0H3.19355ZM47.6837 14.901C49.6268 14.901 51.184 15.329 52.1771 15.727L51.4984 19.9841L51.0494 19.7576C50.1243 19.3596 48.936 18.9766 47.2969 19.0037C45.3348 19.0037 44.4278 19.8766 44.4278 20.6932C44.4163 21.6134 45.4876 22.2202 47.2395 23.129C50.131 24.5311 51.4675 26.2311 51.4486 28.4658C51.4097 32.5436 47.9897 35.1787 42.7212 35.1787C40.4735 35.154 38.308 34.6795 37.1375 34.1311L37.8411 29.7322L38.4873 30.0458C40.1333 30.7792 41.1992 31.0759 43.2052 31.0759C44.6457 31.0759 46.1919 30.4744 46.2042 29.1576C46.2135 28.2977 45.5579 27.6846 43.6069 26.7217C41.7057 25.7819 39.1854 24.2076 39.2133 21.3849C39.243 17.5663 42.7313 14.901 47.6837 14.901ZM7.0607 15.5255H15.1519C16.2414 15.5666 17.1211 15.9164 17.4248 17.0955L19.1688 26.0724C19.169 26.0732 19.1685 26.0764 19.1688 26.0773L19.6927 28.767L24.6053 15.5255H29.9196L22.0205 34.9075L16.7112 34.9124L12.4848 19.2725C14.9995 20.601 17.1405 22.1382 18.3804 24.2536C18.0607 23.5842 17.6395 22.8287 17.1005 22.084C16.4728 21.2168 15.1172 20.0971 14.5506 19.6208C12.5762 17.961 9.89481 16.6205 6.99834 15.9111L7.0607 15.5255ZM32.0328 15.5479H37.2298L33.9788 34.9H28.7819L32.0328 15.5479ZM61.386 15.5479H65.3231L69.4447 34.9H64.7193C64.7193 34.9 64.2504 32.6768 64.098 31.9989C63.3553 31.9989 58.1607 31.9915 57.5762 31.9915C57.3784 32.5154 56.5034 34.8999 56.5034 34.8999H51.1567L58.7189 17.1552C59.2543 15.8942 60.1669 15.5479 61.386 15.5479ZM61.7727 20.7529C61.517 21.4727 61.0717 22.6351 61.1015 22.5841C61.1015 22.5841 59.5018 26.8389 59.0832 27.9434L63.2871 27.9408C63.0846 26.9813 62.1145 22.4051 62.1145 22.4051L61.7727 20.753V20.7529Z" fill="#BFC1C7"/>
</svg>
