<svg width="21" height="14" viewBox="0 0 21 14" fill="none" xmlns="http://www.w3.org/2000/svg">
<path d="M20.4788 1.4259C20.6246 0.922151 20.4788 0.552734 19.7892 0.552734H17.5048C16.9236 0.552734 16.6579 0.872318 16.5121 1.22332C16.5121 1.22332 15.3507 4.1689 13.7048 6.07882C13.1736 6.63457 12.9309 6.81007 12.6413 6.81007C12.4965 6.81007 12.2861 6.63457 12.2861 6.13082V1.4259C12.2861 0.821401 12.1184 0.552734 11.634 0.552734H8.0444C7.6819 0.552734 7.46315 0.832235 7.46315 1.09873C7.46315 1.67073 8.28607 1.8029 8.37044 3.4149V6.9119C8.37044 7.67782 8.23815 7.81757 7.94649 7.81757C7.17253 7.81757 5.28919 4.86115 4.17148 1.47682C3.95378 0.819235 3.73398 0.553818 3.15065 0.553818H0.867318C0.214193 0.553818 0.0839844 0.873401 0.0839844 1.2244C0.0839844 1.8549 0.857943 4.9749 3.68919 9.10132C5.57669 11.9191 8.23398 13.4466 10.6548 13.4466C12.1059 13.4466 12.285 13.1075 12.285 12.5225V10.3927C12.285 9.71449 12.4236 9.57798 12.8829 9.57798C13.2204 9.57798 13.8017 9.75565 15.1569 11.1131C16.7048 12.7229 16.9611 13.4455 17.8309 13.4455H20.1142C20.7663 13.4455 21.0923 13.1064 20.9048 12.4369C20.6996 11.7707 19.96 10.8011 18.9788 9.65382C18.4454 8.99949 17.6486 8.29532 17.4059 7.94324C17.0673 7.48932 17.1652 7.2889 17.4059 6.8859C17.4069 6.88699 20.1892 2.81148 20.4788 1.4259Z" fill="#E3B23C"/>
</svg>
