<svg width="25" height="26" viewBox="0 0 25 26" xmlns="http://www.w3.org/2000/svg">
<path d="M22.4788 7.4259C22.6246 6.92215 22.4788 6.55273 21.7892 6.55273H19.5048C18.9236 6.55273 18.6579 6.87232 18.5121 7.22332C18.5121 7.22332 17.3507 10.1689 15.7048 12.0788C15.1736 12.6346 14.9309 12.8101 14.6413 12.8101C14.4965 12.8101 14.2861 12.6346 14.2861 12.1308V7.4259C14.2861 6.8214 14.1184 6.55273 13.634 6.55273H10.0444C9.6819 6.55273 9.46315 6.83223 9.46315 7.09873C9.46315 7.67073 10.2861 7.8029 10.3704 9.4149V12.9119C10.3704 13.6778 10.2382 13.8176 9.94649 13.8176C9.17253 13.8176 7.28919 10.8612 6.17148 7.47682C5.95378 6.81923 5.73398 6.55382 5.15065 6.55382H2.86732C2.21419 6.55382 2.08398 6.8734 2.08398 7.2244C2.08398 7.8549 2.85794 10.9749 5.68919 15.1013C7.57669 17.9191 10.234 19.4466 12.6548 19.4466C14.1059 19.4466 14.285 19.1075 14.285 18.5225V16.3927C14.285 15.7145 14.4236 15.578 14.8829 15.578C15.2204 15.578 15.8017 15.7557 17.1569 17.1131C18.7048 18.7229 18.9611 19.4455 19.8309 19.4455H22.1142C22.7663 19.4455 23.0923 19.1064 22.9048 18.4369C22.6996 17.7707 21.96 16.8011 20.9788 15.6538C20.4454 14.9995 19.6486 14.2953 19.4059 13.9432C19.0673 13.4893 19.1652 13.2889 19.4059 12.8859C19.4069 12.887 22.1892 8.81148 22.4788 7.4259Z"/>
</svg>
