<svg width="34" height="34" viewBox="0 0 34 34" fill="none" xmlns="http://www.w3.org/2000/svg">
<path d="M31.2541 9.83145C31.0847 9.20071 30.7527 8.62552 30.2912 8.16344C29.8297 7.70136 29.2549 7.36859 28.6244 7.19844C26.3035 6.57422 17 6.57422 17 6.57422C17 6.57422 7.69648 6.57422 5.37559 7.19512C4.74479 7.36472 4.16973 7.6973 3.70814 8.15947C3.24656 8.62164 2.9147 9.19712 2.7459 9.82812C2.125 12.1523 2.125 17 2.125 17C2.125 17 2.125 21.8477 2.7459 24.1686C3.08789 25.4502 4.09727 26.4596 5.37559 26.8016C7.69648 27.4258 17 27.4258 17 27.4258C17 27.4258 26.3035 27.4258 28.6244 26.8016C29.9061 26.4596 30.9121 25.4502 31.2541 24.1686C31.875 21.8477 31.875 17 31.875 17C31.875 17 31.875 12.1523 31.2541 9.83145ZM14.0449 21.4492V12.5508L21.748 16.9668L14.0449 21.4492Z" fill="#E3B23C"/>
</svg>
