<?xml version="1.0" standalone="no"?>
<!DOCTYPE svg PUBLIC "-//W3C//DTD SVG 20010904//EN"
 "http://www.w3.org/TR/2001/REC-SVG-20010904/DTD/svg10.dtd">
<svg version="1.0" xmlns="http://www.w3.org/2000/svg"
 width="700.000000pt" height="700.000000pt" viewBox="0 0 700.000000 700.000000"
 preserveAspectRatio="xMidYMid meet">
<metadata>
Created by potrace 1.14, written by Peter Selinger 2001-2017
</metadata>
<g transform="translate(0.000000,700.000000) scale(0.100000,-0.100000)"
fill="#000000" stroke="none">
<path d="M0 3525 l0 -3475 3475 0 3475 0 0 3475 0 3475 -3475 0 -3475 0 0
-3475z m6560 0 l0 -3085 -3085 0 -3085 0 0 3085 0 3085 3085 0 3085 0 0 -3085z"/>
<path d="M642 4964 c0 -767 2 -1394 3 -1394 1 0 27 5 56 11 156 30 411 16 614
-36 145 -37 241 -73 390 -145 431 -210 734 -527 917 -960 150 -353 190 -756
113 -1136 -34 -167 -84 -305 -171 -472 l-75 -142 181 2 182 3 64 190 c36 105
67 197 69 205 2 8 18 58 35 110 28 87 77 266 85 315 41 231 50 323 50 520 0
134 -12 342 -20 355 -2 3 -6 26 -9 51 -30 234 -188 706 -284 844 -19 28 -79
74 -194 151 -201 134 -284 198 -427 329 -186 171 -381 402 -514 611 -68 107
-91 124 -240 179 -385 141 -648 247 -693 279 -16 12 -13 16 31 41 147 87 294
87 544 1 118 -41 116 -43 60 92 -47 110 -123 325 -133 375 -20 94 -38 188 -42
217 -2 19 -6 49 -9 65 -18 122 -25 438 -15 645 l5 85 -287 1 -286 2 0 -1394z
m298 746 c120 -32 171 -79 232 -209 66 -142 85 -210 69 -250 -41 -97 -287 -57
-419 69 -126 120 -173 355 -79 395 36 15 133 13 197 -5z m170 -1393 c63 -16
81 -23 127 -49 56 -31 128 -105 148 -152 9 -21 10 -39 2 -69 -10 -39 -14 -42
-116 -90 -122 -58 -135 -59 -275 -32 -86 17 -203 101 -239 172 -34 65 -21 123
37 161 42 29 112 58 156 65 27 4 135 0 160 -6z m811 -476 c177 -55 310 -239
297 -412 -4 -53 -33 -77 -105 -85 -195 -21 -403 128 -449 323 -13 58 -11 121
5 152 23 42 150 53 252 22z"/>
<path d="M1507 6306 c-6 -62 0 -427 7 -476 3 -19 8 -73 11 -120 3 -47 7 -92
10 -100 2 -8 6 -32 9 -52 9 -59 45 -215 72 -312 132 -470 350 -861 659 -1185
122 -128 301 -281 270 -231 -6 10 -130 451 -141 500 -17 81 -54 307 -61 375
-16 161 -9 540 13 695 40 275 90 467 199 768 36 100 65 183 65 185 0 2 -249 4
-554 4 l-554 0 -5 -51z m383 -29 c31 -9 80 -33 110 -54 47 -32 61 -50 97 -123
103 -208 114 -288 45 -320 -67 -30 -230 0 -317 60 -126 87 -201 230 -190 363
6 74 41 97 140 92 33 -1 85 -9 115 -18z m221 -917 c77 -82 128 -213 116 -299
-4 -36 -47 -144 -90 -229 -32 -63 -73 -109 -101 -114 -66 -13 -164 99 -201
227 -49 166 15 369 140 446 52 32 83 25 136 -31z"/>
<path d="M2802 6086 c-79 -236 -163 -512 -178 -580 -16 -73 -34 -179 -42 -246
-14 -128 -7 -461 13 -585 2 -11 4 -23 4 -27 2 -17 25 -4 150 90 509 380 843
860 1029 1480 22 73 37 134 33 136 -3 2 -211 4 -463 4 l-456 0 -90 -272z m494
89 c72 -72 104 -239 69 -361 -33 -116 -118 -222 -210 -263 -95 -42 -114 -28
-169 121 -32 86 -37 110 -32 153 15 126 66 229 147 299 91 78 152 94 195 51z"/>
<path d="M4061 6321 c-5 -20 -21 -81 -35 -137 -168 -664 -608 -1295 -1170
-1679 -158 -108 -167 -116 -182 -152 -9 -21 -13 -47 -8 -66 5 -25 56 -151 182
-452 9 -22 74 -153 144 -292 137 -270 205 -425 261 -599 31 -95 63 -207 72
-254 2 -8 8 -33 13 -55 12 -46 17 -71 36 -210 21 -144 28 -252 28 -404 0 -118
-8 -265 -17 -310 -1 -9 -6 -45 -10 -81 -26 -244 -125 -587 -259 -902 l-16 -38
386 0 c303 0 385 3 381 13 -143 334 -245 690 -273 952 -3 28 -7 64 -10 80 -9
53 -12 427 -4 510 10 99 21 194 26 220 2 11 6 34 9 50 13 73 28 146 47 220 11
44 21 85 22 90 6 28 52 170 81 250 64 175 87 301 86 465 -2 341 -168 677 -407
823 -97 59 -144 134 -144 229 0 85 5 86 105 39 132 -63 248 -144 350 -245 100
-100 158 -178 223 -302 38 -75 107 -261 115 -312 2 -12 6 -24 9 -27 3 -3 33
29 67 72 34 43 68 86 76 96 8 9 15 21 15 26 0 5 4 11 8 13 15 6 140 214 195
324 136 271 232 593 267 884 6 52 13 113 15 135 6 49 6 345 0 400 -2 22 -7 69
-10 105 -7 75 -10 95 -31 210 -15 85 -38 171 -75 286 l-20 62 -269 0 -270 -1
-9 -36z m311 -358 c40 -24 102 -118 127 -195 39 -118 32 -211 -25 -332 -32
-69 -104 -151 -139 -160 -51 -13 -113 40 -165 144 -81 161 -72 307 30 456 68
98 113 121 172 87z m-220 -1036 c116 -78 181 -200 181 -341 0 -113 -56 -251
-118 -292 -24 -15 -28 -15 -69 0 -54 21 -143 108 -180 177 -74 136 -73 266 4
407 56 100 92 110 182 49z m-721 -1037 c105 -54 192 -155 235 -274 34 -95 32
-114 -22 -233 -8 -17 -14 -35 -14 -40 -1 -13 -34 -49 -58 -62 -64 -34 -260
100 -311 213 -45 97 -48 219 -10 321 30 82 57 107 106 99 21 -3 54 -14 74 -24z"/>
<path d="M4877 6287 c13 -39 25 -80 27 -91 2 -12 12 -50 21 -86 17 -65 21 -83
30 -130 2 -14 9 -49 15 -79 30 -161 33 -614 5 -786 -9 -56 -15 -90 -21 -130
-11 -78 -54 -259 -85 -359 -30 -95 -42 -146 -34 -146 2 0 66 38 142 84 227
138 450 242 663 311 47 15 88 30 92 34 3 3 9 60 12 126 14 258 49 378 139 473
36 38 135 96 188 110 l36 9 -28 -81 c-27 -80 -54 -194 -63 -271 -16 -135 -20
-208 -17 -278 l1 -28 68 7 c76 8 123 11 205 13 l57 1 0 684 0 683 -738 1 -738
0 23 -71z m758 -72 c81 -13 212 -92 216 -129 9 -86 -109 -214 -240 -261 -137
-48 -325 -14 -410 75 -50 52 -34 96 71 207 97 100 209 133 363 108z m-195
-690 c6 -4 23 -32 39 -64 82 -162 43 -364 -95 -490 -120 -110 -223 -120 -259
-26 -23 63 -52 193 -48 219 10 68 36 137 73 194 72 113 231 204 290 167z"/>
<path d="M6136 4748 c-135 -17 -504 -130 -661 -203 -17 -7 -52 -23 -78 -34
-141 -60 -407 -226 -554 -345 -474 -382 -828 -966 -957 -1576 -27 -127 -33
-161 -42 -247 -3 -32 -8 -71 -10 -88 -6 -49 -6 -385 1 -445 5 -52 8 -75 21
-175 17 -137 66 -342 120 -510 34 -105 130 -350 160 -407 l14 -27 170 0 c93 0
170 2 170 4 0 2 -22 40 -49 84 -109 176 -184 373 -216 566 -3 17 -7 44 -10 60
-29 173 -25 440 11 635 34 187 86 338 181 525 46 91 151 255 198 310 149 173
231 251 370 353 276 201 605 328 935 359 92 9 252 9 343 0 l77 -8 0 589 0 589
-67 -1 c-38 0 -94 -4 -127 -8z m-103 -433 c79 -18 147 -48 187 -81 55 -47 36
-111 -61 -205 -104 -101 -253 -142 -389 -108 -65 17 -161 68 -186 100 -33 40
-14 93 61 177 104 116 230 154 388 117z m-973 -511 c77 -46 37 -240 -75 -358
-79 -84 -172 -126 -288 -132 -143 -7 -179 27 -159 148 31 178 157 314 327 353
67 16 158 10 195 -11z"/>
<path d="M6007 3345 c-1 -2 -36 -6 -77 -9 -41 -4 -124 -18 -185 -31 -442 -95
-794 -357 -1053 -782 -28 -48 -50 -88 -48 -90 1 -2 36 11 76 27 240 103 486
98 705 -13 128 -64 228 -154 309 -277 62 -95 98 -185 102 -254 3 -70 -7 -93
-73 -167 -27 -30 -66 -76 -87 -102 -27 -34 -42 -45 -49 -38 -6 6 -12 48 -13
93 -3 104 -8 140 -29 203 -29 86 -76 164 -135 223 -111 113 -241 163 -403 158
-118 -4 -136 -8 -233 -56 -164 -80 -267 -224 -330 -460 -23 -87 -27 -318 -8
-415 44 -213 145 -447 258 -602 l45 -62 776 0 775 0 0 1325 0 1324 -22 2 c-36
2 -298 5 -301 3z m-81 -389 c113 -30 216 -111 268 -210 31 -59 33 -105 6 -134
-20 -22 -156 -69 -219 -75 -42 -5 -142 16 -201 41 -137 59 -258 237 -207 303
54 70 230 108 353 75z"/>
<path d="M642 2016 l0 -1325 802 0 801 0 17 37 c9 20 38 87 63 147 25 61 50
118 56 127 5 10 9 23 9 30 0 7 6 25 14 40 19 37 83 226 91 268 58 328 -23 629
-219 807 -266 240 -699 157 -855 -163 -41 -84 -60 -170 -63 -282 l-2 -90 -26
13 c-52 27 -129 107 -156 160 -66 137 -12 316 148 489 157 172 354 258 588
258 134 1 216 -16 338 -69 46 -19 85 -33 87 -31 7 7 -61 165 -95 219 -161 257
-469 467 -856 584 -63 19 -129 37 -147 40 -17 3 -39 8 -47 10 -8 2 -28 7 -45
10 -16 2 -39 7 -51 9 -12 2 -45 7 -75 11 -30 4 -65 9 -79 11 -14 1 -86 6 -161
9 l-137 6 0 -1325z m675 918 c91 -43 107 -92 62 -182 -53 -108 -171 -194 -312
-228 l-66 -17 -118 63 c-65 34 -122 65 -126 69 -4 4 7 34 25 67 18 32 40 72
48 88 8 16 32 48 53 72 95 108 286 138 434 68z"/>
</g>
</svg>
