<svg width="164" height="33" viewBox="0 0 164 33" fill="none" xmlns="http://www.w3.org/2000/svg">
<path fill-rule="evenodd" clip-rule="evenodd" d="M15.0803 12.0411C15.023 11.7867 14.9795 11.5324 15.1106 11.2984C17.0373 12.092 18.2275 13.4859 18.6916 15.6021C20.0332 14.0556 20.8603 12.326 21.3142 10.4132C21.7681 8.51062 21.7681 6.58768 21.3445 4.66473C21.2473 4.29696 21.1537 4.00305 21.0836 3.783L21.0836 3.78295C21.0543 3.69093 21.0291 3.61183 21.0095 3.54564H18.5379L18.5298 3.58122L18.5202 3.62697C18.1873 5.22434 17.6224 6.65892 16.8054 8.00193C15.7159 9.7926 14.3037 11.2781 12.5385 12.3871C12.1249 12.6516 12.0442 12.9059 12.2258 13.3231C12.37 13.6529 12.5061 13.9869 12.6422 14.3207C12.9342 15.0372 13.226 15.753 13.5976 16.4263C15.8672 20.5367 16.1194 24.7488 14.3441 29.0831C14.2802 29.2387 14.1908 29.4543 14.125 29.5919H17.6414C17.5826 29.4656 17.5143 29.2867 17.4464 29.1088L17.4463 29.1086C17.4137 29.0233 17.3813 28.9382 17.35 28.8592C15.968 25.4203 15.9176 21.9712 17.2087 18.4916C18.1771 15.9073 16.9969 13.4146 15.5847 12.6516C15.4838 12.6312 15.1106 12.1937 15.0803 12.0411ZM22.7063 6.00774C22.6694 5.62642 22.333 4.00407 22.1064 3.54564H28.8486V9.8338C28.3261 9.83853 27.7825 9.876 27.3363 9.93493C27.2858 9.19231 27.4372 7.81878 27.8406 6.90309C27.8345 6.9048 27.8255 6.90702 27.8138 6.90987C27.6376 6.9532 26.8643 7.14325 26.4789 7.92052C26.1684 8.54664 26.1599 9.81559 26.1599 10.2097C24.8487 10.6153 23.6041 11.1661 22.4541 11.9394C22.3819 11.9879 22.3026 12.0328 22.2183 12.0805C22.1611 12.1129 22.1016 12.1466 22.0405 12.1835C22.0374 12.1521 22.0343 12.1275 22.0318 12.1076C22.0261 12.063 22.0234 12.0419 22.0304 12.0208C22.0506 11.9546 22.0708 11.8911 22.0909 11.8275L22.0909 11.8274C22.1111 11.7638 22.1313 11.7003 22.1515 11.6341C22.7365 9.80276 22.8878 7.92051 22.7063 6.00774ZM27.7801 10.9728C28.0701 10.9241 28.4253 10.9047 28.8486 10.9019V16.3312C26.2642 15.8931 22.6602 16.9792 20.5577 20.1501C18.3889 23.4364 18.9942 27.2823 20.2046 29.134L20.2296 29.1774C20.315 29.3258 20.3712 29.4235 20.4988 29.5919H18.9104C17.1119 25.8141 16.8669 21.7642 18.6916 17.9727C20.5375 14.1472 23.6444 11.8783 27.7801 10.9728ZM21.7693 29.5919H28.8486V17.4127C25.3943 17.1523 22.806 18.5109 21.1226 21.6254C21.2033 21.5898 21.2815 21.5567 21.3596 21.5236C21.4378 21.4906 21.516 21.4575 21.5967 21.4219C23.5435 20.5876 25.7425 21.5236 26.4991 23.4974C26.6605 23.9248 26.7008 24.3012 26.3377 24.6471C26.17 24.8089 26.0234 25.0026 25.8788 25.1936L25.8788 25.1936C25.8233 25.2669 25.7682 25.3397 25.7123 25.4102C25.6921 25.4 25.6719 25.3924 25.6517 25.3848C25.6316 25.3772 25.6114 25.3695 25.5912 25.3594V24.8812C25.5912 23.6195 24.7943 22.5614 23.6444 22.3071C22.4037 22.0323 21.2436 22.6326 20.709 23.823C20.0332 25.339 20.3055 26.8041 20.9612 28.2387C20.9808 28.2812 20.9995 28.3234 21.0184 28.3662C21.0675 28.4772 21.1184 28.5924 21.1932 28.727C21.295 28.9104 21.5331 29.2524 21.6958 29.4862L21.7693 29.5919ZM5.4976 10.1589C4.4687 9.874 3.83321 10.2098 3.42972 10.515C4.37998 10.9942 5.49187 11.3982 6.42377 11.7368L6.42389 11.7368C6.67903 11.8295 6.92067 11.9173 7.14181 12.0004C7.35364 12.0818 7.55539 12.2853 7.67643 12.4888C8.90707 14.483 10.521 16.0702 12.5284 17.2707C12.7402 17.403 12.952 17.6166 13.063 17.8405C14.3138 20.4248 14.7274 23.1311 14.1222 25.9494C13.9452 26.7665 13.6487 27.6392 13.36 28.4893L13.36 28.4893C13.2329 28.8634 13.1073 29.2332 12.994 29.5919H11.348C11.433 29.4197 11.5179 29.2484 11.5801 29.1442C13.0932 26.6108 13.1436 22.5614 10.7731 19.5295C8.64849 16.8258 5.04836 15.8369 2.92529 16.3691V3.54564H5.54205L5.53311 3.69532V3.69532V3.69533V3.69533V3.69533C5.48858 4.43932 5.45217 5.0476 5.4976 5.93656C5.55644 7.08795 5.74978 8.17491 6.07257 9.03971C6.14276 9.2774 6.24287 9.51258 6.34563 9.75399L6.34563 9.754C6.4496 9.99826 6.55628 10.2489 6.63745 10.515C6.44853 10.4574 6.27492 10.4017 6.10995 10.3488L6.10987 10.3488L6.10987 10.3488L6.10986 10.3488L6.10974 10.3487C5.89603 10.2802 5.69681 10.2163 5.4976 10.1589ZM10.5677 28.8522C10.4804 29.0394 10.3507 29.3177 10.2318 29.5919H2.92529V17.4222C6.74562 17.3935 10.0222 19.1646 10.6621 21.6356C10.5008 21.5644 10.3696 21.5033 10.2385 21.4423C8.40262 20.6181 6.28431 21.3914 5.40672 23.2126C4.98306 24.0876 5.25541 24.8812 6.18343 25.3695V24.9626C6.17335 23.6196 6.97023 22.5614 8.21096 22.3071C9.4416 22.0629 10.6117 22.7141 11.1161 23.9553C11.5498 24.9931 11.5801 26.0614 11.227 27.1297C11.115 27.4623 10.9877 27.7871 10.8569 28.1209L10.8568 28.121C10.7755 28.3284 10.6929 28.5393 10.6117 28.7576L10.5677 28.8522ZM6.8985 3.54564C6.78725 4.57837 6.83519 5.14737 6.92166 6.17348L6.92166 6.17353L6.92167 6.17368L6.9217 6.17396L6.92171 6.17407L6.92172 6.17427C6.93995 6.39062 6.9599 6.6273 6.98042 6.89293C7.52513 10.2504 8.93733 13.1094 11.6104 15.2562C11.5281 14.9486 11.443 14.6494 11.3593 14.3551L11.3592 14.3549L11.3592 14.3548L11.3591 14.3546L11.3591 14.3544L11.3591 14.3543L11.359 14.3542L11.359 14.3541L11.359 14.3541L11.359 14.3541L11.359 14.3541L11.359 14.3541L11.359 14.3541L11.359 14.3541L11.359 14.3541L11.359 14.3541L11.359 14.354L11.359 14.354L11.359 14.354L11.359 14.354L11.359 14.354L11.359 14.354L11.359 14.354C11.166 13.6754 10.9805 13.0234 10.8539 12.3565C10.3798 9.84347 10.6219 7.38129 11.449 4.94963C11.5874 4.53545 11.8392 3.86684 11.964 3.54564H6.8985ZM13.1819 3.54564C13.0726 3.88705 12.9528 4.24497 12.8304 4.61098L12.8303 4.61113C12.5154 5.55254 12.1825 6.54745 11.9635 7.45251C11.6508 8.73448 11.6508 10.0673 11.8525 11.4815C14.7686 9.53749 16.5675 6.90535 17.3959 3.54564H13.1819ZM20.6888 16.7824C20.5677 17.3827 20.6989 17.5455 21.3041 17.5557C22.3027 17.5658 23.1602 16.7722 23.2409 15.7955C23.261 15.4292 23.1803 15.2359 22.7668 15.1952C21.7883 15.0935 20.8804 15.765 20.6888 16.7824ZM20.6283 6.92351C20.6182 7.58484 20.0735 8.5107 19.6902 8.54122C19.2968 8.57174 18.7319 7.58484 18.742 6.89298C18.7521 6.21131 19.3574 5.24475 19.7407 5.28544C20.1341 5.31597 20.6384 6.24183 20.6283 6.92351ZM9.70387 17.3928C9.9964 17.3419 10.178 17.2402 10.1174 16.9451C10.1074 15.7954 9.05829 14.8797 7.98905 15.0425C7.74695 15.0832 7.54521 15.1341 7.53512 15.4698C7.49477 16.589 8.60437 17.5759 9.70387 17.3928ZM23.1199 9.18216C23.1703 8.34787 23.6747 7.65602 24.4111 7.37113C24.6834 7.26939 24.8145 7.35079 24.9356 7.57462C25.4601 8.50048 25.0768 9.73158 24.1286 10.2301C23.7352 10.4438 23.4629 10.4031 23.3216 9.94524C23.2725 9.79667 23.2347 9.64057 23.1966 9.48382L23.1966 9.48373L23.1966 9.48363C23.1721 9.3828 23.1475 9.2817 23.1199 9.18216ZM26.495 4.57245C25.8662 4.09233 25.0173 4.0259 24.2884 4.42345C24.2192 4.49969 24.1471 4.57411 24.0751 4.64833L24.0751 4.64834L24.0751 4.64835L24.0751 4.64837L24.0751 4.6484L24.075 4.64842C23.9632 4.76385 23.8517 4.87879 23.7526 4.99935C23.4418 5.36216 23.5514 5.61691 23.9391 5.84094C24.8597 6.3896 26.0985 6.06749 26.6008 5.12916C26.7253 4.90725 26.7245 4.75194 26.495 4.57245ZM10.0872 9.80277C9.98574 9.98526 9.92671 10.1327 9.87046 10.2732L9.87046 10.2732C9.79814 10.4539 9.7304 10.6231 9.58287 10.8405C9.34078 11.2068 9.05834 11.1458 8.7759 10.8202C8.05971 10.0266 8.12023 8.71412 8.91712 8.04261C9.15921 7.83912 9.34078 7.83912 9.5627 8.06296C9.9561 8.46993 10.178 8.94812 10.1578 9.51789C10.1728 9.53806 10.1457 9.60326 10.1194 9.66635C10.0927 9.73052 10.0669 9.79251 10.0872 9.80277ZM9.72139 5.08093C9.6559 4.94457 9.58717 4.80147 9.5212 4.60309C9.50001 4.61141 9.47178 4.5505 9.44257 4.48745C9.41384 4.42545 9.38415 4.36139 9.35925 4.35906C8.9541 3.96151 8.45373 3.80642 7.89058 3.82734C7.57712 3.84299 7.45524 3.97873 7.44226 4.29632C7.40079 5.34285 8.32466 6.26914 9.3886 6.26643C9.81745 6.27383 10.0519 6.10365 9.94526 5.67679C9.88447 5.4205 9.80561 5.25628 9.72139 5.08093ZM5.242 7.22408C5.30798 7.42246 5.3767 7.56556 5.44219 7.70193C5.52641 7.87727 5.60528 8.04149 5.66606 8.29778C5.77271 8.72464 5.53826 8.89482 5.10941 8.88742C4.04546 8.89013 3.12159 7.96384 3.16306 6.91731C3.17604 6.59973 3.29793 6.46398 3.61138 6.44833C4.17453 6.42741 4.6749 6.58251 5.08006 6.98006C5.10496 6.98238 5.13464 7.04645 5.16337 7.10844C5.19258 7.17149 5.22081 7.2324 5.242 7.22408ZM28.4964 13.5164C28.4358 13.2316 27.7096 12.8755 26.9429 12.8653C26.3982 12.8755 25.8333 13.1909 25.45 13.842C25.3088 14.076 25.3391 14.249 25.561 14.4016C26.1662 14.8391 26.8118 14.9408 27.5078 14.6458C28.0223 14.4321 28.5569 13.8013 28.4964 13.5164ZM16.8355 16.6806C16.7809 16.7909 16.7335 16.9168 16.6864 17.0423C16.5768 17.3338 16.4681 17.6229 16.2706 17.7083C16.0386 17.81 15.5343 17.4844 15.2518 17.2402C14.6365 16.701 14.5357 15.7955 14.8887 15.0426C15.0097 14.7781 15.151 14.7068 15.4334 14.8086C16.2 15.0833 16.7246 15.8057 16.8355 16.6806ZM14.5558 4.32903C13.8597 4.6953 13.4865 5.26506 13.4462 6.25197C13.47 6.31376 13.4984 6.39409 13.531 6.48631C13.5951 6.66739 13.6754 6.89432 13.769 7.11679C13.8597 7.35079 14.0312 7.41184 14.2935 7.29992C15.3426 6.85225 15.7561 5.4075 15.1005 4.47147C14.9492 4.25781 14.7979 4.19676 14.5558 4.32903ZM4.55941 21.2388C4.36775 21.137 4.17357 21.0353 3.97939 20.9335C3.78521 20.8318 3.59103 20.73 3.39938 20.6283C3.47553 20.5047 3.54407 20.3724 3.61249 20.2403C3.75254 19.9699 3.8921 19.7005 4.0954 19.5091C4.67037 18.9801 5.63874 18.9801 6.25406 19.4277C6.35493 19.5091 6.43563 19.7431 6.39528 19.8652C6.17336 20.6181 5.43699 21.1167 4.55941 21.2388ZM25.3995 19.9874C25.7526 20.7097 26.3175 21.076 27.2757 21.1269C27.4371 21.0862 27.7398 21.0048 28.0323 20.903C28.4156 20.7606 28.4257 20.5164 28.2542 20.1807C27.7498 19.2039 26.5696 18.8377 25.6214 19.3464C25.3289 19.5092 25.2482 19.672 25.3995 19.9874ZM5.23534 14.8289C4.27706 14.778 3.71218 14.4728 3.3793 13.8115C3.31878 13.6894 3.36921 13.4045 3.47009 13.3129C4.30732 12.5295 5.88093 12.8551 6.33485 13.903C6.38529 14.0251 6.31468 14.3202 6.20372 14.3812C5.93779 14.5377 5.65023 14.656 5.4361 14.744L5.43604 14.7441C5.35778 14.7762 5.28934 14.8044 5.23534 14.8289ZM19.1153 13.0891C19.3977 13.0382 19.7508 12.2955 19.7608 11.7359C19.7508 11.0034 19.4481 10.4336 18.8328 10.047C18.5706 9.88421 18.3789 9.89438 18.1973 10.1691C17.7938 10.7795 17.7031 11.4104 17.9956 12.092C18.2175 12.5906 18.8227 13.14 19.1153 13.0891Z" fill="#E3B23C"/>
<rect x="0.696181" y="1.29138" width="30.2814" height="30.555" stroke="#E3B23C" stroke-width="1.39236"/>
<path d="M44.2808 26.4045L46.2345 21.7791H56.4644L58.4182 26.4045H60.8603L52.6113 7.24599H50.0877L41.8115 26.4045H44.2808ZM51.0374 10.3387C51.146 10.0924 51.2274 9.87345 51.3359 9.59976C51.4445 9.87345 51.5259 10.0924 51.6344 10.3387L55.569 19.6443H47.13L51.0374 10.3387Z" fill="#333333"/>
<path d="M65.1964 7.24599V26.4045H73.2012C75.969 26.4045 80.2021 25.5014 80.2021 21.1496C80.2021 18.0295 77.977 16.7705 76.4032 16.3326C77.8956 15.8947 79.4423 14.5262 79.4423 12.0904C79.4423 8.86078 76.8645 7.24599 72.9842 7.24599H65.1964ZM77.8956 20.9033C77.8956 24.0508 75.1278 24.215 72.7399 24.215H67.4757V17.5916H73.364C75.1821 17.5916 77.8956 17.92 77.8956 20.9033ZM77.1358 12.4188C77.1358 14.6084 75.3992 15.4021 73.4183 15.4021H67.4757V9.43554H72.7942C75.4806 9.43554 77.1358 10.1471 77.1358 12.4188Z" fill="#333333"/>
<path d="M85.6123 7.24599V26.4045H87.8917V19.6169H92.0976C96.4935 19.6169 100.157 18.2211 100.157 13.4315C100.157 8.64183 96.4935 7.24599 92.0976 7.24599H85.6123ZM97.8502 13.4315C97.8502 16.6611 95.2995 17.4274 92.2061 17.4274H87.8917V9.43554H92.2061C95.3267 9.43554 97.8502 10.1745 97.8502 13.4315Z" fill="#333333"/>
<path d="M103.905 16.8253C103.905 21.7791 107.188 26.733 113.836 26.733C120.484 26.733 123.768 21.7791 123.768 16.8253C123.768 11.8714 120.484 6.91756 113.836 6.91756C107.188 6.91756 103.905 11.8714 103.905 16.8253ZM121.461 16.8253C121.461 20.7665 118.992 24.5434 113.836 24.5434C108.681 24.5434 106.211 20.7665 106.211 16.8253C106.211 12.8841 108.681 9.10711 113.836 9.10711C118.992 9.10711 121.461 12.8841 121.461 16.8253Z" fill="#333333"/>
<path d="M129.121 7.24599V26.4045H131.4V19.6169H135.606C140.002 19.6169 143.665 18.2211 143.665 13.4315C143.665 8.64183 140.002 7.24599 135.606 7.24599H129.121ZM141.358 13.4315C141.358 16.6611 138.808 17.4274 135.714 17.4274H131.4V9.43554H135.714C138.835 9.43554 141.358 10.1745 141.358 13.4315Z" fill="#333333"/>
<path d="M147.42 26.4045L149.374 21.7791H159.604L161.558 26.4045H164L155.751 7.24599H153.227L144.951 26.4045H147.42ZM154.177 10.3387C154.286 10.0924 154.367 9.87345 154.476 9.59976C154.584 9.87345 154.665 10.0924 154.774 10.3387L158.709 19.6443H150.27L154.177 10.3387Z" fill="#333333"/>
</svg>
