<svg width="215" height="58" viewBox="0 0 215 58" fill="none" xmlns="http://www.w3.org/2000/svg">
<path fill-rule="evenodd" clip-rule="evenodd" d="M28.2453 20.7799C28.138 20.3181 28.0564 19.8563 28.302 19.4315C31.9106 20.8723 34.14 23.4028 35.0091 27.2449C37.5219 24.4372 39.0711 21.2971 39.9213 17.8245C40.7715 14.3703 40.7715 10.8793 39.978 7.38818C39.7959 6.72077 39.6207 6.18735 39.4895 5.78789L39.4894 5.78738L39.4893 5.78729L39.4893 5.78724C39.4345 5.6202 39.3873 5.4766 39.3505 5.35645H34.7211L34.7092 5.40716L34.706 5.42107C34.7029 5.43446 34.7 5.4479 34.6879 5.50414C34.0644 8.40414 33.0064 11.0086 31.476 13.4468C29.4356 16.6978 26.7905 19.3946 23.4842 21.408C22.7096 21.8882 22.5584 22.35 22.8985 23.1073C23.1687 23.7061 23.4237 24.3124 23.6785 24.9185C24.2255 26.2192 24.772 27.5188 25.468 28.7411C29.719 36.2035 30.1913 43.8506 26.8661 51.7194C26.7464 52.0018 26.5791 52.3934 26.4558 52.6431H33.0422C32.9321 52.4139 32.8041 52.0891 32.6769 51.766C32.6158 51.611 32.555 51.4564 32.4963 51.313C29.9079 45.0697 29.8134 38.8079 32.2318 32.4907C34.0455 27.799 31.835 23.2735 29.19 21.8882C29.001 21.8512 28.302 21.057 28.2453 20.7799ZM42.5285 9.82639C42.4595 9.13411 41.8294 6.18867 41.405 5.35645H54.033V16.7726C53.0543 16.7812 52.0362 16.8492 51.2005 16.9562C51.106 15.6079 51.3894 13.1143 52.1452 11.4519C52.1336 11.455 52.1167 11.459 52.095 11.4642C51.7648 11.5429 50.3165 11.8879 49.5946 13.299C49.013 14.4357 48.9972 16.7395 48.9972 17.4551C46.5412 18.1913 44.2102 19.1913 42.0562 20.5952C41.9211 20.6833 41.7725 20.7648 41.6146 20.8514C41.5075 20.9102 41.3961 20.9713 41.2816 21.0385C41.2758 20.9816 41.2699 20.9369 41.2652 20.9008L41.2652 20.9006C41.2546 20.8196 41.2496 20.7813 41.2627 20.743C41.3004 20.6232 41.3381 20.508 41.3758 20.3929L41.3761 20.392C41.4138 20.2766 41.4516 20.1611 41.4894 20.041C42.5852 16.7162 42.8686 13.299 42.5285 9.82639ZM52.0318 18.8404C52.5749 18.7519 53.2403 18.7168 54.033 18.7118V28.5685C49.1924 27.7732 42.4422 29.7448 38.5043 35.5016C34.4422 41.4679 35.5758 48.45 37.843 51.8118L37.8898 51.8907C38.0496 52.16 38.1549 52.3374 38.394 52.6431H35.4189C32.0505 45.7846 31.5915 38.432 35.0091 31.5487C38.4665 24.6035 44.2856 20.4844 52.0318 18.8404ZM40.7736 52.6431H54.033V30.5319C47.563 30.0592 42.7152 32.5256 39.5623 38.18C39.7134 38.1153 39.8599 38.0553 40.0063 37.9953C40.1527 37.9352 40.2991 37.8752 40.4503 37.8105C44.0966 36.2959 48.2154 37.9953 49.6323 41.5787C49.9346 42.3545 50.0102 43.0379 49.3301 43.666C49.016 43.9597 48.7413 44.3113 48.4705 44.6581L48.4703 44.6584L48.4702 44.6585L48.4702 44.6585L48.4702 44.6586L48.4701 44.6586L48.4701 44.6587L48.47 44.6587L48.47 44.6588L48.4699 44.6589L48.4699 44.6589L48.4698 44.659L48.4698 44.659L48.4697 44.6591L48.4697 44.6591L48.4697 44.6592L48.4696 44.6593C48.3661 44.7918 48.2631 44.9237 48.1587 45.0513C48.1209 45.0328 48.0831 45.019 48.0453 45.0051C48.0075 44.9913 47.9697 44.9774 47.932 44.959V44.0908C47.932 41.8004 46.4394 39.8793 44.2856 39.4176C41.9617 38.9188 39.789 40.0086 38.7877 42.1698C37.5218 44.922 38.0319 47.5819 39.26 50.1863C39.2967 50.2633 39.3316 50.3398 39.367 50.4174L39.3672 50.4179C39.4591 50.6194 39.5545 50.8285 39.6945 51.073C39.8851 51.4058 40.3309 52.0263 40.6357 52.4508L40.6359 52.451L40.636 52.4511L40.636 52.4512L40.6361 52.4512L40.6707 52.4995L40.7736 52.6431ZM10.2968 17.3627C8.36968 16.8455 7.17941 17.4551 6.42368 18.0092C8.2035 18.8793 10.2861 19.6127 12.0315 20.2274C12.5094 20.3957 12.9621 20.5552 13.3764 20.706C13.7731 20.8538 14.151 21.2232 14.3777 21.5927C16.6827 25.2131 19.7056 28.0946 23.4653 30.2742C23.8621 30.5143 24.2588 30.9022 24.4667 31.3086C26.8094 36.0003 27.584 40.9137 26.4504 46.0303C26.1189 47.5136 25.5637 49.098 25.0229 50.6413C24.7848 51.3205 24.5496 51.9918 24.3374 52.6431H21.2545C21.4138 52.3305 21.5728 52.0194 21.6893 51.8303C24.5233 47.2309 24.6178 39.8793 20.1779 34.3749C16.1985 29.4662 9.45547 27.6711 5.479 28.6371V5.35645H10.38L10.3633 5.62822C10.2799 6.97894 10.2117 8.08326 10.2968 9.69716C10.407 11.7875 10.7691 13.7609 11.3737 15.3309C11.5052 15.7624 11.6927 16.1894 11.8851 16.6277L11.8851 16.6277C12.0799 17.0711 12.2797 17.5262 12.4317 18.0092C12.0778 17.9046 11.7526 17.8035 11.4436 17.7075C11.0432 17.583 10.67 17.467 10.2968 17.3627ZM19.7931 51.3001C19.6296 51.6401 19.3867 52.1453 19.1639 52.6431H5.479V30.5492C12.6344 30.4969 18.7714 33.7124 19.9701 38.1984C19.6678 38.0691 19.4222 37.9583 19.1765 37.8475C15.738 36.3513 11.7704 37.7551 10.1267 41.0615C9.3332 42.65 9.84332 44.0908 11.5815 44.9774V44.2385C11.5626 41.8003 13.0552 39.8793 15.379 39.4175C17.684 38.9742 19.8756 40.1564 20.8203 42.4099C21.6327 44.294 21.6893 46.2334 21.0281 48.1729C20.8183 48.7767 20.5798 49.3665 20.3348 49.9725C20.1825 50.3491 20.0276 50.7319 19.8756 51.1283L19.7931 51.3001ZM12.9206 5.35645C12.7123 7.23138 12.8021 8.26439 12.964 10.1273C12.9982 10.5205 13.0356 10.9506 13.0741 11.4334C14.0943 17.529 16.7394 22.7194 21.746 26.6169C21.5917 26.0578 21.4321 25.514 21.2752 24.9793L21.2751 24.9792L21.2751 24.9792L21.2751 24.9792L21.2751 24.9791C20.9136 23.7471 20.5662 22.5633 20.3291 21.3525C19.4411 16.7901 19.8945 12.3201 21.4437 7.90541C21.7029 7.15345 22.1745 5.93957 22.4082 5.35645H12.9206ZM24.6893 5.35645C24.4846 5.97629 24.2603 6.62612 24.031 7.29063L24.0309 7.29087C23.441 8.99999 22.8175 10.8062 22.4073 12.4494C21.8216 14.7767 21.8216 17.1965 22.1995 19.764C27.6612 16.2346 31.0305 11.456 32.5822 5.35645H24.6893ZM38.7499 29.3876C38.5232 30.4774 38.7688 30.773 39.9024 30.7915C41.7728 30.8099 43.3787 29.3692 43.5299 27.5959C43.5677 26.9309 43.4165 26.58 42.6419 26.5061C40.8093 26.3214 39.1089 27.5405 38.7499 29.3876ZM38.6365 11.4889C38.6176 12.6895 37.5974 14.3704 36.8795 14.4258C36.1426 14.4812 35.0846 12.6895 35.1035 11.4335C35.1224 10.1959 36.256 8.4411 36.9739 8.51499C37.7108 8.5704 38.6554 10.2513 38.6365 11.4889ZM18.1752 30.4958C18.7231 30.4034 19.0632 30.2187 18.9499 29.6831C18.931 27.5958 16.9661 25.9334 14.9634 26.2289C14.51 26.3028 14.1321 26.3952 14.1132 27.0047C14.0376 29.0366 16.1159 30.8283 18.1752 30.4958ZM43.3031 15.5895C43.3976 14.0748 44.3422 12.8188 45.7214 12.3016C46.2315 12.1169 46.4772 12.2646 46.7039 12.671C47.6863 14.3519 46.9684 16.5869 45.1924 17.492C44.4556 17.8799 43.9455 17.806 43.681 16.9748C43.589 16.705 43.518 16.4216 43.4467 16.1369L43.4467 16.1368L43.4467 16.1367L43.4467 16.1366L43.4466 16.1365C43.4008 15.9536 43.3549 15.7701 43.3031 15.5895ZM49.6248 7.22064C48.447 6.34899 46.8571 6.22838 45.4918 6.95014C45.3622 7.08861 45.227 7.22378 45.0922 7.35859C44.8827 7.56813 44.674 7.7768 44.4883 7.99567C43.9062 8.65436 44.1115 9.11684 44.8376 9.52357C46.5619 10.5197 48.8822 9.93488 49.823 8.23134C50.0561 7.82846 50.0547 7.54651 49.6248 7.22064ZM18.8932 16.7162C18.7031 17.0475 18.5925 17.3152 18.4872 17.5703C18.3517 17.8983 18.2248 18.2054 17.9485 18.6003C17.4951 19.2652 16.9661 19.1544 16.437 18.5633C15.0956 17.1226 15.209 14.7398 16.7015 13.5207C17.155 13.1512 17.4951 13.1512 17.9107 13.5576C18.6475 14.2965 19.0632 15.1646 19.0254 16.199C19.0535 16.2356 19.0027 16.354 18.9534 16.4685C18.9034 16.585 18.8551 16.6976 18.8932 16.7162ZM18.2079 8.14372C18.0853 7.89615 17.9566 7.63635 17.833 7.27619C17.7933 7.2913 17.7404 7.18072 17.6857 7.06626C17.6319 6.9537 17.5763 6.8374 17.5297 6.83317C16.7708 6.11143 15.8336 5.82986 14.7789 5.86783C14.1918 5.89625 13.9635 6.14269 13.9392 6.71927C13.8615 8.61922 15.5919 10.3009 17.5846 10.296C18.3879 10.3094 18.827 10.0004 18.6272 9.22548C18.5134 8.76019 18.3657 8.46206 18.2079 8.14372ZM9.81804 12.0345C9.9416 12.3947 10.0703 12.6545 10.193 12.9021C10.3507 13.2204 10.4984 13.5185 10.6123 13.9838C10.812 14.7588 10.3729 15.0678 9.56968 15.0543C7.57693 15.0592 5.84654 13.3776 5.92422 11.4776C5.94852 10.901 6.17681 10.6546 6.76391 10.6262C7.81868 10.5882 8.75587 10.8698 9.51471 11.5915C9.56135 11.5958 9.61695 11.7121 9.67076 11.8246C9.72547 11.9391 9.77834 12.0497 9.81804 12.0345ZM53.3732 23.4583C53.2599 22.9411 51.8996 22.2946 50.4637 22.2761C49.4435 22.2946 48.3854 22.8672 47.6675 24.0493C47.403 24.4742 47.4597 24.7882 47.8753 25.0653C49.0089 25.8595 50.2181 26.0442 51.5217 25.5086C52.4853 25.1207 53.4866 23.9755 53.3732 23.4583ZM31.5327 29.2028C31.4303 29.403 31.3417 29.6316 31.2533 29.8594C31.0481 30.3885 30.8445 30.9135 30.4747 31.0684C30.0402 31.2531 29.0955 30.6621 28.5665 30.2187C27.414 29.2398 27.2251 27.5958 27.8863 26.2289C28.1131 25.7487 28.3776 25.6194 28.9066 25.8041C30.3424 26.3028 31.3249 27.6143 31.5327 29.2028ZM27.2629 6.77869C25.9592 7.44366 25.2602 8.47805 25.1846 10.2698C25.2292 10.382 25.2825 10.5278 25.3436 10.6952C25.4636 11.024 25.6139 11.436 25.7892 11.8398C25.9592 12.2647 26.2804 12.3755 26.7716 12.1723C28.7365 11.3596 29.5111 8.73665 28.2831 7.03728C27.9997 6.64939 27.7163 6.53856 27.2629 6.77869ZM8.5398 37.478C8.18083 37.2933 7.81714 37.1086 7.45344 36.9239L7.45341 36.9239C7.08973 36.7392 6.72605 36.5545 6.36709 36.3697C6.50971 36.1454 6.63808 35.9052 6.76624 35.6654L6.76625 35.6654C7.02856 35.1745 7.28996 34.6853 7.67072 34.3379C8.74763 33.3774 10.5614 33.3774 11.7139 34.1901C11.9028 34.3379 12.0539 34.7627 11.9784 34.9844C11.5627 36.3513 10.1835 37.2564 8.5398 37.478ZM47.573 35.2061C48.2343 36.5176 49.2923 37.1825 51.0871 37.2749C51.3894 37.201 51.9562 37.0532 52.5041 36.8685C53.222 36.6099 53.2409 36.1666 52.9198 35.5571C51.9751 33.7838 49.7646 33.1189 47.9886 34.0424C47.4407 34.338 47.2896 34.6335 47.573 35.2061ZM9.80556 25.841C8.01071 25.7487 6.95269 25.1945 6.32922 23.9939C6.21586 23.7723 6.31033 23.2551 6.49926 23.0888C8.06739 21.6665 11.0147 22.2576 11.8649 24.1602C11.9594 24.3818 11.8271 24.9175 11.6193 25.0283C11.1212 25.3124 10.5826 25.5271 10.1816 25.687C10.035 25.7454 9.90672 25.7965 9.80556 25.841ZM35.8026 22.6825C36.3316 22.5901 36.9929 21.2417 37.0117 20.2258C36.9929 18.8958 36.4261 17.8615 35.2736 17.1595C34.7824 16.864 34.4234 16.8825 34.0833 17.3812C33.3276 18.4895 33.1575 19.6347 33.7054 20.8723C34.1211 21.7774 35.2547 22.7748 35.8026 22.6825Z" fill="#E3B23C"/>
<rect x="1.44753" y="1.44753" width="56.4295" height="55.1049" stroke="#E3B23C" stroke-width="2.89507"/>
<path d="M77.4116 31.4552L79.6569 26.3026H91.4138L93.6591 31.4552H96.4658L86.9855 10.1129H84.0852L74.5737 31.4552H77.4116ZM85.1767 13.5582C85.3015 13.2838 85.395 13.0399 85.5197 12.735C85.6445 13.0399 85.738 13.2838 85.8628 13.5582L90.3846 23.9244H80.686L85.1767 13.5582Z" fill="white"/>
<path d="M101.449 10.1129V31.4552H110.649C113.83 31.4552 118.694 30.4491 118.694 25.6013C118.694 22.1256 116.137 20.7231 114.329 20.2353C116.044 19.7474 117.821 18.223 117.821 15.5095C117.821 11.9118 114.859 10.1129 110.399 10.1129H101.449ZM116.044 25.3269C116.044 28.8331 112.863 29.0161 110.119 29.0161H104.069V21.6378H110.836C112.925 21.6378 116.044 22.0036 116.044 25.3269ZM115.171 15.8753C115.171 18.3145 113.175 19.1986 110.898 19.1986H104.069V12.5521H110.181C113.268 12.5521 115.171 13.3448 115.171 15.8753Z" fill="white"/>
<path d="M124.912 10.1129V31.4552H127.532V23.8939H132.366C137.418 23.8939 141.628 22.339 141.628 17.0034C141.628 11.6679 137.418 10.1129 132.366 10.1129H124.912ZM138.977 17.0034C138.977 20.6011 136.045 21.4548 132.49 21.4548H127.532V12.5521H132.49C136.077 12.5521 138.977 13.3753 138.977 17.0034Z" fill="white"/>
<path d="M145.935 20.7841C145.935 26.3026 149.709 31.8211 157.349 31.8211C164.989 31.8211 168.763 26.3026 168.763 20.7841C168.763 15.2656 164.989 9.74707 157.349 9.74707C149.709 9.74707 145.935 15.2656 145.935 20.7841ZM166.112 20.7841C166.112 25.1745 163.274 29.3819 157.349 29.3819C151.424 29.3819 148.586 25.1745 148.586 20.7841C148.586 16.3937 151.424 12.1862 157.349 12.1862C163.274 12.1862 166.112 16.3937 166.112 20.7841Z" fill="white"/>
<path d="M174.915 10.1129V31.4552H177.534V23.8939H182.368C187.42 23.8939 191.63 22.339 191.63 17.0034C191.63 11.6679 187.42 10.1129 182.368 10.1129H174.915ZM188.979 17.0034C188.979 20.6011 186.048 21.4548 182.493 21.4548H177.534V12.5521H182.493C186.079 12.5521 188.979 13.3753 188.979 17.0034Z" fill="white"/>
<path d="M195.946 31.4552L198.191 26.3026H209.948L212.193 31.4552H215L205.52 10.1129H202.62L193.108 31.4552H195.946ZM203.711 13.5582C203.836 13.2838 203.929 13.0399 204.054 12.735C204.179 13.0399 204.272 13.2838 204.397 13.5582L208.919 23.9244H199.22L203.711 13.5582Z" fill="white"/>
<path d="M82.3352 38.3754V44.7781H81.6709V39.6559L79.0982 43.964H78.7707L76.1979 39.6834V44.7781H75.5337V38.3754H76.1044L78.9485 43.1225L81.7645 38.3754H82.3352Z" fill="#D1D1D1"/>
<path d="M89.9215 44.1927V44.7781H85.2905V38.3754H89.7812V38.9608H85.9828V41.2383H89.3696V41.8146H85.9828V44.1927H89.9215Z" fill="#D1D1D1"/>
<path d="M92.206 38.3754H96.996V38.9516H92.8889V41.0462H95.0314C95.8047 41.0462 96.391 41.2017 96.7902 41.5127C97.1956 41.8237 97.3983 42.2749 97.3983 42.8664C97.3983 43.4823 97.18 43.9549 96.7434 44.2842C96.3131 44.6134 95.6925 44.7781 94.8817 44.7781H92.206V38.3754ZM94.8723 44.2384C95.4773 44.2384 95.9326 44.1256 96.2382 43.9C96.5501 43.6744 96.706 43.339 96.706 42.8939C96.706 42.4548 96.5532 42.1286 96.2476 41.9152C95.9482 41.6957 95.4898 41.5859 94.8723 41.5859H92.8889V44.2384H94.8723Z" fill="#D1D1D1"/>
<path d="M104.383 44.1927V44.7781H99.7518V38.3754H104.242V38.9608H100.444V41.2383H103.831V41.8146H100.444V44.1927H104.383Z" fill="#D1D1D1"/>
<path d="M111.803 38.3754V44.7781H111.121V38.9608H107.958L107.883 41.1011C107.852 41.9853 107.777 42.6987 107.659 43.2414C107.547 43.7781 107.372 44.1805 107.135 44.4488C106.898 44.711 106.583 44.8421 106.19 44.8421C106.022 44.8421 105.847 44.8208 105.666 44.7781L105.722 44.1744C105.828 44.1988 105.931 44.211 106.031 44.211C106.306 44.211 106.527 44.1043 106.695 43.8909C106.87 43.6774 107.001 43.3482 107.088 42.903C107.176 42.4518 107.235 41.8572 107.266 41.1194L107.36 38.3754H111.803Z" fill="#D1D1D1"/>
<path d="M117.502 40.6621C118.276 40.6621 118.865 40.8328 119.271 41.1743C119.682 41.5158 119.888 42.0158 119.888 42.6744C119.888 43.3634 119.67 43.8878 119.233 44.2476C118.803 44.6013 118.179 44.7781 117.362 44.7781H114.761V38.3754H115.444V40.6621H117.502ZM117.343 44.2384C117.948 44.2384 118.407 44.1073 118.719 43.8451C119.037 43.5829 119.196 43.1957 119.196 42.6835C119.196 41.7018 118.578 41.2109 117.343 41.2109H115.444V44.2384H117.343Z" fill="#D1D1D1"/>
<path d="M127.625 38.3754V44.7781H126.942V41.8237H122.844V44.7781H122.152V38.3754H122.844V41.2292H126.942V38.3754H127.625Z" fill="#D1D1D1"/>
<path d="M133.325 40.6621C134.098 40.6621 134.688 40.8328 135.093 41.1743C135.505 41.5158 135.711 42.0158 135.711 42.6744C135.711 43.3634 135.492 43.8878 135.056 44.2476C134.626 44.6013 134.002 44.7781 133.185 44.7781H130.584V38.3754H131.267V40.6621H133.325ZM133.166 44.2384C133.771 44.2384 134.229 44.1073 134.541 43.8451C134.859 43.5829 135.018 43.1957 135.018 42.6835C135.018 41.7018 134.401 41.2109 133.166 41.2109H131.267V44.2384H133.166ZM136.843 38.3754H137.526V44.7781H136.843V38.3754Z" fill="#D1D1D1"/>
<path d="M140.478 38.3754H141.161V43.6805L145.352 38.3754H145.979V44.7781H145.296V39.4822L141.105 44.7781H140.478V38.3754ZM143.21 37.9089C142.742 37.9089 142.371 37.8053 142.096 37.5979C141.828 37.3906 141.691 37.101 141.685 36.729H142.199C142.205 36.9729 142.299 37.165 142.48 37.3052C142.661 37.4455 142.904 37.5156 143.21 37.5156C143.509 37.5156 143.749 37.4455 143.93 37.3052C144.117 37.165 144.214 36.9729 144.22 36.729H144.735C144.728 37.101 144.588 37.3906 144.314 37.5979C144.039 37.8053 143.671 37.9089 143.21 37.9089Z" fill="#D1D1D1"/>
<path d="M154.978 41.4304C155.409 41.5341 155.745 41.7231 155.989 41.9975C156.238 42.2719 156.363 42.6012 156.363 42.9853C156.363 43.3573 156.244 43.6835 156.007 43.964C155.77 44.2445 155.455 44.461 155.063 44.6134C154.67 44.7598 154.242 44.833 153.781 44.833C153.344 44.833 152.914 44.7659 152.49 44.6317C152.072 44.4915 151.695 44.2842 151.358 44.0098L151.61 43.525C151.897 43.7628 152.225 43.9457 152.593 44.0738C152.961 44.1957 153.332 44.2567 153.706 44.2567C154.061 44.2567 154.389 44.2018 154.688 44.0921C154.988 43.9823 155.225 43.8268 155.399 43.6256C155.58 43.4183 155.671 43.1744 155.671 42.8939C155.671 42.5219 155.521 42.2353 155.222 42.0341C154.922 41.8329 154.501 41.7322 153.959 41.7322H152.555V41.1834H153.921C154.383 41.1834 154.741 41.0889 154.997 40.8999C155.259 40.7048 155.39 40.4365 155.39 40.095C155.39 39.7169 155.225 39.4212 154.894 39.2078C154.564 38.9882 154.149 38.8785 153.65 38.8785C153.338 38.8785 153.023 38.9242 152.705 39.0157C152.387 39.101 152.084 39.2321 151.797 39.409L151.564 38.851C152.212 38.473 152.914 38.2839 153.669 38.2839C154.111 38.2839 154.517 38.3541 154.885 38.4943C155.253 38.6346 155.543 38.8358 155.755 39.098C155.973 39.3602 156.082 39.6681 156.082 40.0218C156.082 40.3633 155.986 40.659 155.792 40.909C155.599 41.153 155.328 41.3267 154.978 41.4304Z" fill="#D1D1D1"/>
<path d="M163.022 43.0677H159.373L158.587 44.7781H157.867L160.861 38.3754H161.544L164.537 44.7781H163.808L163.022 43.0677ZM162.769 42.5189L161.197 39.0797L159.626 42.5189H162.769Z" fill="#D1D1D1"/>
<path d="M170.423 41.4761C170.879 41.5676 171.225 41.7475 171.462 42.0158C171.699 42.278 171.817 42.6225 171.817 43.0494C171.817 43.6043 171.615 44.0311 171.209 44.3299C170.81 44.6287 170.221 44.7781 169.441 44.7781H166.541V38.3754H169.263C169.962 38.3754 170.507 38.5157 170.9 38.7962C171.293 39.0767 171.49 39.4822 171.49 40.0127C171.49 40.3724 171.396 40.6773 171.209 40.9273C171.022 41.1712 170.76 41.3542 170.423 41.4761ZM167.224 41.2749H169.226C169.731 41.2749 170.118 41.1743 170.386 40.9731C170.66 40.7718 170.798 40.4791 170.798 40.095C170.798 39.7108 170.66 39.4181 170.386 39.2169C170.118 39.0157 169.731 38.9151 169.226 38.9151H167.224V41.2749ZM169.441 44.2384C170.57 44.2384 171.134 43.8268 171.134 43.0036C171.134 42.1987 170.57 41.7963 169.441 41.7963H167.224V44.2384H169.441Z" fill="#D1D1D1"/>
<path d="M177.169 44.833C176.52 44.833 175.931 44.6927 175.401 44.4122C174.877 44.1256 174.465 43.7354 174.166 43.2414C173.873 42.7475 173.726 42.1926 173.726 41.5767C173.726 40.9609 173.873 40.406 174.166 39.9121C174.465 39.4181 174.877 39.0309 175.401 38.7504C175.931 38.4638 176.52 38.3205 177.169 38.3205C177.818 38.3205 178.401 38.4608 178.918 38.7413C179.442 39.0218 179.854 39.412 180.153 39.9121C180.453 40.406 180.602 40.9609 180.602 41.5767C180.602 42.1926 180.453 42.7506 180.153 43.2506C179.854 43.7445 179.442 44.1317 178.918 44.4122C178.401 44.6927 177.818 44.833 177.169 44.833ZM177.169 44.2293C177.687 44.2293 178.154 44.1165 178.572 43.8909C178.99 43.6591 179.318 43.3421 179.555 42.9396C179.792 42.5311 179.91 42.0768 179.91 41.5767C179.91 41.0767 179.792 40.6255 179.555 40.223C179.318 39.8145 178.99 39.4974 178.572 39.2718C178.154 39.0401 177.687 38.9242 177.169 38.9242C176.651 38.9242 176.18 39.0401 175.756 39.2718C175.338 39.4974 175.008 39.8145 174.764 40.223C174.527 40.6255 174.409 41.0767 174.409 41.5767C174.409 42.0768 174.527 42.5311 174.764 42.9396C175.008 43.3421 175.338 43.6591 175.756 43.8909C176.18 44.1165 176.651 44.2293 177.169 44.2293Z" fill="#D1D1D1"/>
<path d="M188.836 44.1927V46.2141H188.19V44.7781H182.474L182.465 46.2141H181.819L181.828 44.1927H182.156C182.586 44.1683 182.886 43.836 183.054 43.1957C183.222 42.5493 183.325 41.6347 183.363 40.4517L183.438 38.3754H187.853V44.1927H188.836ZM183.98 40.5157C183.949 41.4914 183.871 42.2963 183.746 42.9305C183.628 43.5585 183.425 43.9793 183.138 44.1927H187.17V38.9608H184.036L183.98 40.5157Z" fill="#D1D1D1"/>
</svg>
